<svg width="1103" height="167" viewBox="0 0 1103 167" fill="none" xmlns="http://www.w3.org/2000/svg">
<path d="M83.6604 114.422H53.0558L34.2065 100.596V66.8737L47.2061 51.0244H79.0549L96.2792 66.8737V98.1298" stroke="black" stroke-width="5"/>
<path d="M96.2792 97.5605L126.655 116.076L126.19 53.4606L90.1795 20L31.3064 21.3072L2.50983 52.679L3.14975 116.076L38.9855 146.795L99.5809 147.469L83.0722 114.421" stroke="black" stroke-width="5"/>
<path d="M220.854 139.16L190.774 92.056H203.19L233.27 139.16H220.854ZM197.046 128.536C188.427 128.536 180.832 126.616 174.262 122.776C167.776 118.851 162.699 113.432 159.03 106.52C155.446 99.5227 153.654 91.416 153.654 82.2C153.654 73.0693 155.446 65.048 159.03 58.136C162.699 51.1387 167.776 45.6773 174.262 41.752C180.832 37.8267 188.427 35.864 197.046 35.864C205.835 35.864 213.472 37.8267 219.958 41.752C226.443 45.6773 231.478 51.1387 235.062 58.136C238.731 65.048 240.566 73.0693 240.566 82.2C240.566 91.416 238.731 99.5227 235.062 106.52C231.478 113.432 226.443 118.851 219.958 122.776C213.472 126.616 205.835 128.536 197.046 128.536ZM197.046 119.064C203.531 119.064 209.206 117.613 214.07 114.712C219.019 111.725 222.816 107.501 225.462 102.04C228.192 96.4933 229.558 89.88 229.558 82.2C229.558 74.52 228.192 67.9493 225.462 62.488C222.816 56.9413 219.019 52.7173 214.07 49.816C209.206 46.9147 203.531 45.464 197.046 45.464C190.646 45.464 184.971 46.9147 180.022 49.816C175.158 52.7173 171.36 56.9413 168.63 62.488C165.984 67.9493 164.662 74.52 164.662 82.2C164.662 89.88 165.984 96.4933 168.63 102.04C171.36 107.501 175.158 111.725 180.022 114.712C184.971 117.613 190.646 119.064 197.046 119.064ZM288.491 128.536C282.347 128.536 276.757 127.299 271.723 124.824C266.773 122.349 262.805 118.595 259.819 113.56C256.832 108.44 255.339 101.912 255.339 93.976V37.4H266.091V94.104C266.091 99.9067 267.029 104.643 268.907 108.312C270.869 111.981 273.557 114.669 276.971 116.376C280.384 118.083 284.309 118.936 288.747 118.936C293.269 118.936 297.195 118.083 300.523 116.376C303.851 114.669 306.453 111.981 308.331 108.312C310.208 104.643 311.147 99.9067 311.147 94.104V37.4H321.899V93.976C321.899 101.912 320.405 108.44 317.419 113.56C314.432 118.595 310.421 122.349 305.387 124.824C300.352 127.299 294.72 128.536 288.491 128.536ZM340.11 127V37.4H350.862V127H340.11ZM409.022 128.536C400.318 128.536 392.766 126.616 386.366 122.776C380.051 118.851 375.187 113.432 371.774 106.52C368.36 99.5227 366.654 91.416 366.654 82.2C366.654 72.984 368.36 64.92 371.774 58.008C375.187 51.0107 380.051 45.592 386.366 41.752C392.766 37.8267 400.318 35.864 409.022 35.864C419.262 35.864 427.582 38.296 433.982 43.16C440.382 48.024 444.478 54.8933 446.27 63.768H434.366C433 58.2213 430.227 53.784 426.046 50.456C421.864 47.0427 416.19 45.336 409.022 45.336C402.622 45.336 397.075 46.8293 392.382 49.816C387.688 52.7173 384.062 56.9413 381.502 62.488C378.942 67.9493 377.662 74.52 377.662 82.2C377.662 89.88 378.942 96.4933 381.502 102.04C384.062 107.501 387.688 111.725 392.382 114.712C397.075 117.613 402.622 119.064 409.022 119.064C416.19 119.064 421.864 117.443 426.046 114.2C430.227 110.872 433 106.477 434.366 101.016H446.27C444.478 109.635 440.382 116.376 433.982 121.24C427.582 126.104 419.262 128.536 409.022 128.536ZM461.86 127V37.4H472.612V77.976L509.988 37.4H523.556L490.276 73.112L524.068 127H511.012L482.596 81.432L472.612 92.056V127H461.86ZM536.61 127V37.4H568.098C574.412 37.4 579.618 38.424 583.714 40.472C587.895 42.4347 591.01 45.1653 593.058 48.664C595.106 52.0773 596.13 55.9173 596.13 60.184C596.13 64.792 595.106 68.632 593.058 71.704C591.095 74.776 588.492 77.1227 585.25 78.744C582.092 80.3653 578.722 81.3467 575.138 81.688L576.93 80.408C580.77 80.4933 584.311 81.5173 587.554 83.48C590.796 85.4427 593.356 88.088 595.234 91.416C597.197 94.744 598.178 98.456 598.178 102.552C598.178 107.075 597.068 111.213 594.85 114.968C592.631 118.637 589.346 121.581 584.994 123.8C580.727 125.933 575.436 127 569.122 127H536.61ZM547.362 118.04H567.97C574.028 118.04 578.722 116.632 582.05 113.816C585.463 110.915 587.17 106.904 587.17 101.784C587.17 96.7493 585.42 92.7387 581.922 89.752C578.508 86.68 573.772 85.144 567.714 85.144H547.362V118.04ZM547.362 76.568H567.33C573.132 76.568 577.527 75.2027 580.514 72.472C583.586 69.7413 585.122 66.0293 585.122 61.336C585.122 56.8133 583.586 53.1867 580.514 50.456C577.527 47.7253 573.004 46.36 566.946 46.36H547.362V76.568ZM653.671 128.536C645.052 128.536 637.457 126.616 630.887 122.776C624.401 118.851 619.324 113.432 615.655 106.52C612.071 99.5227 610.279 91.416 610.279 82.2C610.279 73.0693 612.071 65.048 615.655 58.136C619.324 51.1387 624.401 45.6773 630.887 41.752C637.457 37.8267 645.052 35.864 653.671 35.864C662.46 35.864 670.097 37.8267 676.583 41.752C683.068 45.6773 688.103 51.1387 691.687 58.136C695.356 65.048 697.191 73.0693 697.191 82.2C697.191 91.416 695.356 99.5227 691.687 106.52C688.103 113.432 683.068 118.851 676.583 122.776C670.097 126.616 662.46 128.536 653.671 128.536ZM653.671 119.064C660.156 119.064 665.831 117.613 670.695 114.712C675.644 111.725 679.441 107.501 682.087 102.04C684.817 96.4933 686.183 89.88 686.183 82.2C686.183 74.52 684.817 67.9493 682.087 62.488C679.441 56.9413 675.644 52.7173 670.695 49.816C665.831 46.9147 660.156 45.464 653.671 45.464C647.271 45.464 641.596 46.9147 636.647 49.816C631.783 52.7173 627.985 56.9413 625.255 62.488C622.609 67.9493 621.287 74.52 621.287 82.2C621.287 89.88 622.609 96.4933 625.255 102.04C627.985 107.501 631.783 111.725 636.647 114.712C641.596 117.613 647.271 119.064 653.671 119.064ZM700.725 127L733.749 37.4H745.141L778.037 127H766.645L739.381 50.84L711.989 127H700.725ZM715.829 103.96L718.901 95.256H759.477L762.549 103.96H715.829ZM791.485 127V37.4H820.413C827.41 37.4 833.127 38.5947 837.565 40.984C842.002 43.288 845.287 46.4027 847.421 50.328C849.554 54.2533 850.621 58.6907 850.621 63.64C850.621 68.4187 849.511 72.8133 847.293 76.824C845.159 80.8347 841.831 84.0347 837.309 86.424C832.786 88.8133 826.983 90.008 819.901 90.008H802.237V127H791.485ZM838.845 127L819.133 86.936H831.165L851.517 127H838.845ZM802.237 81.56H819.645C826.471 81.56 831.463 79.896 834.621 76.568C837.863 73.24 839.485 68.9733 839.485 63.768C839.485 58.4773 837.906 54.296 834.749 51.224C831.677 48.0667 826.599 46.488 819.517 46.488H802.237V81.56ZM867.485 127V37.4H893.853C904.349 37.4 912.967 39.2347 919.709 42.904C926.535 46.488 931.57 51.6507 934.813 58.392C938.141 65.048 939.805 73.0693 939.805 82.456C939.805 91.672 938.141 99.608 934.813 106.264C931.57 112.92 926.535 118.04 919.709 121.624C912.967 125.208 904.349 127 893.853 127H867.485ZM878.237 118.04H893.597C902.301 118.04 909.213 116.632 914.333 113.816C919.453 110.915 923.122 106.819 925.341 101.528C927.559 96.152 928.669 89.7947 928.669 82.456C928.669 74.9467 927.559 68.504 925.341 63.128C923.122 57.752 919.453 53.6133 914.333 50.712C909.213 47.8107 902.301 46.36 893.597 46.36H878.237V118.04ZM955.61 127V37.4H1011.03V46.232H966.362V77.464H1007.19V86.168H966.362V118.168H1011.03V127H955.61ZM1027.98 127V37.4H1056.91C1063.91 37.4 1069.63 38.5947 1074.06 40.984C1078.5 43.288 1081.79 46.4027 1083.92 50.328C1086.05 54.2533 1087.12 58.6907 1087.12 63.64C1087.12 68.4187 1086.01 72.8133 1083.79 76.824C1081.66 80.8347 1078.33 84.0347 1073.81 86.424C1069.29 88.8133 1063.48 90.008 1056.4 90.008H1038.74V127H1027.98ZM1075.34 127L1055.63 86.936H1067.66L1088.02 127H1075.34ZM1038.74 81.56H1056.14C1062.97 81.56 1067.96 79.896 1071.12 76.568C1074.36 73.24 1075.98 68.9733 1075.98 63.768C1075.98 58.4773 1074.41 54.296 1071.25 51.224C1068.18 48.0667 1063.1 46.488 1056.02 46.488H1038.74V81.56Z" fill="black"/>
</svg>
