<svg width="358" height="249" viewBox="0 0 358 249" fill="none" xmlns="http://www.w3.org/2000/svg">
<rect width="358" height="249" fill="#FAFAFA"/>
<mask id="mask0_47_75" style="mask-type:luminance" maskUnits="userSpaceOnUse" x="171" y="118" width="16" height="16">
<path d="M187 118H171V134H187V118Z" fill="white"/>
</mask>
<g mask="url(#mask0_47_75)">
<path d="M175.667 125.333L178.387 132.233C178.438 132.354 178.524 132.456 178.633 132.528C178.742 132.6 178.869 132.639 179 132.639C179.131 132.639 179.259 132.6 179.368 132.528C179.477 132.456 179.562 132.354 179.613 132.233L182.333 125.333M175.667 125.333H182.333M175.667 125.333C175.313 125.333 174.974 125.193 174.724 124.943C174.474 124.693 174.333 124.354 174.333 124C174.333 123.646 174.474 123.307 174.724 123.057C174.974 122.807 175.313 122.667 175.667 122.667C175.667 121.783 176.018 120.935 176.643 120.31C177.268 119.684 178.116 119.333 179 119.333C179.884 119.333 180.732 119.684 181.357 120.31C181.982 120.935 182.333 121.783 182.333 122.667C182.687 122.667 183.026 122.807 183.276 123.057C183.526 123.307 183.667 123.646 183.667 124C183.667 124.354 183.526 124.693 183.276 124.943C183.026 125.193 182.687 125.333 182.333 125.333" stroke="#A118CA" stroke-width="1.33333" stroke-linecap="round" stroke-linejoin="round"/>
</g>
<mask id="mask1_47_75" style="mask-type:luminance" maskUnits="userSpaceOnUse" x="171" y="168" width="16" height="16">
<path d="M187 168H171V184H187V168Z" fill="white"/>
</mask>
<g mask="url(#mask1_47_75)">
<path d="M172.8 174.867C172.65 175.016 172.532 175.193 172.451 175.388C172.37 175.583 172.329 175.792 172.329 176.003C172.329 176.214 172.37 176.423 172.451 176.619C172.532 176.814 172.65 176.991 172.8 177.14L177.86 182.2C178.009 182.349 178.186 182.468 178.381 182.549C178.576 182.629 178.785 182.671 178.996 182.671C179.208 182.671 179.417 182.629 179.612 182.549C179.807 182.468 179.984 182.349 180.133 182.2L185.193 177.14C185.342 176.991 185.461 176.814 185.542 176.619C185.623 176.423 185.664 176.214 185.664 176.003C185.664 175.792 185.623 175.583 185.542 175.388C185.461 175.193 185.342 175.016 185.193 174.867L180.133 169.807C179.984 169.657 179.807 169.539 179.612 169.458C179.417 169.377 179.208 169.335 178.996 169.335C178.785 169.335 178.576 169.377 178.381 169.458C178.186 169.539 178.009 169.657 177.86 169.807L172.8 174.867Z" stroke="#5780D7" stroke-width="1.33333" stroke-linecap="round" stroke-linejoin="round"/>
</g>
<mask id="mask2_47_75" style="mask-type:luminance" maskUnits="userSpaceOnUse" x="171" y="200" width="16" height="16">
<path d="M187 200H171V216H187V200Z" fill="white"/>
</mask>
<g mask="url(#mask2_47_75)">
<path d="M172.8 206.867C172.65 207.016 172.532 207.193 172.451 207.388C172.37 207.583 172.329 207.792 172.329 208.003C172.329 208.214 172.37 208.423 172.451 208.619C172.532 208.814 172.65 208.991 172.8 209.14L177.86 214.2C178.009 214.349 178.186 214.468 178.381 214.549C178.576 214.629 178.785 214.671 178.996 214.671C179.208 214.671 179.417 214.629 179.612 214.549C179.807 214.468 179.984 214.349 180.133 214.2L185.193 209.14C185.342 208.991 185.461 208.814 185.542 208.619C185.623 208.423 185.664 208.214 185.664 208.003C185.664 207.792 185.623 207.583 185.542 207.388C185.461 207.193 185.342 207.016 185.193 206.867L180.133 201.807C179.984 201.657 179.807 201.539 179.612 201.458C179.417 201.377 179.208 201.335 178.996 201.335C178.785 201.335 178.576 201.377 178.381 201.458C178.186 201.539 178.009 201.657 177.86 201.807L172.8 206.867Z" stroke="#5780D7" stroke-width="1.33333" stroke-linecap="round" stroke-linejoin="round"/>
</g>
<path d="M37.3395 41.4531C37.2732 40.8329 36.9938 40.3499 36.5014 40.0043C36.0137 39.6586 35.3793 39.4858 34.598 39.4858C34.0488 39.4858 33.5777 39.5687 33.1847 39.7344C32.7917 39.9001 32.491 40.125 32.2827 40.4091C32.0743 40.6932 31.9678 41.0175 31.9631 41.3821C31.9631 41.6851 32.0317 41.9479 32.169 42.1705C32.3111 42.393 32.5028 42.5824 32.7443 42.7386C32.9858 42.8902 33.2533 43.018 33.5469 43.1222C33.8404 43.2263 34.1364 43.3139 34.4347 43.3849L35.7983 43.7259C36.3475 43.8537 36.8755 44.0265 37.3821 44.2443C37.8935 44.4621 38.3504 44.7367 38.7528 45.0682C39.16 45.3996 39.482 45.7997 39.7188 46.2685C39.9555 46.7372 40.0739 47.2865 40.0739 47.9162C40.0739 48.7685 39.8561 49.5189 39.4205 50.1676C38.9848 50.8116 38.3551 51.3158 37.5312 51.6804C36.7121 52.0402 35.7202 52.2202 34.5554 52.2202C33.4238 52.2202 32.4413 52.045 31.608 51.6946C30.7794 51.3442 30.1307 50.8329 29.6619 50.1605C29.1979 49.4882 28.947 48.669 28.9091 47.7031H31.5014C31.5393 48.2098 31.6955 48.6312 31.9702 48.9673C32.2448 49.3035 32.6023 49.5545 33.0426 49.7202C33.4877 49.8859 33.9848 49.9688 34.5341 49.9688C35.107 49.9688 35.6089 49.8835 36.0398 49.7131C36.4754 49.5379 36.8163 49.2964 37.0625 48.9886C37.3087 48.6761 37.4342 48.3116 37.4389 47.8949C37.4342 47.5161 37.3229 47.2036 37.1051 46.9574C36.8873 46.7064 36.5819 46.4981 36.1889 46.3324C35.8007 46.1619 35.3461 46.0104 34.8253 45.8778L33.1705 45.4517C31.9725 45.1439 31.0256 44.6776 30.3295 44.0526C29.6383 43.4228 29.2926 42.5871 29.2926 41.5455C29.2926 40.6884 29.5246 39.938 29.9886 39.294C30.4574 38.6501 31.0942 38.1506 31.8991 37.7955C32.7041 37.4356 33.6155 37.2557 34.6335 37.2557C35.6657 37.2557 36.5701 37.4356 37.3466 37.7955C38.1278 38.1506 38.741 38.6454 39.1861 39.2798C39.6312 39.9096 39.8608 40.634 39.875 41.4531H37.3395ZM47.7567 41.0909V43.0795H41.4854V41.0909H47.7567ZM43.0337 38.4773H45.6048V48.7188C45.6048 49.0644 45.6568 49.3295 45.761 49.5142C45.8699 49.6941 46.012 49.8172 46.1871 49.8835C46.3623 49.9498 46.5565 49.983 46.7695 49.983C46.9305 49.983 47.0773 49.9711 47.2099 49.9474C47.3472 49.9238 47.4513 49.9025 47.5224 49.8835L47.9556 51.8935C47.8183 51.9408 47.6218 51.9929 47.3661 52.0497C47.1152 52.1065 46.8074 52.1397 46.4428 52.1491C45.7989 52.1681 45.2189 52.071 44.7028 51.858C44.1867 51.6402 43.7771 51.304 43.4741 50.8494C43.1758 50.3949 43.029 49.8267 43.0337 49.1449V38.4773ZM54.5483 52.2131C53.483 52.2131 52.5597 51.9787 51.7784 51.5099C50.9972 51.0412 50.3911 50.3854 49.9602 49.5426C49.5341 48.6998 49.321 47.715 49.321 46.5881C49.321 45.4612 49.5341 44.474 49.9602 43.6264C50.3911 42.7789 50.9972 42.1207 51.7784 41.652C52.5597 41.1832 53.483 40.9489 54.5483 40.9489C55.6136 40.9489 56.5369 41.1832 57.3182 41.652C58.0994 42.1207 58.7031 42.7789 59.1293 43.6264C59.5601 44.474 59.7756 45.4612 59.7756 46.5881C59.7756 47.715 59.5601 48.6998 59.1293 49.5426C58.7031 50.3854 58.0994 51.0412 57.3182 51.5099C56.5369 51.9787 55.6136 52.2131 54.5483 52.2131ZM54.5625 50.1534C55.1402 50.1534 55.6231 49.9948 56.0114 49.6776C56.3996 49.3556 56.6884 48.9247 56.8778 48.3849C57.072 47.8452 57.169 47.2438 57.169 46.581C57.169 45.9134 57.072 45.3097 56.8778 44.7699C56.6884 44.2254 56.3996 43.7921 56.0114 43.4702C55.6231 43.1482 55.1402 42.9872 54.5625 42.9872C53.9706 42.9872 53.4782 43.1482 53.0852 43.4702C52.697 43.7921 52.4058 44.2254 52.2116 44.7699C52.0223 45.3097 51.9276 45.9134 51.9276 46.581C51.9276 47.2438 52.0223 47.8452 52.2116 48.3849C52.4058 48.9247 52.697 49.3556 53.0852 49.6776C53.4782 49.9948 53.9706 50.1534 54.5625 50.1534ZM61.9577 52V41.0909H64.4506V42.9091H64.5643C64.7631 42.2794 65.104 41.794 65.587 41.4531C66.0747 41.1075 66.631 40.9347 67.256 40.9347C67.3981 40.9347 67.5567 40.9418 67.7319 40.956C67.9118 40.9654 68.061 40.982 68.1793 41.0057V43.3707C68.0704 43.3329 67.8976 43.2997 67.6609 43.2713C67.4289 43.2382 67.204 43.2216 66.9862 43.2216C66.5174 43.2216 66.096 43.3234 65.7219 43.527C65.3526 43.7259 65.0614 44.0028 64.8484 44.358C64.6353 44.7131 64.5288 45.1226 64.5288 45.5866V52H61.9577ZM74.2678 52.2131C73.174 52.2131 72.2294 51.9858 71.4339 51.5312C70.6432 51.072 70.0348 50.4233 69.6087 49.5852C69.1825 48.7424 68.9695 47.7505 68.9695 46.6094C68.9695 45.4872 69.1825 44.5024 69.6087 43.6548C70.0395 42.8026 70.6409 42.1397 71.4126 41.6662C72.1844 41.188 73.0911 40.9489 74.1328 40.9489C74.8052 40.9489 75.4396 41.0578 76.0362 41.2756C76.6375 41.4886 77.1679 41.8201 77.6271 42.2699C78.0911 42.7197 78.4557 43.2926 78.7209 43.9886C78.986 44.6799 79.1186 45.5038 79.1186 46.4602V47.2486H70.1768V45.5156H76.6541C76.6494 45.0232 76.5429 44.5852 76.3345 44.2017C76.1262 43.8134 75.835 43.508 75.4609 43.2855C75.0916 43.063 74.6607 42.9517 74.1683 42.9517C73.6428 42.9517 73.1811 43.0795 72.7834 43.3352C72.3857 43.5862 72.0755 43.9176 71.853 44.3295C71.6352 44.7367 71.5239 45.1842 71.5192 45.6719V47.1847C71.5192 47.8191 71.6352 48.3636 71.8672 48.8182C72.0992 49.268 72.4235 49.6136 72.8402 49.8551C73.2569 50.0919 73.7446 50.2102 74.3033 50.2102C74.6773 50.2102 75.0159 50.1581 75.3189 50.054C75.6219 49.9451 75.8847 49.7865 76.1072 49.5781C76.3298 49.3698 76.4979 49.1117 76.6115 48.804L79.0121 49.0739C78.8606 49.7083 78.5717 50.2623 78.1456 50.7358C77.7242 51.2045 77.1844 51.5691 76.5263 51.8295C75.8681 52.0852 75.1153 52.2131 74.2678 52.2131ZM99.3654 44.7273C99.3654 46.2945 99.0719 47.6368 98.4847 48.7543C97.9023 49.867 97.1069 50.7192 96.0984 51.3111C95.0946 51.9029 93.9558 52.1989 92.6822 52.1989C91.4085 52.1989 90.2674 51.9029 89.2589 51.3111C88.2551 50.7145 87.4596 49.8598 86.8725 48.7472C86.2901 47.6297 85.9989 46.2898 85.9989 44.7273C85.9989 43.16 86.2901 41.8201 86.8725 40.7074C87.4596 39.59 88.2551 38.7353 89.2589 38.1435C90.2674 37.5516 91.4085 37.2557 92.6822 37.2557C93.9558 37.2557 95.0946 37.5516 96.0984 38.1435C97.1069 38.7353 97.9023 39.59 98.4847 40.7074C99.0719 41.8201 99.3654 43.16 99.3654 44.7273ZM96.7163 44.7273C96.7163 43.6241 96.5434 42.6937 96.1978 41.9361C95.8569 41.1738 95.3834 40.5985 94.7773 40.2102C94.1713 39.8172 93.4729 39.6207 92.6822 39.6207C91.8915 39.6207 91.1931 39.8172 90.587 40.2102C89.9809 40.5985 89.5051 41.1738 89.1594 41.9361C88.8185 42.6937 88.6481 43.6241 88.6481 44.7273C88.6481 45.8305 88.8185 46.7633 89.1594 47.5256C89.5051 48.2831 89.9809 48.8584 90.587 49.2514C91.1931 49.6397 91.8915 49.8338 92.6822 49.8338C93.4729 49.8338 94.1713 49.6397 94.7773 49.2514C95.3834 48.8584 95.8569 48.2831 96.1978 47.5256C96.5434 46.7633 96.7163 45.8305 96.7163 44.7273ZM104.314 45.608V52H101.743V41.0909H104.2V42.9446H104.328C104.579 42.3338 104.979 41.8485 105.528 41.4886C106.082 41.1288 106.767 40.9489 107.581 40.9489C108.334 40.9489 108.99 41.1098 109.548 41.4318C110.112 41.7538 110.547 42.2202 110.855 42.831C111.168 43.4418 111.321 44.1828 111.317 45.054V52H108.746V45.4517C108.746 44.7225 108.556 44.152 108.178 43.7401C107.804 43.3281 107.285 43.1222 106.622 43.1222C106.172 43.1222 105.772 43.2216 105.422 43.4205C105.076 43.6146 104.804 43.8963 104.605 44.2656C104.411 44.6349 104.314 45.0824 104.314 45.608ZM114.044 52V37.4545H116.615V42.8949H116.722C116.854 42.6297 117.041 42.348 117.283 42.0497C117.524 41.7467 117.851 41.4886 118.263 41.2756C118.675 41.0578 119.2 40.9489 119.839 40.9489C120.682 40.9489 121.442 41.1643 122.119 41.5952C122.801 42.0213 123.341 42.6534 123.739 43.4915C124.141 44.3248 124.342 45.3475 124.342 46.5597C124.342 47.7576 124.146 48.7756 123.753 49.6136C123.36 50.4517 122.825 51.0909 122.148 51.5312C121.471 51.9716 120.704 52.1918 119.847 52.1918C119.222 52.1918 118.703 52.0876 118.291 51.8793C117.879 51.6709 117.548 51.42 117.297 51.1264C117.051 50.8281 116.859 50.5464 116.722 50.2812H116.572V52H114.044ZM116.565 46.5455C116.565 47.2509 116.665 47.8688 116.864 48.3991C117.067 48.9295 117.358 49.3437 117.737 49.642C118.121 49.9356 118.585 50.0824 119.129 50.0824C119.697 50.0824 120.173 49.9309 120.557 49.6278C120.94 49.3201 121.229 48.901 121.423 48.3707C121.622 47.8357 121.722 47.2273 121.722 46.5455C121.722 45.8684 121.625 45.267 121.43 44.7415C121.236 44.2159 120.947 43.804 120.564 43.5057C120.18 43.2074 119.702 43.0582 119.129 43.0582C118.58 43.0582 118.114 43.2027 117.73 43.4915C117.347 43.7803 117.055 44.1851 116.857 44.706C116.662 45.2268 116.565 45.84 116.565 46.5455ZM131.287 52.2131C130.221 52.2131 129.298 51.9787 128.517 51.5099C127.735 51.0412 127.129 50.3854 126.699 49.5426C126.272 48.6998 126.059 47.715 126.059 46.5881C126.059 45.4612 126.272 44.474 126.699 43.6264C127.129 42.7789 127.735 42.1207 128.517 41.652C129.298 41.1832 130.221 40.9489 131.287 40.9489C132.352 40.9489 133.275 41.1832 134.056 41.652C134.838 42.1207 135.441 42.7789 135.868 43.6264C136.298 44.474 136.514 45.4612 136.514 46.5881C136.514 47.715 136.298 48.6998 135.868 49.5426C135.441 50.3854 134.838 51.0412 134.056 51.5099C133.275 51.9787 132.352 52.2131 131.287 52.2131ZM131.301 50.1534C131.878 50.1534 132.361 49.9948 132.75 49.6776C133.138 49.3556 133.427 48.9247 133.616 48.3849C133.81 47.8452 133.907 47.2438 133.907 46.581C133.907 45.9134 133.81 45.3097 133.616 44.7699C133.427 44.2254 133.138 43.7921 132.75 43.4702C132.361 43.1482 131.878 42.9872 131.301 42.9872C130.709 42.9872 130.217 43.1482 129.824 43.4702C129.435 43.7921 129.144 44.2254 128.95 44.7699C128.761 45.3097 128.666 45.9134 128.666 46.581C128.666 47.2438 128.761 47.8452 128.95 48.3849C129.144 48.9247 129.435 49.3556 129.824 49.6776C130.217 49.9948 130.709 50.1534 131.301 50.1534ZM141.835 52.2202C141.144 52.2202 140.521 52.0971 139.967 51.8509C139.418 51.5999 138.982 51.2306 138.661 50.7429C138.343 50.2552 138.185 49.6539 138.185 48.9389C138.185 48.3234 138.298 47.8144 138.526 47.4119C138.753 47.0095 139.063 46.6875 139.456 46.446C139.849 46.2045 140.292 46.0223 140.784 45.8991C141.281 45.7713 141.795 45.679 142.325 45.6222C142.964 45.5559 143.483 45.4967 143.881 45.4446C144.278 45.3878 144.567 45.3026 144.747 45.1889C144.932 45.0705 145.024 44.8883 145.024 44.642V44.5994C145.024 44.0644 144.866 43.6501 144.548 43.3565C144.231 43.063 143.774 42.9162 143.178 42.9162C142.548 42.9162 142.048 43.0535 141.679 43.3281C141.314 43.6027 141.068 43.9271 140.94 44.3011L138.54 43.9602C138.729 43.2973 139.042 42.7434 139.477 42.2983C139.913 41.8485 140.446 41.5123 141.075 41.2898C141.705 41.0625 142.401 40.9489 143.163 40.9489C143.689 40.9489 144.212 41.0104 144.733 41.1335C145.254 41.2566 145.73 41.4602 146.161 41.7443C146.591 42.0237 146.937 42.4048 147.197 42.8878C147.463 43.3707 147.595 43.9744 147.595 44.6989V52H145.124V50.5014H145.038C144.882 50.8045 144.662 51.0885 144.378 51.3537C144.098 51.6141 143.746 51.8248 143.32 51.9858C142.898 52.142 142.403 52.2202 141.835 52.2202ZM142.503 50.331C143.019 50.331 143.466 50.2292 143.845 50.0256C144.224 49.8172 144.515 49.5426 144.719 49.2017C144.927 48.8608 145.031 48.4891 145.031 48.0866V46.8011C144.951 46.8674 144.813 46.929 144.619 46.9858C144.43 47.0426 144.217 47.0923 143.98 47.1349C143.743 47.1776 143.509 47.2154 143.277 47.2486C143.045 47.2817 142.844 47.3101 142.673 47.3338C142.29 47.3859 141.946 47.4711 141.643 47.5895C141.34 47.7079 141.101 47.8736 140.926 48.0866C140.751 48.295 140.663 48.5649 140.663 48.8963C140.663 49.3698 140.836 49.7273 141.182 49.9688C141.527 50.2102 141.968 50.331 142.503 50.331ZM150.18 52V41.0909H152.673V42.9091H152.787C152.986 42.2794 153.327 41.794 153.81 41.4531C154.297 41.1075 154.854 40.9347 155.479 40.9347C155.621 40.9347 155.779 40.9418 155.955 40.956C156.134 40.9654 156.284 40.982 156.402 41.0057V43.3707C156.293 43.3329 156.12 43.2997 155.884 43.2713C155.652 43.2382 155.427 43.2216 155.209 43.2216C154.74 43.2216 154.319 43.3234 153.945 43.527C153.575 43.7259 153.284 44.0028 153.071 44.358C152.858 44.7131 152.751 45.1226 152.751 45.5866V52H150.18ZM161.709 52.1918C160.852 52.1918 160.085 51.9716 159.408 51.5312C158.731 51.0909 158.196 50.4517 157.803 49.6136C157.41 48.7756 157.213 47.7576 157.213 46.5597C157.213 45.3475 157.412 44.3248 157.81 43.4915C158.212 42.6534 158.755 42.0213 159.436 41.5952C160.118 41.1643 160.878 40.9489 161.716 40.9489C162.355 40.9489 162.881 41.0578 163.293 41.2756C163.705 41.4886 164.032 41.7467 164.273 42.0497C164.515 42.348 164.702 42.6297 164.834 42.8949H164.941V37.4545H167.519V52H164.99V50.2812H164.834C164.702 50.5464 164.51 50.8281 164.259 51.1264C164.008 51.42 163.676 51.6709 163.265 51.8793C162.853 52.0876 162.334 52.1918 161.709 52.1918ZM162.426 50.0824C162.971 50.0824 163.435 49.9356 163.819 49.642C164.202 49.3437 164.493 48.9295 164.692 48.3991C164.891 47.8688 164.99 47.2509 164.99 46.5455C164.99 45.84 164.891 45.2268 164.692 44.706C164.498 44.1851 164.209 43.7803 163.826 43.4915C163.447 43.2027 162.98 43.0582 162.426 43.0582C161.854 43.0582 161.375 43.2074 160.992 43.5057C160.608 43.804 160.319 44.2159 160.125 44.7415C159.931 45.267 159.834 45.8684 159.834 46.5455C159.834 47.2273 159.931 47.8357 160.125 48.3707C160.324 48.901 160.615 49.3201 160.999 49.6278C161.387 49.9309 161.863 50.0824 162.426 50.0824ZM170.259 52V41.0909H172.83V52H170.259ZM171.551 39.5426C171.144 39.5426 170.794 39.4077 170.5 39.1378C170.206 38.8632 170.06 38.5341 170.06 38.1506C170.06 37.7623 170.206 37.4332 170.5 37.1634C170.794 36.8887 171.144 36.7514 171.551 36.7514C171.963 36.7514 172.313 36.8887 172.602 37.1634C172.896 37.4332 173.043 37.7623 173.043 38.1506C173.043 38.5341 172.896 38.8632 172.602 39.1378C172.313 39.4077 171.963 39.5426 171.551 39.5426ZM178.044 45.608V52H175.473V41.0909H177.931V42.9446H178.059C178.31 42.3338 178.71 41.8485 179.259 41.4886C179.813 41.1288 180.497 40.9489 181.311 40.9489C182.064 40.9489 182.72 41.1098 183.279 41.4318C183.842 41.7538 184.278 42.2202 184.586 42.831C184.898 43.4418 185.052 44.1828 185.047 45.054V52H182.476V45.4517C182.476 44.7225 182.287 44.152 181.908 43.7401C181.534 43.3281 181.016 43.1222 180.353 43.1222C179.903 43.1222 179.503 43.2216 179.152 43.4205C178.807 43.6146 178.534 43.8963 178.336 44.2656C178.141 44.6349 178.044 45.0824 178.044 45.608ZM192.405 56.3182C191.482 56.3182 190.689 56.1927 190.026 55.9418C189.363 55.6955 188.83 55.3641 188.428 54.9474C188.025 54.5308 187.746 54.0691 187.59 53.5625L189.905 53.0014C190.009 53.2145 190.161 53.4252 190.36 53.6335C190.559 53.8466 190.826 54.0218 191.162 54.1591C191.503 54.3011 191.932 54.3722 192.448 54.3722C193.177 54.3722 193.781 54.1946 194.259 53.8395C194.737 53.4891 194.976 52.9115 194.976 52.1065V50.0398H194.848C194.716 50.3049 194.522 50.5772 194.266 50.8565C194.015 51.1359 193.681 51.3703 193.265 51.5597C192.853 51.7491 192.334 51.8438 191.709 51.8438C190.871 51.8438 190.111 51.6473 189.429 51.2543C188.752 50.8565 188.212 50.2647 187.81 49.4787C187.412 48.688 187.213 47.6984 187.213 46.5099C187.213 45.312 187.412 44.3011 187.81 43.4773C188.212 42.6487 188.755 42.0213 189.436 41.5952C190.118 41.1643 190.878 40.9489 191.716 40.9489C192.355 40.9489 192.881 41.0578 193.293 41.2756C193.71 41.4886 194.041 41.7467 194.287 42.0497C194.533 42.348 194.721 42.6297 194.848 42.8949H194.99V41.0909H197.526V52.1776C197.526 53.1103 197.303 53.8821 196.858 54.4929C196.413 55.1037 195.805 55.5606 195.033 55.8636C194.261 56.1667 193.385 56.3182 192.405 56.3182ZM192.426 49.8267C192.971 49.8267 193.435 49.6941 193.819 49.429C194.202 49.1638 194.493 48.7827 194.692 48.2855C194.891 47.7884 194.99 47.1918 194.99 46.4957C194.99 45.8092 194.891 45.2079 194.692 44.6918C194.498 44.1757 194.209 43.7756 193.826 43.4915C193.447 43.2027 192.98 43.0582 192.426 43.0582C191.854 43.0582 191.375 43.2074 190.992 43.5057C190.608 43.804 190.319 44.2135 190.125 44.7344C189.931 45.2505 189.834 45.8376 189.834 46.4957C189.834 47.1634 189.931 47.7481 190.125 48.25C190.324 48.7472 190.615 49.1354 190.999 49.4148C191.387 49.6894 191.863 49.8267 192.426 49.8267Z" fill="#09090B"/>
<mask id="mask3_47_75" style="mask-type:luminance" maskUnits="userSpaceOnUse" x="171" y="80" width="16" height="16">
<path d="M187 80H171V96H187V80Z" fill="white"/>
</mask>
<g mask="url(#mask3_47_75)">
<path d="M179 85.3333V90.6667M176.333 88H181.667M172.8 86.8666C172.65 87.0158 172.532 87.193 172.451 87.3881C172.37 87.5831 172.329 87.7922 172.329 88.0033C172.329 88.2144 172.37 88.4235 172.451 88.6185C172.532 88.8135 172.65 88.9907 172.8 89.1399L177.86 94.2C178.009 94.349 178.186 94.468 178.381 94.549C178.576 94.629 178.785 94.671 178.996 94.671C179.208 94.671 179.417 94.629 179.612 94.549C179.807 94.468 179.984 94.349 180.133 94.2L185.193 89.1399C185.342 88.9907 185.461 88.8135 185.542 88.6185C185.623 88.4235 185.664 88.2144 185.664 88.0033C185.664 87.7922 185.623 87.5831 185.542 87.3881C185.461 87.193 185.342 87.0158 185.193 86.8666L180.133 81.8066C179.984 81.6572 179.807 81.5388 179.612 81.4579C179.417 81.3771 179.208 81.3354 178.996 81.3354C178.785 81.3354 178.576 81.3771 178.381 81.4579C178.186 81.5388 178.009 81.6572 177.86 81.8066L172.8 86.8666Z" stroke="#EA9745" stroke-width="1.33333" stroke-linecap="round" stroke-linejoin="round"/>
</g>
<path d="M29.233 96V85.8182H32.6733C33.4721 85.8182 34.125 85.9624 34.6321 86.2507C35.1425 86.5357 35.5204 86.9219 35.7656 87.4091C36.0109 87.8963 36.1335 88.4399 36.1335 89.0398C36.1335 89.6397 36.0109 90.1849 35.7656 90.6754C35.5237 91.166 35.1491 91.5571 34.642 91.8487C34.1349 92.1371 33.4853 92.2812 32.6932 92.2812H30.2273V91.1875H32.6534C33.2003 91.1875 33.6394 91.093 33.9709 90.9041C34.3023 90.7152 34.5426 90.46 34.6918 90.1385C34.8442 89.8137 34.9205 89.4474 34.9205 89.0398C34.9205 88.6321 34.8442 88.2675 34.6918 87.946C34.5426 87.6245 34.3007 87.3726 33.9659 87.1903C33.6312 87.0047 33.187 86.9119 32.6335 86.9119H30.4659V96H29.233ZM37.9606 96V88.3636H39.0941V89.517H39.1737C39.3129 89.1392 39.5647 88.8326 39.9293 88.5973C40.2939 88.362 40.7049 88.2443 41.1623 88.2443C41.2485 88.2443 41.3562 88.246 41.4854 88.2493C41.6147 88.2526 41.7125 88.2576 41.7788 88.2642V89.4574C41.739 89.4474 41.6478 89.4325 41.5053 89.4126C41.3661 89.3894 41.2186 89.3778 41.0629 89.3778C40.6916 89.3778 40.3602 89.4557 40.0685 89.6115C39.7802 89.764 39.5515 89.9761 39.3825 90.2479C39.2167 90.5163 39.1339 90.8229 39.1339 91.1676V96H37.9606ZM46.0394 96.1591C45.35 96.1591 44.7451 95.995 44.2248 95.6669C43.7077 95.3388 43.3034 94.8797 43.0117 94.2898C42.7234 93.6998 42.5792 93.0104 42.5792 92.2216C42.5792 91.4261 42.7234 90.7318 43.0117 90.1385C43.3034 89.5452 43.7077 89.0845 44.2248 88.7564C44.7451 88.4283 45.35 88.2642 46.0394 88.2642C46.7288 88.2642 47.332 88.4283 47.8491 88.7564C48.3694 89.0845 48.7738 89.5452 49.0621 90.1385C49.3538 90.7318 49.4996 91.4261 49.4996 92.2216C49.4996 93.0104 49.3538 93.6998 49.0621 94.2898C48.7738 94.8797 48.3694 95.3388 47.8491 95.6669C47.332 95.995 46.7288 96.1591 46.0394 96.1591ZM46.0394 95.1051C46.5631 95.1051 46.994 94.9709 47.332 94.7024C47.6701 94.4339 47.9203 94.081 48.0827 93.6435C48.2451 93.206 48.3263 92.732 48.3263 92.2216C48.3263 91.7112 48.2451 91.2356 48.0827 90.7947C47.9203 90.3539 47.6701 89.9976 47.332 89.7259C46.994 89.4541 46.5631 89.3182 46.0394 89.3182C45.5157 89.3182 45.0849 89.4541 44.7468 89.7259C44.4087 89.9976 44.1585 90.3539 43.9961 90.7947C43.8337 91.2356 43.7525 91.7112 43.7525 92.2216C43.7525 92.732 43.8337 93.206 43.9961 93.6435C44.1585 94.081 44.4087 94.4339 44.7468 94.7024C45.0849 94.9709 45.5157 95.1051 46.0394 95.1051ZM54.1742 96.1591C53.5378 96.1591 52.976 95.9983 52.4888 95.6768C52.0016 95.352 51.6204 94.8946 51.3453 94.3047C51.0703 93.7114 50.9327 93.0104 50.9327 92.2017C50.9327 91.3996 51.0703 90.7036 51.3453 90.1136C51.6204 89.5237 52.0033 89.0679 52.4938 88.7464C52.9843 88.425 53.5511 88.2642 54.1941 88.2642C54.6912 88.2642 55.084 88.3471 55.3723 88.5128C55.664 88.6752 55.8861 88.8608 56.0385 89.0696C56.1943 89.2751 56.3153 89.4441 56.4015 89.5767H56.5009V85.8182H57.6742V96H56.5407V94.8267H56.4015C56.3153 94.9659 56.1926 95.1416 56.0336 95.3537C55.8745 95.5625 55.6474 95.7498 55.3525 95.9155C55.0575 96.0779 54.6647 96.1591 54.1742 96.1591ZM54.3333 95.1051C54.8039 95.1051 55.2016 94.9825 55.5265 94.7372C55.8513 94.4886 56.0982 94.1456 56.2672 93.7081C56.4363 93.2673 56.5208 92.7585 56.5208 92.1818C56.5208 91.6117 56.4379 91.1129 56.2722 90.6854C56.1065 90.2545 55.8612 89.9197 55.5364 89.6811C55.2116 89.4392 54.8105 89.3182 54.3333 89.3182C53.8361 89.3182 53.4218 89.4458 53.0904 89.701C52.7623 89.9529 52.5153 90.2959 52.3496 90.7301C52.1872 91.161 52.106 91.6449 52.106 92.1818C52.106 92.7254 52.1889 93.2192 52.3546 93.6634C52.5236 94.1042 52.7722 94.4555 53.1003 94.7173C53.4318 94.9759 53.8427 95.1051 54.3333 95.1051ZM64.7985 92.8778V88.3636H65.9718V96H64.7985V94.7074H64.7189C64.54 95.0952 64.2615 95.425 63.8837 95.6967C63.5059 95.9652 63.0286 96.0994 62.4519 96.0994C61.9746 96.0994 61.5504 95.995 61.1792 95.7862C60.8079 95.5741 60.5163 95.2559 60.3042 94.8317C60.092 94.4041 59.986 93.8655 59.986 93.2159V88.3636H61.1593V93.1364C61.1593 93.6932 61.315 94.1373 61.6266 94.4688C61.9415 94.8002 62.3425 94.9659 62.8297 94.9659C63.1214 94.9659 63.418 94.8913 63.7196 94.7422C64.0246 94.593 64.2798 94.3643 64.4853 94.0561C64.6941 93.7479 64.7985 93.3551 64.7985 92.8778ZM71.223 96.1591C70.5071 96.1591 69.8906 95.9901 69.3736 95.652C68.8565 95.3139 68.4588 94.8482 68.1804 94.255C67.902 93.6617 67.7628 92.9839 67.7628 92.2216C67.7628 91.446 67.9053 90.7616 68.1903 90.1683C68.4787 89.5717 68.8797 89.1061 69.3935 88.7713C69.9105 88.4332 70.5137 88.2642 71.2031 88.2642C71.7401 88.2642 72.224 88.3636 72.6548 88.5625C73.0857 88.7614 73.4387 89.0398 73.7138 89.3977C73.9889 89.7557 74.1596 90.1733 74.2259 90.6506H73.0526C72.9631 90.3026 72.7642 89.9943 72.456 89.7259C72.151 89.4541 71.7401 89.3182 71.223 89.3182C70.7656 89.3182 70.3646 89.4375 70.0199 89.6761C69.6785 89.9115 69.4117 90.2446 69.2195 90.6754C69.0305 91.103 68.9361 91.6051 68.9361 92.1818C68.9361 92.7718 69.0289 93.2855 69.2145 93.723C69.4034 94.1605 69.6686 94.5002 70.0099 94.7422C70.3546 94.9841 70.759 95.1051 71.223 95.1051C71.5279 95.1051 71.8047 95.0521 72.0533 94.946C72.3018 94.84 72.5123 94.6875 72.6847 94.4886C72.857 94.2898 72.9796 94.0511 73.0526 93.7727H74.2259C74.1596 94.2235 73.9955 94.6295 73.7337 94.9908C73.4751 95.3487 73.1321 95.6338 72.7045 95.8459C72.2803 96.0547 71.7865 96.1591 71.223 96.1591ZM79.2621 88.3636V89.358H75.3047V88.3636H79.2621ZM76.4581 86.5341H77.6314V93.8125C77.6314 94.1439 77.6795 94.3925 77.7756 94.5582C77.875 94.7206 78.0009 94.83 78.1534 94.8864C78.3092 94.9394 78.4732 94.9659 78.6456 94.9659C78.7749 94.9659 78.8809 94.9593 78.9638 94.946C79.0466 94.9295 79.1129 94.9162 79.1626 94.9062L79.4013 95.9602C79.3217 95.9901 79.2107 96.0199 79.0682 96.0497C78.9257 96.0829 78.745 96.0994 78.5263 96.0994C78.1948 96.0994 77.87 96.0282 77.5518 95.8857C77.237 95.7431 76.9751 95.526 76.7663 95.2344C76.5608 94.9427 76.4581 94.5748 76.4581 94.1307V86.5341ZM86.2994 90.0739L85.2454 90.3722C85.1791 90.1965 85.0813 90.0258 84.9521 89.8601C84.8261 89.6911 84.6538 89.5518 84.435 89.4425C84.2163 89.3331 83.9362 89.2784 83.5948 89.2784C83.1275 89.2784 82.738 89.3861 82.4265 89.6016C82.1183 89.8137 81.9641 90.0838 81.9641 90.4119C81.9641 90.7036 82.0702 90.9339 82.2823 91.103C82.4944 91.272 82.8259 91.4129 83.2766 91.5256L84.4102 91.804C85.0929 91.9697 85.6017 92.2232 85.9364 92.5646C86.2712 92.9027 86.4386 93.3385 86.4386 93.8722C86.4386 94.3097 86.3126 94.7008 86.0607 95.0455C85.8121 95.3902 85.4641 95.6619 85.0167 95.8608C84.5692 96.0597 84.0489 96.1591 83.4556 96.1591C82.6767 96.1591 82.0321 95.9901 81.5217 95.652C81.0112 95.3139 80.6881 94.8201 80.5522 94.1705L81.6658 93.892C81.7719 94.303 81.9724 94.6113 82.2674 94.8168C82.5657 95.0223 82.9551 95.125 83.4357 95.125C83.9826 95.125 84.4168 95.009 84.7383 94.777C85.0631 94.5417 85.2255 94.2599 85.2255 93.9318C85.2255 93.6667 85.1327 93.4446 84.9471 93.2656C84.7615 93.0833 84.4764 92.9474 84.092 92.858L82.8192 92.5597C82.1199 92.3939 81.6062 92.1371 81.2781 91.7891C80.9532 91.4377 80.7908 90.9986 80.7908 90.4716C80.7908 90.0407 80.9118 89.6596 81.1538 89.3281C81.399 88.9967 81.7321 88.7365 82.1531 88.5476C82.5773 88.3587 83.0579 88.2642 83.5948 88.2642C84.3505 88.2642 84.9438 88.4299 85.3746 88.7614C85.8088 89.0928 86.1171 89.5303 86.2994 90.0739Z" fill="#7D7D7D"/>
<path d="M218.932 96.1591C218.152 96.1591 217.462 96.0208 216.864 95.7443C216.269 95.464 215.805 95.0795 215.472 94.5909C215.138 94.0985 214.973 93.5379 214.977 92.9091C214.973 92.4167 215.07 91.9621 215.267 91.5455C215.464 91.125 215.733 90.7746 216.074 90.4943C216.419 90.2102 216.803 90.0303 217.227 89.9545V89.8864C216.67 89.7424 216.227 89.4299 215.898 88.9489C215.568 88.464 215.405 87.9129 215.409 87.2955C215.405 86.7045 215.555 86.1761 215.858 85.7102C216.161 85.2443 216.578 84.8769 217.108 84.608C217.642 84.339 218.25 84.2045 218.932 84.2045C219.606 84.2045 220.208 84.339 220.739 84.608C221.269 84.8769 221.686 85.2443 221.989 85.7102C222.295 86.1761 222.451 86.7045 222.455 87.2955C222.451 87.9129 222.282 88.464 221.949 88.9489C221.619 89.4299 221.182 89.7424 220.636 89.8864V89.9545C221.057 90.0303 221.436 90.2102 221.773 90.4943C222.11 90.7746 222.379 91.125 222.58 91.5455C222.78 91.9621 222.883 92.4167 222.886 92.9091C222.883 93.5379 222.712 94.0985 222.375 94.5909C222.042 95.0795 221.578 95.464 220.983 95.7443C220.392 96.0208 219.708 96.1591 218.932 96.1591ZM218.932 94.9091C219.458 94.9091 219.913 94.8239 220.295 94.6534C220.678 94.483 220.973 94.2424 221.182 93.9318C221.39 93.6212 221.496 93.2576 221.5 92.8409C221.496 92.4015 221.383 92.0133 221.159 91.6761C220.936 91.339 220.631 91.0739 220.244 90.8807C219.862 90.6875 219.424 90.5909 218.932 90.5909C218.436 90.5909 217.992 90.6875 217.602 90.8807C217.216 91.0739 216.911 91.339 216.688 91.6761C216.468 92.0133 216.36 92.4015 216.364 92.8409C216.36 93.2576 216.46 93.6212 216.665 93.9318C216.873 94.2424 217.17 94.483 217.557 94.6534C217.943 94.8239 218.402 94.9091 218.932 94.9091ZM218.932 89.3864C219.348 89.3864 219.718 89.303 220.04 89.1364C220.366 88.9697 220.621 88.7367 220.807 88.4375C220.992 88.1383 221.087 87.7879 221.091 87.3864C221.087 86.9924 220.994 86.6496 220.812 86.358C220.631 86.0625 220.379 85.8352 220.057 85.6761C219.735 85.5133 219.36 85.4318 218.932 85.4318C218.496 85.4318 218.116 85.5133 217.79 85.6761C217.464 85.8352 217.212 86.0625 217.034 86.358C216.856 86.6496 216.769 86.9924 216.773 87.3864C216.769 87.7879 216.858 88.1383 217.04 88.4375C217.225 88.7367 217.481 88.9697 217.807 89.1364C218.133 89.303 218.508 89.3864 218.932 89.3864Z" fill="black"/>
<path d="M215.409 129V117.364H222.386V118.614H216.818V122.545H221.864V123.795H216.818V129H215.409ZM227.523 129.182C226.735 129.182 226.044 128.994 225.449 128.619C224.858 128.244 224.396 127.72 224.062 127.045C223.733 126.371 223.568 125.583 223.568 124.682C223.568 123.773 223.733 122.979 224.062 122.301C224.396 121.623 224.858 121.097 225.449 120.722C226.044 120.347 226.735 120.159 227.523 120.159C228.311 120.159 229 120.347 229.591 120.722C230.186 121.097 230.648 121.623 230.977 122.301C231.311 122.979 231.477 123.773 231.477 124.682C231.477 125.583 231.311 126.371 230.977 127.045C230.648 127.72 230.186 128.244 229.591 128.619C229 128.994 228.311 129.182 227.523 129.182ZM227.523 127.977C228.121 127.977 228.614 127.824 229 127.517C229.386 127.21 229.672 126.807 229.858 126.307C230.044 125.807 230.136 125.265 230.136 124.682C230.136 124.098 230.044 123.555 229.858 123.051C229.672 122.547 229.386 122.14 229 121.83C228.614 121.519 228.121 121.364 227.523 121.364C226.924 121.364 226.432 121.519 226.045 121.83C225.659 122.14 225.373 122.547 225.188 123.051C225.002 123.555 224.909 124.098 224.909 124.682C224.909 125.265 225.002 125.807 225.188 126.307C225.373 126.807 225.659 127.21 226.045 127.517C226.432 127.824 226.924 127.977 227.523 127.977ZM237.07 129.182C236.282 129.182 235.59 128.994 234.996 128.619C234.405 128.244 233.943 127.72 233.609 127.045C233.28 126.371 233.115 125.583 233.115 124.682C233.115 123.773 233.28 122.979 233.609 122.301C233.943 121.623 234.405 121.097 234.996 120.722C235.59 120.347 236.282 120.159 237.07 120.159C237.857 120.159 238.547 120.347 239.138 120.722C239.732 121.097 240.195 121.623 240.524 122.301C240.857 122.979 241.024 123.773 241.024 124.682C241.024 125.583 240.857 126.371 240.524 127.045C240.195 127.72 239.732 128.244 239.138 128.619C238.547 128.994 237.857 129.182 237.07 129.182ZM237.07 127.977C237.668 127.977 238.161 127.824 238.547 127.517C238.933 127.21 239.219 126.807 239.405 126.307C239.59 125.807 239.683 125.265 239.683 124.682C239.683 124.098 239.59 123.555 239.405 123.051C239.219 122.547 238.933 122.14 238.547 121.83C238.161 121.519 237.668 121.364 237.07 121.364C236.471 121.364 235.979 121.519 235.592 121.83C235.206 122.14 234.92 122.547 234.734 123.051C234.549 123.555 234.456 124.098 234.456 124.682C234.456 125.265 234.549 125.807 234.734 126.307C234.92 126.807 235.206 127.21 235.592 127.517C235.979 127.824 236.471 127.977 237.07 127.977ZM246.366 129.182C245.639 129.182 244.997 128.998 244.44 128.631C243.884 128.259 243.448 127.737 243.134 127.062C242.819 126.384 242.662 125.583 242.662 124.659C242.662 123.742 242.819 122.947 243.134 122.273C243.448 121.598 243.885 121.078 244.446 120.71C245.007 120.343 245.654 120.159 246.389 120.159C246.957 120.159 247.406 120.254 247.736 120.443C248.069 120.629 248.323 120.841 248.497 121.08C248.675 121.314 248.813 121.508 248.912 121.659H249.026V117.364H250.366V129H249.071V127.659H248.912C248.813 127.818 248.673 128.019 248.491 128.261C248.31 128.5 248.05 128.714 247.713 128.903C247.376 129.089 246.927 129.182 246.366 129.182ZM246.548 127.977C247.086 127.977 247.541 127.837 247.912 127.557C248.283 127.273 248.565 126.881 248.759 126.381C248.952 125.877 249.048 125.295 249.048 124.636C249.048 123.985 248.954 123.415 248.764 122.926C248.575 122.434 248.295 122.051 247.923 121.778C247.552 121.502 247.094 121.364 246.548 121.364C245.98 121.364 245.507 121.509 245.128 121.801C244.753 122.089 244.471 122.481 244.281 122.977C244.096 123.47 244.003 124.023 244.003 124.636C244.003 125.258 244.098 125.822 244.287 126.33C244.48 126.833 244.764 127.235 245.139 127.534C245.518 127.83 245.988 127.977 246.548 127.977ZM260.804 129.159C260.039 129.159 259.38 129.019 258.827 128.739C258.274 128.458 257.848 128.074 257.548 127.585C257.249 127.097 257.099 126.538 257.099 125.909C257.099 125.424 257.202 124.994 257.406 124.619C257.615 124.241 257.901 123.89 258.264 123.568C258.632 123.242 259.054 122.917 259.531 122.591L261.213 121.341C261.543 121.125 261.806 120.894 262.003 120.648C262.204 120.402 262.304 120.08 262.304 119.682C262.304 119.386 262.173 119.1 261.912 118.824C261.654 118.547 261.315 118.409 260.895 118.409C260.599 118.409 260.338 118.485 260.111 118.636C259.887 118.784 259.711 118.973 259.582 119.205C259.457 119.432 259.395 119.667 259.395 119.909C259.395 120.182 259.469 120.458 259.616 120.739C259.768 121.015 259.959 121.299 260.19 121.591C260.425 121.879 260.668 122.174 260.918 122.477L266.259 129H264.645L260.236 123.682C259.827 123.189 259.455 122.742 259.122 122.341C258.789 121.939 258.524 121.544 258.327 121.153C258.13 120.763 258.031 120.341 258.031 119.886C258.031 119.364 258.147 118.905 258.378 118.511C258.613 118.114 258.94 117.805 259.361 117.585C259.785 117.362 260.281 117.25 260.849 117.25C261.433 117.25 261.935 117.364 262.355 117.591C262.776 117.814 263.099 118.112 263.327 118.483C263.554 118.85 263.668 119.25 263.668 119.682C263.668 120.239 263.529 120.722 263.253 121.131C262.976 121.54 262.599 121.92 262.122 122.273L259.804 124C259.281 124.386 258.927 124.761 258.741 125.125C258.556 125.489 258.463 125.75 258.463 125.909C258.463 126.273 258.558 126.612 258.747 126.926C258.937 127.241 259.204 127.494 259.548 127.688C259.893 127.881 260.296 127.977 260.759 127.977C261.198 127.977 261.626 127.884 262.043 127.699C262.459 127.509 262.836 127.237 263.173 126.881C263.514 126.525 263.783 126.097 263.98 125.597C264.181 125.097 264.281 124.534 264.281 123.909H265.577C265.577 124.682 265.488 125.312 265.31 125.801C265.132 126.29 264.931 126.672 264.707 126.949C264.484 127.225 264.304 127.432 264.168 127.568C264.122 127.625 264.08 127.682 264.043 127.739C264.005 127.795 263.963 127.852 263.918 127.909C263.543 128.33 263.069 128.644 262.497 128.852C261.925 129.057 261.361 129.159 260.804 129.159ZM215.409 148V136.364H219.477C220.288 136.364 220.956 136.504 221.483 136.784C222.009 137.061 222.402 137.434 222.659 137.903C222.917 138.369 223.045 138.886 223.045 139.455C223.045 139.955 222.956 140.367 222.778 140.693C222.604 141.019 222.373 141.277 222.085 141.466C221.801 141.655 221.492 141.795 221.159 141.886V142C221.515 142.023 221.873 142.148 222.233 142.375C222.593 142.602 222.894 142.928 223.136 143.352C223.379 143.777 223.5 144.295 223.5 144.909C223.5 145.492 223.367 146.017 223.102 146.483C222.837 146.949 222.419 147.318 221.847 147.591C221.275 147.864 220.53 148 219.614 148H215.409ZM216.818 146.75H219.614C220.534 146.75 221.188 146.572 221.574 146.216C221.964 145.856 222.159 145.42 222.159 144.909C222.159 144.515 222.059 144.152 221.858 143.818C221.657 143.481 221.371 143.212 221 143.011C220.629 142.807 220.189 142.705 219.682 142.705H216.818V146.75ZM216.818 141.477H219.432C219.856 141.477 220.239 141.394 220.58 141.227C220.924 141.061 221.197 140.826 221.398 140.523C221.602 140.22 221.705 139.864 221.705 139.455C221.705 138.943 221.527 138.509 221.17 138.153C220.814 137.794 220.25 137.614 219.477 137.614H216.818V141.477ZM229.293 148.182C228.452 148.182 227.726 147.996 227.116 147.625C226.51 147.25 226.043 146.727 225.713 146.057C225.387 145.383 225.224 144.598 225.224 143.705C225.224 142.811 225.387 142.023 225.713 141.341C226.043 140.655 226.501 140.121 227.088 139.739C227.679 139.352 228.368 139.159 229.156 139.159C229.611 139.159 230.06 139.235 230.503 139.386C230.946 139.538 231.349 139.784 231.713 140.125C232.077 140.462 232.366 140.909 232.582 141.466C232.798 142.023 232.906 142.708 232.906 143.523V144.091H226.179V142.932H231.543C231.543 142.439 231.444 142 231.247 141.614C231.054 141.227 230.777 140.922 230.418 140.699C230.062 140.475 229.641 140.364 229.156 140.364C228.622 140.364 228.16 140.496 227.77 140.761C227.384 141.023 227.086 141.364 226.878 141.784C226.67 142.205 226.565 142.655 226.565 143.136V143.909C226.565 144.568 226.679 145.127 226.906 145.585C227.137 146.04 227.457 146.386 227.866 146.625C228.276 146.86 228.751 146.977 229.293 146.977C229.645 146.977 229.963 146.928 230.247 146.83C230.535 146.727 230.783 146.576 230.991 146.375C231.2 146.17 231.361 145.917 231.474 145.614L232.77 145.977C232.634 146.417 232.404 146.803 232.082 147.136C231.76 147.466 231.363 147.723 230.889 147.909C230.416 148.091 229.884 148.182 229.293 148.182ZM241.817 139.273L238.589 148H237.226L233.999 139.273H235.453L237.862 146.227H237.953L240.362 139.273H241.817ZM246.933 148.182C246.092 148.182 245.367 147.996 244.757 147.625C244.151 147.25 243.683 146.727 243.354 146.057C243.028 145.383 242.865 144.598 242.865 143.705C242.865 142.811 243.028 142.023 243.354 141.341C243.683 140.655 244.142 140.121 244.729 139.739C245.32 139.352 246.009 139.159 246.797 139.159C247.251 139.159 247.7 139.235 248.143 139.386C248.587 139.538 248.99 139.784 249.354 140.125C249.717 140.462 250.007 140.909 250.223 141.466C250.439 142.023 250.547 142.708 250.547 143.523V144.091H243.82V142.932H249.183C249.183 142.439 249.085 142 248.888 141.614C248.695 141.227 248.418 140.922 248.058 140.699C247.702 140.475 247.282 140.364 246.797 140.364C246.263 140.364 245.801 140.496 245.411 140.761C245.024 141.023 244.727 141.364 244.518 141.784C244.31 142.205 244.206 142.655 244.206 143.136V143.909C244.206 144.568 244.32 145.127 244.547 145.585C244.778 146.04 245.098 146.386 245.507 146.625C245.916 146.86 246.392 146.977 246.933 146.977C247.286 146.977 247.604 146.928 247.888 146.83C248.176 146.727 248.424 146.576 248.632 146.375C248.84 146.17 249.001 145.917 249.115 145.614L250.411 145.977C250.274 146.417 250.045 146.803 249.723 147.136C249.401 147.466 249.003 147.723 248.53 147.909C248.056 148.091 247.524 148.182 246.933 148.182ZM252.587 148V139.273H253.882V140.591H253.973C254.132 140.159 254.42 139.809 254.837 139.54C255.253 139.271 255.723 139.136 256.246 139.136C256.344 139.136 256.467 139.138 256.615 139.142C256.763 139.146 256.875 139.152 256.95 139.159V140.523C256.905 140.511 256.801 140.494 256.638 140.472C256.479 140.445 256.31 140.432 256.132 140.432C255.708 140.432 255.329 140.521 254.996 140.699C254.666 140.873 254.405 141.116 254.212 141.426C254.022 141.733 253.928 142.083 253.928 142.477V148H252.587ZM261.108 148.205C260.555 148.205 260.053 148.1 259.602 147.892C259.152 147.68 258.794 147.375 258.528 146.977C258.263 146.576 258.131 146.091 258.131 145.523C258.131 145.023 258.229 144.617 258.426 144.307C258.623 143.992 258.886 143.746 259.216 143.568C259.545 143.39 259.909 143.258 260.307 143.17C260.708 143.08 261.112 143.008 261.517 142.955C262.047 142.886 262.477 142.835 262.807 142.801C263.14 142.763 263.383 142.701 263.534 142.614C263.689 142.527 263.767 142.375 263.767 142.159V142.114C263.767 141.553 263.614 141.117 263.307 140.807C263.004 140.496 262.544 140.341 261.926 140.341C261.286 140.341 260.784 140.481 260.42 140.761C260.057 141.042 259.801 141.341 259.653 141.659L258.381 141.205C258.608 140.674 258.911 140.261 259.29 139.966C259.672 139.667 260.089 139.458 260.54 139.341C260.994 139.22 261.441 139.159 261.881 139.159C262.161 139.159 262.483 139.193 262.847 139.261C263.214 139.326 263.568 139.46 263.909 139.665C264.254 139.869 264.54 140.178 264.767 140.591C264.994 141.004 265.108 141.557 265.108 142.25V148H263.767V146.818H263.699C263.608 147.008 263.456 147.21 263.244 147.426C263.032 147.642 262.75 147.826 262.398 147.977C262.045 148.129 261.616 148.205 261.108 148.205ZM261.312 147C261.843 147 262.29 146.896 262.653 146.688C263.021 146.479 263.297 146.21 263.483 145.881C263.672 145.551 263.767 145.205 263.767 144.841V143.614C263.71 143.682 263.585 143.744 263.392 143.801C263.203 143.854 262.983 143.902 262.733 143.943C262.487 143.981 262.246 144.015 262.011 144.045C261.78 144.072 261.593 144.095 261.449 144.114C261.1 144.159 260.775 144.233 260.472 144.335C260.172 144.434 259.93 144.583 259.744 144.784C259.563 144.981 259.472 145.25 259.472 145.591C259.472 146.057 259.644 146.409 259.989 146.648C260.337 146.883 260.778 147 261.312 147ZM271.078 151.455C270.43 151.455 269.874 151.371 269.408 151.205C268.942 151.042 268.554 150.826 268.243 150.557C267.936 150.292 267.692 150.008 267.51 149.705L268.578 148.955C268.699 149.114 268.853 149.295 269.038 149.5C269.224 149.708 269.478 149.888 269.8 150.04C270.125 150.195 270.552 150.273 271.078 150.273C271.783 150.273 272.364 150.102 272.822 149.761C273.281 149.42 273.51 148.886 273.51 148.159V146.386H273.396C273.298 146.545 273.158 146.742 272.976 146.977C272.798 147.208 272.54 147.415 272.203 147.597C271.87 147.775 271.419 147.864 270.851 147.864C270.146 147.864 269.514 147.697 268.953 147.364C268.396 147.03 267.955 146.545 267.629 145.909C267.307 145.273 267.146 144.5 267.146 143.591C267.146 142.697 267.304 141.919 267.618 141.256C267.932 140.589 268.37 140.074 268.93 139.71C269.491 139.343 270.139 139.159 270.874 139.159C271.442 139.159 271.893 139.254 272.226 139.443C272.563 139.629 272.821 139.841 272.999 140.08C273.18 140.314 273.321 140.508 273.419 140.659H273.555V139.273H274.851V148.25C274.851 149 274.68 149.61 274.339 150.08C274.002 150.553 273.548 150.9 272.976 151.119C272.408 151.343 271.775 151.455 271.078 151.455ZM271.033 146.659C271.571 146.659 272.025 146.536 272.396 146.29C272.768 146.044 273.05 145.689 273.243 145.227C273.436 144.765 273.533 144.212 273.533 143.568C273.533 142.939 273.438 142.384 273.249 141.903C273.059 141.422 272.779 141.045 272.408 140.773C272.036 140.5 271.578 140.364 271.033 140.364C270.464 140.364 269.991 140.508 269.612 140.795C269.237 141.083 268.955 141.47 268.766 141.955C268.58 142.439 268.487 142.977 268.487 143.568C268.487 144.174 268.582 144.71 268.771 145.176C268.964 145.638 269.249 146.002 269.624 146.267C270.002 146.528 270.472 146.659 271.033 146.659ZM280.964 148.182C280.124 148.182 279.398 147.996 278.788 147.625C278.182 147.25 277.714 146.727 277.385 146.057C277.059 145.383 276.896 144.598 276.896 143.705C276.896 142.811 277.059 142.023 277.385 141.341C277.714 140.655 278.173 140.121 278.76 139.739C279.351 139.352 280.04 139.159 280.828 139.159C281.283 139.159 281.732 139.235 282.175 139.386C282.618 139.538 283.021 139.784 283.385 140.125C283.749 140.462 284.038 140.909 284.254 141.466C284.47 142.023 284.578 142.708 284.578 143.523V144.091H277.851V142.932H283.214C283.214 142.439 283.116 142 282.919 141.614C282.726 141.227 282.449 140.922 282.089 140.699C281.733 140.475 281.313 140.364 280.828 140.364C280.294 140.364 279.832 140.496 279.442 140.761C279.055 141.023 278.758 141.364 278.55 141.784C278.341 142.205 278.237 142.655 278.237 143.136V143.909C278.237 144.568 278.351 145.127 278.578 145.585C278.809 146.04 279.129 146.386 279.538 146.625C279.947 146.86 280.423 146.977 280.964 146.977C281.317 146.977 281.635 146.928 281.919 146.83C282.207 146.727 282.455 146.576 282.663 146.375C282.872 146.17 283.033 145.917 283.146 145.614L284.442 145.977C284.305 146.417 284.076 146.803 283.754 147.136C283.432 147.466 283.035 147.723 282.561 147.909C282.088 148.091 281.555 148.182 280.964 148.182ZM292.8 141.227L291.595 141.568C291.519 141.367 291.408 141.172 291.26 140.983C291.116 140.79 290.919 140.631 290.669 140.506C290.419 140.381 290.099 140.318 289.709 140.318C289.175 140.318 288.73 140.441 288.374 140.688C288.021 140.93 287.845 141.239 287.845 141.614C287.845 141.947 287.966 142.21 288.209 142.403C288.451 142.597 288.83 142.758 289.345 142.886L290.641 143.205C291.421 143.394 292.002 143.684 292.385 144.074C292.768 144.46 292.959 144.958 292.959 145.568C292.959 146.068 292.815 146.515 292.527 146.909C292.243 147.303 291.845 147.614 291.334 147.841C290.822 148.068 290.228 148.182 289.55 148.182C288.66 148.182 287.923 147.989 287.339 147.602C286.756 147.216 286.387 146.652 286.232 145.909L287.504 145.591C287.625 146.061 287.855 146.413 288.192 146.648C288.533 146.883 288.978 147 289.527 147C290.152 147 290.648 146.867 291.016 146.602C291.387 146.333 291.572 146.011 291.572 145.636C291.572 145.333 291.466 145.08 291.254 144.875C291.042 144.667 290.716 144.511 290.277 144.409L288.822 144.068C288.023 143.879 287.436 143.585 287.061 143.188C286.69 142.786 286.504 142.284 286.504 141.682C286.504 141.189 286.643 140.754 286.919 140.375C287.199 139.996 287.58 139.699 288.061 139.483C288.546 139.267 289.095 139.159 289.709 139.159C290.572 139.159 291.25 139.348 291.743 139.727C292.239 140.106 292.591 140.606 292.8 141.227Z" fill="black"/>
<path d="M215.886 181H214.409L218.682 169.364H220.136L224.409 181H222.932L219.455 171.205H219.364L215.886 181ZM216.432 176.455H222.386V177.705H216.432V176.455ZM226.04 181V172.273H227.335V173.591H227.426C227.585 173.159 227.873 172.809 228.29 172.54C228.706 172.271 229.176 172.136 229.699 172.136C229.797 172.136 229.92 172.138 230.068 172.142C230.216 172.146 230.328 172.152 230.403 172.159V173.523C230.358 173.511 230.254 173.494 230.091 173.472C229.932 173.445 229.763 173.432 229.585 173.432C229.161 173.432 228.782 173.521 228.449 173.699C228.119 173.873 227.858 174.116 227.665 174.426C227.475 174.733 227.381 175.083 227.381 175.477V181H226.04ZM233.122 184.273C232.895 184.273 232.692 184.254 232.514 184.216C232.336 184.182 232.213 184.148 232.145 184.114L232.486 182.932C232.812 183.015 233.099 183.045 233.349 183.023C233.599 183 233.821 182.888 234.014 182.688C234.211 182.491 234.391 182.17 234.554 181.727L234.804 181.045L231.577 172.273H233.031L235.44 179.227H235.531L237.94 172.273H239.395L235.69 182.273C235.524 182.723 235.317 183.097 235.071 183.392C234.825 183.691 234.539 183.913 234.213 184.057C233.891 184.201 233.527 184.273 233.122 184.273ZM243.467 181.205C242.914 181.205 242.412 181.1 241.962 180.892C241.511 180.68 241.153 180.375 240.888 179.977C240.623 179.576 240.49 179.091 240.49 178.523C240.49 178.023 240.589 177.617 240.786 177.307C240.982 176.992 241.246 176.746 241.575 176.568C241.905 176.39 242.268 176.258 242.666 176.17C243.068 176.08 243.471 176.008 243.876 175.955C244.407 175.886 244.837 175.835 245.166 175.801C245.5 175.763 245.742 175.701 245.893 175.614C246.049 175.527 246.126 175.375 246.126 175.159V175.114C246.126 174.553 245.973 174.117 245.666 173.807C245.363 173.496 244.903 173.341 244.286 173.341C243.645 173.341 243.143 173.481 242.78 173.761C242.416 174.042 242.161 174.341 242.013 174.659L240.74 174.205C240.967 173.674 241.27 173.261 241.649 172.966C242.032 172.667 242.448 172.458 242.899 172.341C243.354 172.22 243.801 172.159 244.24 172.159C244.52 172.159 244.842 172.193 245.206 172.261C245.573 172.326 245.928 172.46 246.268 172.665C246.613 172.869 246.899 173.178 247.126 173.591C247.354 174.004 247.467 174.557 247.467 175.25V181H246.126V179.818H246.058C245.967 180.008 245.816 180.21 245.604 180.426C245.392 180.642 245.109 180.826 244.757 180.977C244.405 181.129 243.975 181.205 243.467 181.205ZM243.672 180C244.202 180 244.649 179.896 245.013 179.688C245.38 179.479 245.657 179.21 245.842 178.881C246.032 178.551 246.126 178.205 246.126 177.841V176.614C246.07 176.682 245.945 176.744 245.751 176.801C245.562 176.854 245.342 176.902 245.092 176.943C244.846 176.981 244.606 177.015 244.371 177.045C244.14 177.072 243.952 177.095 243.808 177.114C243.46 177.159 243.134 177.233 242.831 177.335C242.532 177.434 242.289 177.583 242.104 177.784C241.922 177.981 241.831 178.25 241.831 178.591C241.831 179.057 242.003 179.409 242.348 179.648C242.696 179.883 243.138 180 243.672 180ZM251.256 175.75V181H249.915V172.273H251.21V173.636H251.324C251.528 173.193 251.839 172.837 252.256 172.568C252.672 172.295 253.21 172.159 253.869 172.159C254.46 172.159 254.977 172.28 255.42 172.523C255.864 172.761 256.208 173.125 256.455 173.614C256.701 174.098 256.824 174.712 256.824 175.455V181H255.483V175.545C255.483 174.86 255.305 174.326 254.949 173.943C254.593 173.557 254.104 173.364 253.483 173.364C253.055 173.364 252.672 173.456 252.335 173.642C252.002 173.828 251.739 174.098 251.545 174.455C251.352 174.811 251.256 175.242 251.256 175.75Z" fill="black"/>
<path d="M215.409 213V201.364H216.818V207.136H216.955L222.182 201.364H224.023L219.136 206.614L224.023 213H222.318L218.273 207.591L216.818 209.227V213H215.409ZM225.665 213V204.273H226.96V205.591H227.051C227.21 205.159 227.498 204.809 227.915 204.54C228.331 204.271 228.801 204.136 229.324 204.136C229.422 204.136 229.545 204.138 229.693 204.142C229.841 204.146 229.953 204.152 230.028 204.159V205.523C229.983 205.511 229.879 205.494 229.716 205.472C229.557 205.445 229.388 205.432 229.21 205.432C228.786 205.432 228.407 205.521 228.074 205.699C227.744 205.873 227.483 206.116 227.29 206.426C227.1 206.733 227.006 207.083 227.006 207.477V213H225.665ZM231.618 213V204.273H232.959V213H231.618ZM232.3 202.818C232.038 202.818 231.813 202.729 231.624 202.551C231.438 202.373 231.345 202.159 231.345 201.909C231.345 201.659 231.438 201.445 231.624 201.267C231.813 201.089 232.038 201 232.3 201C232.561 201 232.785 201.089 232.97 201.267C233.16 201.445 233.254 201.659 233.254 201.909C233.254 202.159 233.16 202.373 232.97 202.551C232.785 202.729 232.561 202.818 232.3 202.818ZM239.21 204.273V205.409H234.688V204.273H239.21ZM236.006 202.182H237.347V210.5C237.347 210.879 237.402 211.163 237.511 211.352C237.625 211.538 237.769 211.663 237.943 211.727C238.121 211.788 238.309 211.818 238.506 211.818C238.653 211.818 238.775 211.811 238.869 211.795C238.964 211.777 239.04 211.761 239.097 211.75L239.369 212.955C239.278 212.989 239.152 213.023 238.989 213.057C238.826 213.095 238.619 213.114 238.369 213.114C237.991 213.114 237.619 213.032 237.256 212.869C236.896 212.706 236.597 212.458 236.358 212.125C236.123 211.792 236.006 211.371 236.006 210.864V202.182ZM241.227 213V204.273H242.568V213H241.227ZM241.909 202.818C241.648 202.818 241.422 202.729 241.233 202.551C241.047 202.373 240.955 202.159 240.955 201.909C240.955 201.659 241.047 201.445 241.233 201.267C241.422 201.089 241.648 201 241.909 201C242.17 201 242.394 201.089 242.58 201.267C242.769 201.445 242.864 201.659 242.864 201.909C242.864 202.159 242.769 202.373 242.58 202.551C242.394 202.729 242.17 202.818 241.909 202.818Z" fill="black"/>
<path d="M29.233 156.818H30.7045L34.1648 165.27H34.2841L37.7443 156.818H39.2159V167H38.0625V159.264H37.9631L34.7812 167H33.6676L30.4858 159.264H30.3864V167H29.233V156.818ZM44.6312 167.159C43.9418 167.159 43.3369 166.995 42.8166 166.667C42.2995 166.339 41.8952 165.88 41.6035 165.29C41.3152 164.7 41.171 164.01 41.171 163.222C41.171 162.426 41.3152 161.732 41.6035 161.138C41.8952 160.545 42.2995 160.085 42.8166 159.756C43.3369 159.428 43.9418 159.264 44.6312 159.264C45.3206 159.264 45.9238 159.428 46.4409 159.756C46.9612 160.085 47.3656 160.545 47.6539 161.138C47.9456 161.732 48.0914 162.426 48.0914 163.222C48.0914 164.01 47.9456 164.7 47.6539 165.29C47.3656 165.88 46.9612 166.339 46.4409 166.667C45.9238 166.995 45.3206 167.159 44.6312 167.159ZM44.6312 166.105C45.1549 166.105 45.5858 165.971 45.9238 165.702C46.2619 165.434 46.5121 165.081 46.6745 164.643C46.8369 164.206 46.9181 163.732 46.9181 163.222C46.9181 162.711 46.8369 162.236 46.6745 161.795C46.5121 161.354 46.2619 160.998 45.9238 160.726C45.5858 160.454 45.1549 160.318 44.6312 160.318C44.1075 160.318 43.6767 160.454 43.3386 160.726C43.0005 160.998 42.7503 161.354 42.5879 161.795C42.4255 162.236 42.3443 162.711 42.3443 163.222C42.3443 163.732 42.4255 164.206 42.5879 164.643C42.7503 165.081 43.0005 165.434 43.3386 165.702C43.6767 165.971 44.1075 166.105 44.6312 166.105ZM52.766 167.159C52.1296 167.159 51.5678 166.998 51.0806 166.677C50.5934 166.352 50.2122 165.895 49.9371 165.305C49.6621 164.711 49.5245 164.01 49.5245 163.202C49.5245 162.4 49.6621 161.704 49.9371 161.114C50.2122 160.524 50.5951 160.068 51.0856 159.746C51.5761 159.425 52.1429 159.264 52.7859 159.264C53.283 159.264 53.6758 159.347 53.9641 159.513C54.2558 159.675 54.4779 159.861 54.6303 160.07C54.7861 160.275 54.9071 160.444 54.9933 160.577H55.0927V156.818H56.266V167H55.1325V165.827H54.9933C54.9071 165.966 54.7844 166.142 54.6254 166.354C54.4663 166.562 54.2392 166.75 53.9442 166.915C53.6493 167.078 53.2565 167.159 52.766 167.159ZM52.9251 166.105C53.3957 166.105 53.7934 165.982 54.1183 165.737C54.4431 165.489 54.69 165.146 54.859 164.708C55.0281 164.267 55.1126 163.759 55.1126 163.182C55.1126 162.612 55.0297 162.113 54.864 161.685C54.6983 161.254 54.453 160.92 54.1282 160.681C53.8034 160.439 53.4023 160.318 52.9251 160.318C52.4279 160.318 52.0136 160.446 51.6822 160.701C51.354 160.953 51.1071 161.296 50.9414 161.73C50.779 162.161 50.6978 162.645 50.6978 163.182C50.6978 163.725 50.7807 164.219 50.9464 164.663C51.1154 165.104 51.364 165.455 51.6921 165.717C52.0236 165.976 52.4345 166.105 52.9251 166.105ZM61.7795 167.159C61.0437 167.159 60.409 166.997 59.8754 166.672C59.3451 166.344 58.9357 165.886 58.6474 165.3C58.3623 164.71 58.2198 164.024 58.2198 163.241C58.2198 162.459 58.3623 161.77 58.6474 161.173C58.9357 160.573 59.3368 160.106 59.8505 159.771C60.3675 159.433 60.9708 159.264 61.6602 159.264C62.0579 159.264 62.4506 159.33 62.8384 159.463C63.2262 159.596 63.5792 159.811 63.8974 160.109C64.2156 160.404 64.4691 160.795 64.658 161.283C64.8469 161.77 64.9414 162.37 64.9414 163.082V163.58H59.055V162.565H63.7482C63.7482 162.134 63.6621 161.75 63.4897 161.412C63.3207 161.074 63.0787 160.807 62.7638 160.612C62.4523 160.416 62.0844 160.318 61.6602 160.318C61.1928 160.318 60.7885 160.434 60.4471 160.666C60.109 160.895 59.8488 161.193 59.6665 161.561C59.4843 161.929 59.3931 162.323 59.3931 162.744V163.42C59.3931 163.997 59.4925 164.486 59.6914 164.887C59.8936 165.285 60.1737 165.588 60.5316 165.797C60.8896 166.002 61.3055 166.105 61.7795 166.105C62.0877 166.105 62.3661 166.062 62.6147 165.976C62.8666 165.886 63.0837 165.754 63.266 165.578C63.4483 165.399 63.5891 165.177 63.6886 164.912L64.8221 165.23C64.7028 165.615 64.5022 165.953 64.2205 166.244C63.9388 166.533 63.5908 166.758 63.1765 166.92C62.7622 167.08 62.2965 167.159 61.7795 167.159ZM67.8995 156.818V167H66.7262V156.818H67.8995ZM75.4576 161.074L74.4036 161.372C74.3373 161.196 74.2395 161.026 74.1103 160.86C73.9843 160.691 73.812 160.552 73.5932 160.442C73.3745 160.333 73.0944 160.278 72.753 160.278C72.2857 160.278 71.8962 160.386 71.5847 160.602C71.2765 160.814 71.1223 161.084 71.1223 161.412C71.1223 161.704 71.2284 161.934 71.4405 162.103C71.6526 162.272 71.9841 162.413 72.4348 162.526L73.5684 162.804C74.2511 162.97 74.7599 163.223 75.0946 163.565C75.4294 163.903 75.5968 164.339 75.5968 164.872C75.5968 165.31 75.4708 165.701 75.2189 166.045C74.9703 166.39 74.6223 166.662 74.1749 166.861C73.7275 167.06 73.2071 167.159 72.6138 167.159C71.8349 167.159 71.1903 166.99 70.6799 166.652C70.1694 166.314 69.8463 165.82 69.7104 165.17L70.824 164.892C70.9301 165.303 71.1306 165.611 71.4256 165.817C71.7239 166.022 72.1133 166.125 72.5939 166.125C73.1408 166.125 73.575 166.009 73.8965 165.777C74.2213 165.542 74.3837 165.26 74.3837 164.932C74.3837 164.667 74.2909 164.445 74.1053 164.266C73.9197 164.083 73.6346 163.947 73.2502 163.858L71.9775 163.56C71.2781 163.394 70.7644 163.137 70.4363 162.789C70.1114 162.438 69.949 161.999 69.949 161.472C69.949 161.041 70.07 160.66 70.312 160.328C70.5572 159.997 70.8903 159.737 71.3113 159.548C71.7355 159.359 72.2161 159.264 72.753 159.264C73.5087 159.264 74.102 159.43 74.5328 159.761C74.967 160.093 75.2753 160.53 75.4576 161.074Z" fill="#7D7D7D"/>
<path d="M36.4261 124H35.1932C35.1203 123.645 34.9927 123.334 34.8104 123.065C34.6314 122.797 34.4126 122.571 34.1541 122.389C33.8989 122.204 33.6155 122.064 33.304 121.972C32.9924 121.879 32.6676 121.832 32.3295 121.832C31.7131 121.832 31.1546 121.988 30.6541 122.3C30.157 122.611 29.7609 123.07 29.4659 123.677C29.1742 124.283 29.0284 125.027 29.0284 125.909C29.0284 126.791 29.1742 127.535 29.4659 128.141C29.7609 128.748 30.157 129.207 30.6541 129.518C31.1546 129.83 31.7131 129.986 32.3295 129.986C32.6676 129.986 32.9924 129.939 33.304 129.847C33.6155 129.754 33.8989 129.616 34.1541 129.434C34.4126 129.248 34.6314 129.021 34.8104 128.753C34.9927 128.481 35.1203 128.17 35.1932 127.818H36.4261C36.3333 128.339 36.1643 128.804 35.919 129.215C35.6738 129.626 35.3688 129.976 35.0043 130.264C34.6397 130.549 34.2304 130.766 33.7763 130.915C33.3255 131.065 32.8433 131.139 32.3295 131.139C31.4612 131.139 30.6889 130.927 30.0128 130.503C29.3366 130.079 28.8047 129.475 28.4169 128.693C28.0291 127.911 27.8352 126.983 27.8352 125.909C27.8352 124.835 28.0291 123.907 28.4169 123.125C28.8047 122.343 29.3366 121.74 30.0128 121.315C30.6889 120.891 31.4612 120.679 32.3295 120.679C32.8433 120.679 33.3255 120.754 33.7763 120.903C34.2304 121.052 34.6397 121.271 35.0043 121.559C35.3688 121.844 35.6738 122.192 35.919 122.603C36.1643 123.011 36.3333 123.476 36.4261 124ZM40.5066 131.179C40.0227 131.179 39.5835 131.088 39.1891 130.906C38.7947 130.72 38.4815 130.453 38.2495 130.105C38.0175 129.754 37.9015 129.33 37.9015 128.832C37.9015 128.395 37.9876 128.04 38.16 127.768C38.3323 127.493 38.5627 127.278 38.851 127.122C39.1394 126.966 39.4576 126.85 39.8056 126.774C40.1569 126.695 40.5099 126.632 40.8645 126.585C41.3285 126.526 41.7047 126.481 41.9931 126.451C42.2847 126.418 42.4969 126.363 42.6294 126.287C42.7653 126.211 42.8333 126.078 42.8333 125.889V125.849C42.8333 125.359 42.699 124.978 42.4306 124.706C42.1654 124.434 41.7627 124.298 41.2225 124.298C40.6623 124.298 40.2232 124.421 39.905 124.666C39.5868 124.911 39.3631 125.173 39.2338 125.452L38.1202 125.054C38.3191 124.59 38.5842 124.229 38.9157 123.97C39.2504 123.708 39.615 123.526 40.0094 123.423C40.4071 123.317 40.7982 123.264 41.1827 123.264C41.428 123.264 41.7097 123.294 42.0279 123.354C42.3494 123.41 42.6593 123.528 42.9576 123.707C43.2592 123.886 43.5094 124.156 43.7083 124.517C43.9071 124.878 44.0066 125.362 44.0066 125.969V131H42.8333V129.966H42.7736C42.6941 130.132 42.5615 130.309 42.3759 130.498C42.1903 130.687 41.9434 130.848 41.6351 130.98C41.3269 131.113 40.9507 131.179 40.5066 131.179ZM40.6855 130.125C41.1496 130.125 41.5407 130.034 41.8588 129.852C42.1803 129.669 42.4223 129.434 42.5847 129.146C42.7504 128.857 42.8333 128.554 42.8333 128.236V127.162C42.7836 127.222 42.6742 127.276 42.5051 127.326C42.3394 127.372 42.1472 127.414 41.9284 127.45C41.713 127.483 41.5025 127.513 41.2971 127.54C41.0949 127.563 40.9308 127.583 40.8049 127.599C40.4999 127.639 40.2149 127.704 39.9498 127.793C39.6879 127.879 39.4758 128.01 39.3134 128.186C39.1543 128.358 39.0748 128.594 39.0748 128.892C39.0748 129.3 39.2256 129.608 39.5272 129.817C39.8321 130.022 40.2182 130.125 40.6855 130.125ZM49.4691 123.364V124.358H45.5117V123.364H49.4691ZM46.6651 121.534H47.8384V128.812C47.8384 129.144 47.8865 129.393 47.9826 129.558C48.082 129.721 48.208 129.83 48.3604 129.886C48.5162 129.939 48.6803 129.966 48.8526 129.966C48.9819 129.966 49.088 129.959 49.1708 129.946C49.2537 129.929 49.32 129.916 49.3697 129.906L49.6083 130.96C49.5288 130.99 49.4177 131.02 49.2752 131.05C49.1327 131.083 48.9521 131.099 48.7333 131.099C48.4019 131.099 48.0771 131.028 47.7589 130.886C47.444 130.743 47.1822 130.526 46.9734 130.234C46.7679 129.943 46.6651 129.575 46.6651 129.131V121.534ZM54.3537 131.159C53.6179 131.159 52.9832 130.997 52.4496 130.672C51.9193 130.344 51.5099 129.886 51.2216 129.3C50.9366 128.71 50.794 128.024 50.794 127.241C50.794 126.459 50.9366 125.77 51.2216 125.173C51.5099 124.573 51.911 124.106 52.4247 123.771C52.9418 123.433 53.545 123.264 54.2344 123.264C54.6321 123.264 55.0249 123.33 55.4126 123.463C55.8004 123.596 56.1534 123.811 56.4716 124.109C56.7898 124.404 57.0433 124.795 57.2322 125.283C57.4212 125.77 57.5156 126.37 57.5156 127.082V127.58H51.6293V126.565H56.3224C56.3224 126.134 56.2363 125.75 56.0639 125.412C55.8949 125.074 55.6529 124.807 55.3381 124.612C55.0265 124.416 54.6586 124.318 54.2344 124.318C53.767 124.318 53.3627 124.434 53.0213 124.666C52.6832 124.895 52.4231 125.193 52.2408 125.561C52.0585 125.929 51.9673 126.323 51.9673 126.744V127.42C51.9673 127.997 52.0668 128.486 52.2656 128.887C52.4678 129.285 52.7479 129.588 53.1058 129.797C53.4638 130.002 53.8797 130.105 54.3537 130.105C54.6619 130.105 54.9403 130.062 55.1889 129.976C55.4408 129.886 55.6579 129.754 55.8402 129.578C56.0225 129.399 56.1634 129.177 56.2628 128.912L57.3963 129.23C57.277 129.615 57.0765 129.953 56.7947 130.244C56.513 130.533 56.165 130.758 55.7507 130.92C55.3364 131.08 54.8707 131.159 54.3537 131.159ZM62.3828 134.023C61.8161 134.023 61.3288 133.95 60.9212 133.804C60.5135 133.661 60.1738 133.473 59.902 133.237C59.6335 133.005 59.4197 132.757 59.2607 132.491L60.1953 131.835C60.3014 131.974 60.4356 132.134 60.598 132.312C60.7604 132.495 60.9825 132.652 61.2642 132.785C61.5492 132.921 61.9221 132.989 62.3828 132.989C62.9993 132.989 63.508 132.839 63.9091 132.541C64.3101 132.243 64.5107 131.776 64.5107 131.139V129.588H64.4112C64.325 129.727 64.2024 129.9 64.0433 130.105C63.8875 130.307 63.6622 130.488 63.3672 130.647C63.0755 130.803 62.6811 130.881 62.1839 130.881C61.5675 130.881 61.014 130.735 60.5234 130.443C60.0362 130.152 59.6501 129.727 59.3651 129.17C59.0833 128.614 58.9425 127.937 58.9425 127.142C58.9425 126.36 59.08 125.679 59.3551 125.099C59.6302 124.515 60.013 124.065 60.5036 123.746C60.9941 123.425 61.5608 123.264 62.2038 123.264C62.701 123.264 63.0954 123.347 63.3871 123.513C63.6821 123.675 63.9074 123.861 64.0632 124.07C64.2223 124.275 64.3449 124.444 64.4311 124.577H64.5504V123.364H65.6839V131.219C65.6839 131.875 65.5348 132.409 65.2365 132.82C64.9415 133.234 64.5438 133.537 64.0433 133.729C63.5462 133.925 62.9927 134.023 62.3828 134.023ZM62.343 129.827C62.8137 129.827 63.2114 129.719 63.5362 129.504C63.861 129.288 64.108 128.978 64.277 128.574C64.446 128.17 64.5305 127.686 64.5305 127.122C64.5305 126.572 64.4477 126.086 64.282 125.665C64.1162 125.245 63.871 124.915 63.5462 124.676C63.2214 124.437 62.8203 124.318 62.343 124.318C61.8459 124.318 61.4316 124.444 61.1001 124.696C60.772 124.948 60.5251 125.286 60.3594 125.71C60.197 126.134 60.1158 126.605 60.1158 127.122C60.1158 127.652 60.1986 128.121 60.3643 128.529C60.5334 128.933 60.782 129.252 61.1101 129.484C61.4415 129.712 61.8525 129.827 62.343 129.827ZM70.9339 131.159C70.2446 131.159 69.6397 130.995 69.1193 130.667C68.6023 130.339 68.1979 129.88 67.9062 129.29C67.6179 128.7 67.4737 128.01 67.4737 127.222C67.4737 126.426 67.6179 125.732 67.9062 125.138C68.1979 124.545 68.6023 124.085 69.1193 123.756C69.6397 123.428 70.2446 123.264 70.9339 123.264C71.6233 123.264 72.2266 123.428 72.7436 123.756C73.264 124.085 73.6683 124.545 73.9567 125.138C74.2483 125.732 74.3942 126.426 74.3942 127.222C74.3942 128.01 74.2483 128.7 73.9567 129.29C73.6683 129.88 73.264 130.339 72.7436 130.667C72.2266 130.995 71.6233 131.159 70.9339 131.159ZM70.9339 130.105C71.4576 130.105 71.8885 129.971 72.2266 129.702C72.5646 129.434 72.8149 129.081 72.9773 128.643C73.1397 128.206 73.2209 127.732 73.2209 127.222C73.2209 126.711 73.1397 126.236 72.9773 125.795C72.8149 125.354 72.5646 124.998 72.2266 124.726C71.8885 124.454 71.4576 124.318 70.9339 124.318C70.4103 124.318 69.9794 124.454 69.6413 124.726C69.3033 124.998 69.053 125.354 68.8906 125.795C68.7282 126.236 68.647 126.711 68.647 127.222C68.647 127.732 68.7282 128.206 68.8906 128.643C69.053 129.081 69.3033 129.434 69.6413 129.702C69.9794 129.971 70.4103 130.105 70.9339 130.105ZM76.1852 131V123.364H77.3187V124.517H77.3983C77.5375 124.139 77.7894 123.833 78.1539 123.597C78.5185 123.362 78.9295 123.244 79.3869 123.244C79.4731 123.244 79.5808 123.246 79.71 123.249C79.8393 123.253 79.9371 123.258 80.0034 123.264V124.457C79.9636 124.447 79.8725 124.433 79.7299 124.413C79.5907 124.389 79.4432 124.378 79.2875 124.378C78.9163 124.378 78.5848 124.456 78.2931 124.612C78.0048 124.764 77.7761 124.976 77.6071 125.248C77.4413 125.516 77.3585 125.823 77.3585 126.168V131H76.1852ZM81.3942 131V123.364H82.5675V131H81.3942ZM81.9908 122.091C81.7621 122.091 81.5649 122.013 81.3991 121.857C81.2367 121.701 81.1555 121.514 81.1555 121.295C81.1555 121.077 81.2367 120.889 81.3991 120.734C81.5649 120.578 81.7621 120.5 81.9908 120.5C82.2195 120.5 82.415 120.578 82.5774 120.734C82.7431 120.889 82.826 121.077 82.826 121.295C82.826 121.514 82.7431 121.701 82.5774 121.857C82.415 122.013 82.2195 122.091 81.9908 122.091ZM87.9181 131.159C87.1824 131.159 86.5476 130.997 86.014 130.672C85.4837 130.344 85.0744 129.886 84.786 129.3C84.501 128.71 84.3585 128.024 84.3585 127.241C84.3585 126.459 84.501 125.77 84.786 125.173C85.0744 124.573 85.4754 124.106 85.9892 123.771C86.5062 123.433 87.1094 123.264 87.7988 123.264C88.1966 123.264 88.5893 123.33 88.9771 123.463C89.3649 123.596 89.7179 123.811 90.036 124.109C90.3542 124.404 90.6078 124.795 90.7967 125.283C90.9856 125.77 91.0801 126.37 91.0801 127.082V127.58H85.1937V126.565H89.8869C89.8869 126.134 89.8007 125.75 89.6284 125.412C89.4593 125.074 89.2174 124.807 88.9025 124.612C88.591 124.416 88.2231 124.318 87.7988 124.318C87.3315 124.318 86.9271 124.434 86.5858 124.666C86.2477 124.895 85.9875 125.193 85.8052 125.561C85.6229 125.929 85.5318 126.323 85.5318 126.744V127.42C85.5318 127.997 85.6312 128.486 85.8301 128.887C86.0323 129.285 86.3123 129.588 86.6703 129.797C87.0282 130.002 87.4442 130.105 87.9181 130.105C88.2264 130.105 88.5048 130.062 88.7534 129.976C89.0053 129.886 89.2224 129.754 89.4047 129.578C89.5869 129.399 89.7278 129.177 89.8272 128.912L90.9608 129.23C90.8414 129.615 90.6409 129.953 90.3592 130.244C90.0775 130.533 89.7295 130.758 89.3152 130.92C88.9009 131.08 88.4352 131.159 87.9181 131.159ZM98.274 125.074L97.22 125.372C97.1537 125.196 97.0559 125.026 96.9267 124.86C96.8007 124.691 96.6284 124.552 96.4096 124.442C96.1909 124.333 95.9108 124.278 95.5694 124.278C95.1021 124.278 94.7127 124.386 94.4011 124.602C94.0929 124.814 93.9387 125.084 93.9387 125.412C93.9387 125.704 94.0448 125.934 94.2569 126.103C94.469 126.272 94.8005 126.413 95.2512 126.526L96.3848 126.804C97.0675 126.97 97.5763 127.223 97.911 127.565C98.2458 127.903 98.4132 128.339 98.4132 128.872C98.4132 129.31 98.2872 129.701 98.0353 130.045C97.7868 130.39 97.4387 130.662 96.9913 130.861C96.5439 131.06 96.0235 131.159 95.4302 131.159C94.6513 131.159 94.0067 130.99 93.4963 130.652C92.9859 130.314 92.6627 129.82 92.5268 129.17L93.6404 128.892C93.7465 129.303 93.947 129.611 94.242 129.817C94.5403 130.022 94.9297 130.125 95.4103 130.125C95.9572 130.125 96.3914 130.009 96.7129 129.777C97.0377 129.542 97.2001 129.26 97.2001 128.932C97.2001 128.667 97.1073 128.445 96.9217 128.266C96.7361 128.083 96.4511 127.947 96.0666 127.858L94.7939 127.56C94.0945 127.394 93.5808 127.137 93.2527 126.789C92.9279 126.438 92.7654 125.999 92.7654 125.472C92.7654 125.041 92.8864 124.66 93.1284 124.328C93.3736 123.997 93.7067 123.737 94.1277 123.548C94.5519 123.359 95.0325 123.264 95.5694 123.264C96.3251 123.264 96.9184 123.43 97.3493 123.761C97.7834 124.093 98.0917 124.53 98.274 125.074Z" fill="#7D7D7D"/>
</svg>
