<svg width="358" height="249" viewBox="0 0 358 249" fill="none" xmlns="http://www.w3.org/2000/svg">
<rect width="358" height="249" fill="#FAFAFA"/>
<path d="M35.8849 34.3622H33.2287C33.1529 33.9266 33.0133 33.5407 32.8097 33.2045C32.6061 32.8636 32.3527 32.5748 32.0497 32.3381C31.7467 32.1013 31.401 31.9238 31.0128 31.8054C30.6293 31.6823 30.215 31.6207 29.7699 31.6207C28.9792 31.6207 28.2784 31.8196 27.6676 32.2173C27.0568 32.6103 26.5786 33.188 26.233 33.9503C25.8873 34.7079 25.7145 35.6335 25.7145 36.7273C25.7145 37.84 25.8873 38.7775 26.233 39.5398C26.5833 40.2973 27.0616 40.8703 27.6676 41.2585C28.2784 41.642 28.9768 41.8338 29.7628 41.8338C30.1984 41.8338 30.6056 41.777 30.9844 41.6634C31.3679 41.545 31.7112 41.3722 32.0142 41.1449C32.322 40.9176 32.58 40.6383 32.7884 40.3068C33.0014 39.9754 33.1482 39.5966 33.2287 39.1705L35.8849 39.1847C35.7855 39.8759 35.5701 40.5246 35.2386 41.1307C34.9119 41.7367 34.4834 42.2718 33.9531 42.7358C33.4228 43.1951 32.8026 43.5549 32.0923 43.8153C31.3821 44.071 30.5938 44.1989 29.7273 44.1989C28.4489 44.1989 27.3078 43.9029 26.304 43.3111C25.3002 42.7192 24.5095 41.8646 23.9318 40.7472C23.3542 39.6297 23.0653 38.2898 23.0653 36.7273C23.0653 35.16 23.3565 33.8201 23.9389 32.7074C24.5213 31.59 25.3144 30.7353 26.3182 30.1435C27.322 29.5516 28.4583 29.2557 29.7273 29.2557C30.5369 29.2557 31.2898 29.3693 31.9858 29.5966C32.6818 29.8239 33.3021 30.1577 33.8466 30.598C34.3911 31.0336 34.8385 31.5687 35.1889 32.2031C35.544 32.8329 35.776 33.5526 35.8849 34.3622ZM40.7553 37.608V44H38.1843V29.4545H40.6985V34.9446H40.8263C41.082 34.3291 41.4774 33.8437 42.0124 33.4886C42.5522 33.1288 43.2388 32.9489 44.0721 32.9489C44.8297 32.9489 45.4902 33.1075 46.0536 33.4247C46.6171 33.742 47.0527 34.206 47.3604 34.8168C47.6729 35.4276 47.8292 36.1733 47.8292 37.054V44H45.2582V37.4517C45.2582 36.7178 45.0688 36.1473 44.69 35.7401C44.3159 35.3281 43.7904 35.1222 43.1133 35.1222C42.6587 35.1222 42.2515 35.2216 41.8917 35.4205C41.5366 35.6146 41.2572 35.8963 41.0536 36.2656C40.8548 36.6349 40.7553 37.0824 40.7553 37.608ZM53.5891 44.2202C52.8978 44.2202 52.2752 44.0971 51.7212 43.8509C51.172 43.5999 50.7364 43.2306 50.4144 42.7429C50.0972 42.2552 49.9386 41.6539 49.9386 40.9389C49.9386 40.3234 50.0522 39.8144 50.2795 39.4119C50.5067 39.0095 50.8169 38.6875 51.2099 38.446C51.6029 38.2045 52.0456 38.0223 52.538 37.8991C53.0352 37.7713 53.5489 37.679 54.0792 37.6222C54.7184 37.5559 55.2369 37.4967 55.6346 37.4446C56.0323 37.3878 56.3211 37.3026 56.5011 37.1889C56.6857 37.0705 56.7781 36.8883 56.7781 36.642V36.5994C56.7781 36.0644 56.6194 35.6501 56.3022 35.3565C55.985 35.063 55.5281 34.9162 54.9315 34.9162C54.3017 34.9162 53.8022 35.0535 53.4329 35.3281C53.0683 35.6027 52.8221 35.9271 52.6942 36.3011L50.2937 35.9602C50.4831 35.2973 50.7956 34.7434 51.2312 34.2983C51.6668 33.8485 52.1995 33.5123 52.8292 33.2898C53.4589 33.0625 54.1549 32.9489 54.9173 32.9489C55.4428 32.9489 55.966 33.0104 56.4869 33.1335C57.0077 33.2566 57.4835 33.4602 57.9144 33.7443C58.3453 34.0237 58.6909 34.4048 58.9513 34.8878C59.2165 35.3707 59.3491 35.9744 59.3491 36.6989V44H56.8775V42.5014H56.7923C56.636 42.8045 56.4158 43.0885 56.1317 43.3537C55.8524 43.6141 55.4996 43.8248 55.0735 43.9858C54.6521 44.142 54.1573 44.2202 53.5891 44.2202ZM54.2567 42.331C54.7728 42.331 55.2203 42.2292 55.5991 42.0256C55.9779 41.8172 56.2691 41.5426 56.4727 41.2017C56.681 40.8608 56.7852 40.4891 56.7852 40.0866V38.8011C56.7047 38.8674 56.5674 38.929 56.3732 38.9858C56.1838 39.0426 55.9708 39.0923 55.734 39.1349C55.4973 39.1776 55.2629 39.2154 55.0309 39.2486C54.7989 39.2817 54.5977 39.3101 54.4272 39.3338C54.0437 39.3859 53.7004 39.4711 53.3974 39.5895C53.0943 39.7079 52.8552 39.8736 52.68 40.0866C52.5049 40.295 52.4173 40.5649 52.4173 40.8963C52.4173 41.3698 52.5901 41.7273 52.9357 41.9688C53.2814 42.2102 53.7217 42.331 54.2567 42.331ZM64.5053 37.608V44H61.9343V33.0909H64.3917V34.9446H64.5195C64.7705 34.3338 65.1706 33.8485 65.7198 33.4886C66.2738 33.1288 66.958 32.9489 67.7724 32.9489C68.5252 32.9489 69.181 33.1098 69.7397 33.4318C70.3031 33.7538 70.7388 34.2202 71.0465 34.831C71.359 35.4418 71.5129 36.1828 71.5082 37.054V44H68.9371V37.4517C68.9371 36.7225 68.7478 36.152 68.369 35.7401C67.9949 35.3281 67.4764 35.1222 66.8136 35.1222C66.3638 35.1222 65.9637 35.2216 65.6133 35.4205C65.2676 35.6146 64.9954 35.8963 64.7965 36.2656C64.6024 36.6349 64.5053 37.0824 64.5053 37.608ZM76.6928 37.608V44H74.1218V33.0909H76.5792V34.9446H76.707C76.958 34.3338 77.3581 33.8485 77.9073 33.4886C78.4613 33.1288 79.1455 32.9489 79.9599 32.9489C80.7127 32.9489 81.3685 33.1098 81.9272 33.4318C82.4906 33.7538 82.9263 34.2202 83.234 34.831C83.5465 35.4418 83.7004 36.1828 83.6957 37.054V44H81.1246V37.4517C81.1246 36.7225 80.9353 36.152 80.5565 35.7401C80.1824 35.3281 79.6639 35.1222 79.0011 35.1222C78.5513 35.1222 78.1512 35.2216 77.8008 35.4205C77.4551 35.6146 77.1829 35.8963 76.984 36.2656C76.7899 36.6349 76.6928 37.0824 76.6928 37.608ZM91.1388 44.2131C90.0451 44.2131 89.1005 43.9858 88.305 43.5312C87.5143 43.072 86.9059 42.4233 86.4798 41.5852C86.0536 40.7424 85.8406 39.7505 85.8406 38.6094C85.8406 37.4872 86.0536 36.5024 86.4798 35.6548C86.9106 34.8026 87.512 34.1397 88.2837 33.6662C89.0555 33.188 89.9622 32.9489 91.0039 32.9489C91.6763 32.9489 92.3107 33.0578 92.9073 33.2756C93.5086 33.4886 94.0389 33.8201 94.4982 34.2699C94.9622 34.7197 95.3268 35.2926 95.592 35.9886C95.8571 36.6799 95.9897 37.5038 95.9897 38.4602V39.2486H87.0479V37.5156H93.5252C93.5205 37.0232 93.4139 36.5852 93.2056 36.2017C92.9973 35.8134 92.7061 35.508 92.332 35.2855C91.9627 35.063 91.5318 34.9517 91.0394 34.9517C90.5138 34.9517 90.0522 35.0795 89.6545 35.3352C89.2567 35.5862 88.9466 35.9176 88.7241 36.3295C88.5063 36.7367 88.395 37.1842 88.3903 37.6719V39.1847C88.3903 39.8191 88.5063 40.3636 88.7383 40.8182C88.9703 41.268 89.2946 41.6136 89.7113 41.8551C90.128 42.0919 90.6156 42.2102 91.1744 42.2102C91.5484 42.2102 91.887 42.1581 92.19 42.054C92.493 41.9451 92.7558 41.7865 92.9783 41.5781C93.2009 41.3698 93.369 41.1117 93.4826 40.804L95.8832 41.0739C95.7317 41.7083 95.4428 42.2623 95.0167 42.7358C94.5953 43.2045 94.0555 43.5691 93.3974 43.8295C92.7392 44.0852 91.9864 44.2131 91.1388 44.2131ZM100.736 29.4545V44H98.1648V29.4545H100.736ZM112.002 35.9744L109.658 36.2301C109.592 35.9934 109.476 35.7708 109.31 35.5625C109.149 35.3542 108.931 35.1861 108.657 35.0582C108.382 34.9304 108.046 34.8665 107.648 34.8665C107.113 34.8665 106.663 34.9825 106.299 35.2145C105.939 35.4465 105.761 35.7472 105.766 36.1165C105.761 36.4337 105.877 36.6918 106.114 36.8906C106.355 37.0895 106.753 37.2528 107.307 37.3807L109.168 37.7784C110.2 38.0009 110.967 38.3537 111.469 38.8366C111.976 39.3196 112.231 39.9517 112.236 40.733C112.231 41.4195 112.03 42.0256 111.632 42.5511C111.239 43.072 110.693 43.4792 109.992 43.7727C109.291 44.0663 108.486 44.2131 107.577 44.2131C106.242 44.2131 105.167 43.9337 104.353 43.375C103.538 42.8116 103.053 42.0279 102.897 41.0241L105.404 40.7827C105.517 41.2751 105.759 41.6468 106.128 41.8977C106.498 42.1487 106.978 42.2741 107.57 42.2741C108.181 42.2741 108.671 42.1487 109.04 41.8977C109.414 41.6468 109.601 41.3366 109.601 40.9673C109.601 40.6548 109.48 40.3968 109.239 40.1932C109.002 39.9896 108.633 39.8333 108.131 39.7244L106.27 39.3338C105.224 39.116 104.45 38.7491 103.948 38.233C103.446 37.7121 103.197 37.054 103.202 36.2585C103.197 35.5862 103.38 35.0038 103.749 34.5114C104.123 34.0142 104.641 33.6307 105.304 33.3608C105.972 33.0862 106.741 32.9489 107.613 32.9489C108.891 32.9489 109.897 33.2211 110.631 33.7656C111.37 34.3101 111.827 35.0464 112.002 35.9744Z" fill="#09090B"/>
<path d="M188.626 170.81C188.126 158.936 179.566 154.498 170.376 154.498C160.502 154.498 152.564 159.498 151.188 170.81H188.626ZM150.94 179.248C151.628 190.808 159.566 197.624 170.5 197.624C178.06 197.624 184.812 194.564 187.06 187.812H200.186C197.626 201.436 183.126 206.06 170.688 206.06C148 206.06 138 193.56 138 176.748C138 158.186 148.376 146 170.94 146C188.876 146 202 155.372 202 175.872V179.248H150.94Z" fill="#E53238"/>
<path fill-rule="evenodd" clip-rule="evenodd" d="M76.6123 145.134C69.9943 150.014 60.4043 152.614 52.1483 152.614C40.5483 152.614 30.1443 148.334 22.2583 141.208C21.6583 140.648 22.1943 139.884 22.9383 140.32C31.4483 145.274 41.9883 148.254 52.8403 148.254C60.6774 148.218 68.43 146.633 75.6523 143.59C76.7723 143.114 77.7123 144.322 76.6123 145.134ZM79.3643 141.986C78.5243 140.906 73.7723 141.476 71.6443 141.726C70.9943 141.806 70.8963 141.24 71.4803 140.834C75.2803 138.174 81.4683 138.94 82.1923 139.834C82.9163 140.728 82.0043 146.954 78.4523 149.922C77.9063 150.378 77.3863 150.136 77.6523 149.53C78.4523 147.538 80.2403 143.07 79.3923 141.986" fill="#FF9900"/>
<path fill-rule="evenodd" clip-rule="evenodd" d="M56.586 116.728C56.586 120.112 56.672 122.934 54.962 125.938C53.562 128.378 51.362 129.884 48.952 129.884C45.618 129.884 43.664 127.344 43.664 123.594C43.664 116.194 50.296 114.848 56.588 114.848L56.586 116.728ZM65.348 137.896C64.774 138.41 63.944 138.446 63.296 138.104C60.416 135.71 59.888 134.598 58.312 132.314C53.548 137.174 50.164 138.628 43.996 138.628C36.68 138.628 31 134.12 31 125.094C31 118.046 34.81 113.246 40.26 110.9C44.974 108.824 51.56 108.46 56.59 107.9V106.8C56.59 104.736 56.75 102.292 55.53 100.51C54.48 98.91 52.45 98.25 50.656 98.25C47.346 98.25 44.402 99.95 43.682 103.466C43.536 104.266 42.962 105.018 42.168 105.054L33.726 104.11C33.018 103.95 32.226 103.378 32.432 102.31C34.382 92.08 43.616 89 51.874 89C56.1 89 61.622 90.124 64.954 93.324C69.18 97.27 68.778 102.534 68.778 108.264V121.8C68.778 125.868 70.464 127.65 72.052 129.85C72.602 130.65 72.724 131.57 72.016 132.158C69.7744 134.053 67.5556 135.976 65.36 137.924L65.348 137.9" fill="#221F1F"/>
<g clip-path="url(#clip0_47_138)">
<path d="M321.423 89.6368C321.357 89.1368 320.937 88.8601 320.59 88.8296C320.244 88.7995 312.918 88.2327 312.918 88.2327C312.918 88.2327 307.831 82.9604 307.272 82.3769C306.714 81.7937 305.622 81.9711 305.199 82.1012C305.136 82.1204 304.087 82.4584 302.352 83.019C300.652 77.9142 297.653 73.2231 292.376 73.2231C292.23 73.2231 292.08 73.2293 291.93 73.2382C290.43 71.1666 288.571 70.2666 286.965 70.2666C274.673 70.2666 268.801 86.306 266.959 94.4567C262.183 96.0015 258.79 97.0998 258.356 97.2419C255.69 98.1149 255.606 98.2026 255.256 100.825C254.992 102.81 248.017 159.121 248.017 159.121L302.374 169.752L331.827 163.102C331.827 163.102 321.488 90.1368 321.423 89.6368ZM299.347 83.9889L294.748 85.4748C294.749 85.1365 294.751 84.8036 294.751 84.4395C294.751 81.2669 294.329 78.7125 293.652 76.6875C296.371 77.0437 298.182 80.2728 299.347 83.9889ZM290.279 77.3166C291.035 79.2937 291.527 82.131 291.527 85.9598C291.527 86.1556 291.525 86.3348 291.524 86.5159C288.532 87.483 285.282 88.533 282.024 89.5865C283.853 82.218 287.282 78.6591 290.279 77.3166ZM286.627 73.708C287.158 73.708 287.692 73.8961 288.204 74.2635C284.265 76.1985 280.042 81.0717 278.259 90.8036L270.75 93.231C272.839 85.808 277.799 73.708 286.627 73.708Z" fill="#95BF46"/>
<path d="M320.59 88.8296C320.244 88.7995 312.919 88.2327 312.919 88.2327C312.919 88.2327 307.831 82.9604 307.272 82.3769C307.063 82.1597 306.782 82.0484 306.487 82.0005L302.377 169.752L331.827 163.102C331.827 163.102 321.488 90.1368 321.423 89.6368C321.357 89.1368 320.937 88.8601 320.59 88.8296Z" fill="#5E8E3E"/>
<path d="M292.376 105.817L288.744 117.093C288.744 117.093 285.563 115.32 281.662 115.32C275.944 115.32 275.656 119.066 275.656 120.009C275.656 125.159 288.518 127.133 288.518 139.196C288.518 148.687 282.751 154.798 274.975 154.798C265.644 154.798 260.872 148.736 260.872 148.736L263.371 140.12C263.371 140.12 268.276 144.515 272.415 144.515C275.119 144.515 276.219 142.293 276.219 140.669C276.219 133.951 265.668 133.651 265.668 122.613C265.668 113.322 272.056 104.331 284.952 104.331C289.921 104.331 292.376 105.817 292.376 105.817Z" fill="white"/>
</g>
<defs>
<clipPath id="clip0_47_138">
<rect width="84" height="100" fill="white" transform="translate(248 70)"/>
</clipPath>
</defs>
</svg>
