<?xml version="1.0" standalone="no"?>
<!DOCTYPE svg PUBLIC "-//W3C//DTD SVG 20010904//EN"
 "http://www.w3.org/TR/2001/REC-SVG-20010904/DTD/svg10.dtd">
<svg version="1.0" xmlns="http://www.w3.org/2000/svg"
 width="1024.000000pt" height="1024.000000pt" viewBox="0 0 1024.000000 1024.000000"
 preserveAspectRatio="xMidYMid meet">

<g transform="translate(0.000000,1024.000000) scale(0.100000,-0.100000)"
fill="#000000" stroke="none">
<path d="M3929 7830 c-102 -18 -198 -92 -243 -189 -21 -45 -21 -57 -24 -654
-2 -571 -4 -608 -20 -602 -9 4 -51 18 -92 30 -166 50 -235 42 -309 -32 l-45
-45 -425 -1 c-329 -2 -425 -5 -429 -14 -3 -10 85 -13 420 -13 l423 0 1 -58 c0
-63 17 -103 71 -169 41 -51 173 -164 306 -261 116 -86 124 -107 39 -97 -68 8
-170 -8 -221 -35 -83 -43 -142 -148 -143 -254 0 -53 5 -75 31 -126 44 -86 107
-177 136 -196 l24 -16 -58 -56 c-108 -106 -142 -232 -91 -332 30 -59 104 -166
148 -212 l34 -36 -28 -15 c-103 -54 -145 -196 -92 -306 25 -52 106 -136 140
-146 13 -4 57 -28 99 -53 l77 -46 3 -111 c4 -101 7 -116 37 -177 36 -73 79
-114 159 -151 45 -21 64 -22 312 -25 l263 -3 322 -276 c431 -370 614 -506
1046 -783 55 -36 135 -98 176 -138 67 -66 222 -263 314 -400 34 -51 50 -63 50
-41 0 17 -181 268 -268 371 -95 114 -147 157 -322 268 -406 258 -686 475
-1199 929 l-75 66 635 5 634 5 57 28 c62 30 115 83 150 149 l23 43 5 821 5
821 108 -76 107 -76 0 -65 c0 -36 -4 -70 -8 -76 -4 -6 -35 -26 -69 -43 -35
-17 -63 -36 -63 -41 0 -14 5 -13 61 16 28 14 53 23 56 20 3 -3 -11 -35 -32
-71 -20 -37 -34 -70 -30 -73 19 -19 90 129 103 213 11 70 3 151 -26 257 -20
72 -62 254 -62 269 0 4 18 14 40 23 42 17 57 44 18 31 -64 -20 -72 -18 -96 25
-84 149 -140 409 -127 588 l7 92 135 0 136 0 37 -40 c25 -27 45 -40 63 -40 24
0 32 -11 77 -99 27 -55 70 -134 95 -176 25 -42 45 -78 45 -80 0 -1 -11 -6 -25
-9 -14 -4 -25 -11 -25 -16 0 -14 33 -13 47 1 15 15 32 -13 92 -147 66 -149
161 -337 238 -472 75 -130 116 -218 131 -283 18 -72 31 -245 57 -769 26 -520
29 -539 88 -663 47 -99 98 -172 275 -395 137 -172 172 -209 172 -184 0 4 -70
95 -156 202 -161 202 -239 315 -280 404 -52 114 -52 111 -94 1006 -20 409 -28
440 -195 735 -78 137 -131 242 -210 416 -34 75 -95 192 -135 259 -83 141 -147
271 -156 318 l-6 32 487 0 c385 0 486 3 482 13 -3 9 -111 12 -488 14 l-484 2
-13 43 c-8 24 -26 81 -40 127 -36 117 -54 136 -129 136 -75 0 -131 -34 -176
-107 l-32 -51 -5 559 -5 559 -27 50 c-32 62 -102 128 -166 158 l-47 22 -880 1
c-484 1 -901 -2 -926 -6z m1858 -48 c66 -35 110 -79 140 -140 l28 -57 0 -620
0 -620 -37 -3 -38 -3 0 584 c0 670 1 659 -79 738 -36 37 -57 49 -99 58 -37 8
-306 11 -886 11 -915 0 -900 1 -970 -60 -74 -65 -70 -34 -76 -720 l-5 -615
-40 1 -40 1 0 619 0 619 33 67 c36 74 85 119 160 149 45 17 91 18 957 16 l910
-2 42 -23z m-47 -104 c26 -14 57 -41 75 -66 l30 -44 3 -613 3 -613 -33 -3
c-18 -2 -481 -4 -1028 -4 l-995 0 0 611 0 611 30 48 c20 32 45 56 74 72 l44
23 876 0 877 0 44 -22z m486 -1058 l27 -11 -31 -32 c-19 -20 -32 -43 -32 -59
0 -22 27 -123 47 -174 4 -12 -18 -14 -126 -14 -151 0 -146 -4 -115 101 28 96
92 174 158 190 44 10 42 10 72 -1z m72 -107 c51 -170 51 -183 2 -183 -35 0
-45 18 -76 129 l-17 61 28 30 c16 17 32 30 36 30 4 0 16 -30 27 -67z m-2862
-93 c71 -13 224 -61 224 -71 0 -10 -168 -16 -308 -11 l-123 5 23 24 c27 30 52
44 93 54 17 4 30 7 31 8 0 1 27 -4 60 -9z m224 -370 c0 -143 -3 -260 -7 -260
-13 0 -213 153 -284 216 -137 123 -166 173 -161 277 l2 27 225 0 225 0 0 -260z
m110 -482 c0 -408 -4 -738 -8 -733 -79 91 -82 97 -82 192 0 73 4 95 19 114 69
89 73 231 11 352 l-30 57 0 380 0 380 45 0 45 0 0 -742z m2080 -556 l0 -1299
-23 -44 c-13 -24 -43 -57 -66 -74 l-43 -30 -876 -3 c-981 -3 -929 -6 -996 68
-20 22 -39 52 -43 67 -7 23 -9 654 -4 953 0 41 -1 432 -4 868 l-6 792 1031 0
1030 0 0 -1298z m99 1135 c2 -89 4 -682 5 -1317 l1 -1155 -28 -57 c-30 -62
-75 -105 -147 -140 l-45 -23 -910 0 c-908 0 -910 0 -956 21 -67 31 -124 87
-156 152 -26 54 -28 66 -32 214 l-3 157 31 43 c59 83 59 210 0 284 -22 27 -29
47 -29 79 0 38 4 44 45 74 l45 32 0 -399 0 -398 28 -55 c18 -35 42 -64 70 -84
l44 -30 886 -3 c621 -2 898 0 925 8 50 15 106 65 131 120 21 45 21 52 24 1343
l2 1297 33 0 32 0 4 -163z m409 131 c5 -41 -45 -31 -68 13 -11 19 -9 20 27 17
33 -3 38 -7 41 -30z m-333 -553 c15 -38 39 -92 55 -120 15 -27 31 -70 35 -95
3 -25 22 -105 41 -179 19 -74 32 -136 29 -139 -2 -2 -49 28 -105 67 l-100 72
1 252 c0 148 4 244 9 232 4 -11 20 -51 35 -90z m-2365 -87 l0 -62 -34 33 c-19
18 -39 30 -45 27 -6 -4 9 -26 35 -52 89 -89 134 -242 104 -354 -25 -91 -120
-150 -219 -135 -64 9 -140 89 -200 207 -42 82 -44 90 -39 151 4 45 14 81 34
117 52 96 120 128 272 129 l92 1 0 -62z m0 -605 l0 -66 -23 21 c-22 21 -47 29
-47 16 0 -3 30 -38 66 -77 117 -127 152 -221 123 -324 -39 -143 -220 -202
-322 -106 -35 34 -143 192 -163 239 -18 44 -18 115 1 160 23 55 80 128 122
156 33 21 46 24 98 20 40 -3 72 1 95 11 19 9 38 16 43 16 4 1 7 -29 7 -66z
m-2 -628 l3 -25 -34 20 c-45 27 -59 9 -15 -18 113 -70 149 -186 93 -298 -29
-59 -67 -84 -128 -84 -61 0 -89 12 -143 62 -97 90 -121 206 -61 297 45 68 73
80 185 75 95 -4 97 -4 100 -29z m2 -445 c0 -35 -5 -36 -43 -11 l-29 19 29 10
c41 15 43 15 43 -18z"/>
<path d="M4078 5628 c-2 -293 -3 -578 -3 -633 0 -96 1 -100 23 -103 l22 -3 0
635 c0 629 0 636 -20 636 -20 0 -20 -7 -22 -532z"/>
<path d="M4156 6150 c-11 -27 -2 -1255 9 -1255 13 0 19 1230 6 1253 -8 15 -10
15 -15 2z"/>
<path d="M4220 5605 l0 -555 30 0 30 0 0 555 0 555 -30 0 -30 0 0 -555z"/>
<path d="M4337 6153 c-12 -11 -8 -1103 3 -1103 7 0 10 192 10 555 0 305 -1
555 -3 555 -2 0 -7 -3 -10 -7z"/>
<path d="M4405 6148 c-3 -7 -4 -256 -3 -553 l3 -540 33 -3 32 -3 -2 553 -3
553 -28 3 c-16 2 -29 -2 -32 -10z"/>
<path d="M4500 5604 c0 -440 3 -555 13 -551 9 3 11 119 9 543 -1 296 -2 545
-2 552 0 6 -4 12 -10 12 -7 0 -10 -192 -10 -556z"/>
<path d="M4570 5605 c0 -363 3 -555 10 -555 7 0 10 192 10 555 0 363 -3 555
-10 555 -7 0 -10 -192 -10 -555z"/>
<path d="M4666 6083 c-8 -96 -8 -996 0 -1017 3 -9 10 -16 15 -16 5 0 9 236 9
555 0 514 -8 667 -24 478z"/>
<path d="M4720 5605 l0 -555 30 0 30 0 0 555 0 555 -30 0 -30 0 0 -555z"/>
<path d="M4818 6154 c-5 -4 -8 -254 -8 -556 0 -435 3 -549 13 -545 9 3 12 109
12 488 0 490 -4 627 -17 613z"/>
<path d="M4880 5605 c0 -363 3 -555 10 -555 7 0 10 192 10 555 0 363 -3 555
-10 555 -7 0 -10 -192 -10 -555z"/>
<path d="M4976 6153 c-3 -3 -6 -253 -6 -555 0 -480 2 -548 15 -548 13 0 15 68
15 549 0 303 -4 552 -9 555 -4 3 -11 3 -15 -1z"/>
<path d="M5030 5605 l0 -555 30 0 30 0 0 555 0 555 -30 0 -30 0 0 -555z"/>
<path d="M5140 5605 l0 -555 30 0 30 0 0 555 0 555 -30 0 -30 0 0 -555z"/>
<path d="M5250 5605 c0 -363 3 -555 10 -555 7 0 10 192 10 555 0 363 -3 555
-10 555 -7 0 -10 -192 -10 -555z"/>
<path d="M5340 5605 c0 -363 3 -555 10 -555 7 0 10 192 10 555 0 363 -3 555
-10 555 -7 0 -10 -192 -10 -555z"/>
<path d="M5390 5605 l0 -555 30 0 30 0 0 555 0 555 -30 0 -30 0 0 -555z"/>
<path d="M5490 5525 c0 -417 3 -635 10 -635 7 0 10 218 10 635 0 417 -3 635
-10 635 -7 0 -10 -218 -10 -635z"/>
<path d="M5545 6148 c-3 -7 -4 -292 -3 -633 l3 -620 23 -3 22 -3 0 635 c0 633
0 636 -20 636 -11 0 -23 -6 -25 -12z"/>
<path d="M3409 5517 c-18 -12 -44 -40 -57 -62 -32 -55 -26 -141 14 -215 16
-29 34 -53 39 -52 6 1 13 25 18 54 11 75 54 146 113 186 27 19 49 41 49 50 0
19 -79 62 -115 62 -15 0 -42 -10 -61 -23z m129 -25 c13 -8 19 -18 15 -22 -4
-3 -25 -18 -45 -33 -44 -33 -85 -99 -102 -165 l-12 -47 -22 58 c-28 73 -28
102 1 157 36 74 101 94 165 52z"/>
<path d="M3493 4849 c-79 -39 -104 -138 -59 -228 26 -51 72 -111 86 -111 4 0
11 21 15 47 13 87 60 152 134 182 17 8 31 17 31 22 0 13 -52 59 -90 78 -59 31
-73 32 -117 10z m119 -38 c56 -36 64 -48 37 -56 -54 -17 -109 -87 -133 -169
l-12 -41 -32 55 c-39 67 -48 108 -32 154 14 44 63 86 99 86 15 0 48 -13 73
-29z"/>
<path d="M3495 4336 c-81 -36 -96 -149 -30 -220 35 -38 55 -34 55 11 0 52 35
118 76 143 40 25 42 34 11 55 -34 22 -78 27 -112 11z m84 -25 c12 -8 9 -15
-17 -39 -36 -34 -62 -88 -62 -128 0 -26 0 -27 -20 -9 -31 28 -42 81 -24 123 8
19 22 41 32 48 20 15 70 18 91 5z"/>
</g>
</svg>
