<?xml version="1.0" standalone="no"?>
<!DOCTYPE svg PUBLIC "-//W3C//DTD SVG 20010904//EN"
 "http://www.w3.org/TR/2001/REC-SVG-20010904/DTD/svg10.dtd">
<svg version="1.0" xmlns="http://www.w3.org/2000/svg"
 width="1024.000000pt" height="1024.000000pt" viewBox="0 0 1024.000000 1024.000000"
 preserveAspectRatio="xMidYMid meet">

<g transform="translate(0.000000,1024.000000) scale(0.100000,-0.100000)"
fill="#000000" stroke="none">
<path d="M5100 6788 c0 -1899 -4 -3459 -8 -3466 -7 -10 -494 -12 -2550 -10
-1398 2 -2542 0 -2542 -4 0 -5 1145 -8 2545 -8 l2545 0 0 -70 0 -70 -2547 -3
-2548 -2 2553 -3 2552 -2 0 -1575 c0 -1568 0 -1575 20 -1575 20 0 20 7 20
5120 0 5113 0 5120 -20 5120 -20 0 -20 -7 -20 -3452z"/>
<path d="M7714 7029 c-39 -11 -56 -31 -52 -61 2 -18 13 -26 48 -35 58 -15 174
-15 225 1 35 10 40 16 43 44 3 29 -1 34 -32 47 -39 17 -181 19 -232 4z m222
-71 c4 -5 5 -10 2 -13 -11 -11 -109 -17 -172 -10 -64 6 -84 18 -48 29 26 7
209 2 218 -6z"/>
<path d="M1296 6458 c-35 -54 -25 -118 24 -158 10 -8 39 -77 63 -152 l45 -138
-82 0 -82 0 -32 53 c-18 29 -32 62 -32 74 0 13 -20 39 -51 67 -29 26 -53 45
-55 44 -1 -2 4 -35 12 -73 10 -50 21 -76 38 -90 21 -18 46 -55 46 -69 0 -3
-269 -7 -597 -9 l-598 -2 605 -3 605 -3 123 -201 122 -201 -20 -22 c-19 -20
-20 -34 -20 -272 0 -226 2 -251 18 -265 48 -42 186 -58 282 -34 106 27 100 10
100 301 l0 252 -40 18 c-22 10 -40 22 -40 26 0 7 108 312 131 372 l11 27 818
0 817 0 -3 -57 -3 -58 8 53 c8 63 24 76 64 55 35 -18 107 -21 194 -10 60 9 63
8 72 -15 6 -13 10 -17 10 -8 1 9 -5 22 -11 28 -10 10 14 12 116 10 l128 -3 58
-155 c32 -85 143 -380 245 -655 103 -275 215 -574 250 -665 35 -91 117 -307
183 -480 125 -328 245 -648 257 -688 4 -13 9 -21 12 -18 6 6 -78 237 -312 851
-101 264 -286 757 -413 1095 -127 338 -240 641 -252 673 l-21 57 -135 0 -134
0 0 29 c0 47 -10 60 -53 72 -54 14 -168 15 -194 0 -14 -7 -25 -26 -30 -54 l-9
-42 -828 -3 c-786 -2 -828 -1 -821 15 4 10 18 56 32 103 14 46 34 98 44 115
20 32 26 119 10 130 -14 8 -61 -58 -72 -102 -5 -21 -26 -89 -47 -151 l-37
-112 -159 2 -159 3 -14 45 c-8 25 -28 87 -44 137 -24 72 -29 103 -24 137 9 57
-13 99 -65 126 l-39 20 -15 -22z m39 -8 c3 -5 15 -10 26 -10 13 0 25 -12 35
-35 26 -64 15 -95 -36 -98 -42 -3 -74 37 -73 88 1 49 31 83 48 55z m624 -191
c-7 -17 -19 -29 -30 -29 -30 0 -25 61 9 101 l27 33 3 -38 c2 -21 -2 -51 -9
-67z m-538 -36 c21 -65 21 -67 3 -81 -18 -14 -18 -14 1 -8 20 6 27 -14 105
-276 46 -156 87 -287 92 -292 10 -13 11 -66 0 -66 -5 0 -15 21 -24 48 -235
687 -247 727 -230 734 9 4 20 7 24 7 3 1 16 -29 29 -66z m-241 -63 c6 -10 10
-28 10 -39 0 -12 15 -42 34 -68 62 -88 77 -133 44 -133 -5 0 -8 7 -4 15 3 9 0
15 -8 15 -16 0 -80 116 -71 130 3 6 -3 10 -14 10 -26 0 -47 33 -55 88 l-7 44
31 -22 c16 -12 35 -30 40 -40z m750 54 c0 -4 -9 -37 -20 -74 -17 -57 -23 -67
-39 -63 -19 5 -19 6 -1 56 28 81 31 87 46 87 8 0 14 -3 14 -6z m1860 -119 c24
-15 -16 -25 -97 -26 -107 -1 -163 16 -120 35 17 8 201 1 217 -9z m-1915 -36
c10 -15 -1 -23 -20 -15 -9 3 -13 10 -10 16 8 13 22 13 30 -1z m1705 -25 c0
-23 -14 -32 -24 -16 -8 13 5 52 15 46 5 -3 9 -16 9 -30z m30 -4 c0 -16 -4 -30
-10 -30 -5 0 -10 14 -10 30 0 17 5 30 10 30 6 0 10 -13 10 -30z m192 5 c6 -31
4 -33 -66 -41 l-56 -7 0 30 c0 29 2 30 47 32 26 1 49 3 51 6 11 11 20 4 24
-20z m-161 -2 c1 -17 2 -17 6 0 7 28 23 19 23 -13 0 -25 -4 -30 -25 -30 -21 0
-25 5 -25 30 0 31 19 43 21 13z m-1771 -7 c0 -2 -12 -35 -26 -72 -14 -38 -50
-134 -79 -214 -65 -179 -98 -251 -103 -228 -2 9 19 81 47 160 27 79 53 154 56
168 4 14 21 62 37 108 23 64 34 82 49 82 10 0 19 -2 19 -4z m-370 -228 c62
-185 65 -198 47 -204 -11 -3 -25 0 -32 7 -16 18 -235 383 -235 393 0 4 35 6
77 4 l77 -3 66 -197z m307 190 c-3 -7 -34 -97 -68 -200 -58 -170 -65 -187 -89
-191 -14 -3 -27 -4 -28 -2 -3 3 -122 395 -122 403 0 1 70 2 156 2 121 0 155
-3 151 -12z m-478 -106 c14 -20 57 -91 96 -157 40 -66 84 -138 99 -159 29 -43
33 -66 11 -66 -8 0 -26 21 -41 48 -15 26 -64 106 -109 177 -99 157 -108 173
-100 185 10 17 19 11 44 -28z m250 -314 c23 -61 23 -68 4 -68 -26 0 -52 68
-32 81 19 12 18 12 28 -13z m81 5 c0 -10 -4 -24 -9 -31 -6 -10 -10 -8 -14 9
-3 12 -4 26 -1 31 9 14 24 9 24 -9z m108 -30 c2 -14 -6 -24 -27 -32 -51 -22
-60 -12 -39 37 18 41 20 43 41 29 12 -8 23 -23 25 -34z m-289 2 c22 -38 18
-45 -11 -18 -10 9 -21 13 -24 10 -15 -15 62 -45 130 -52 120 -11 206 11 206
52 0 14 4 21 10 18 6 -4 10 -98 10 -250 0 -202 -3 -246 -15 -258 -46 -46 -233
-57 -317 -19 l-48 21 0 247 c0 216 2 250 17 266 9 10 17 18 19 18 1 0 11 -16
23 -35z"/>
<path d="M1320 6342 c0 -5 7 -15 15 -22 8 -7 15 -9 15 -6 0 4 -7 14 -15 22 -8
9 -15 11 -15 6z"/>
<path d="M6760 5345 l0 -885 1043 2 1042 3 0 880 0 880 -1042 3 -1043 2 0
-885z m2010 816 c0 -4 -24 -31 -54 -60 l-55 -51 -858 0 -858 0 -52 57 c-29 31
-53 58 -53 60 0 1 434 3 965 3 531 0 965 -4 965 -9z m-1830 -820 l0 -696 -56
-57 c-31 -32 -58 -58 -60 -58 -2 0 -4 368 -4 818 l1 817 59 -64 60 -64 0 -696z
m1848 7 c-2 -442 -7 -809 -11 -815 -6 -10 -212 -13 -975 -13 l-966 0 54 55 54
55 860 0 860 0 55 -52 c50 -48 52 -49 24 -13 -17 22 -40 49 -52 59 -21 19 -21
20 -21 720 l0 700 52 53 c29 29 56 53 60 53 5 0 7 -361 6 -802z m-130 -5 l-3
-698 -852 -3 -853 -2 0 700 0 700 855 0 855 0 -2 -697z"/>
<path d="M7605 5875 c-14 -13 -25 -30 -25 -37 0 -7 7 -2 16 11 9 13 31 29 48
37 27 12 28 13 8 14 -13 0 -34 -11 -47 -25z"/>
<path d="M7706 5865 c25 -25 25 -27 10 -50 -9 -14 -14 -25 -11 -25 2 0 12 11
21 25 15 23 15 27 0 50 -9 14 -23 25 -31 25 -9 0 -6 -9 11 -25z"/>
<path d="M7604 5803 c14 -17 29 -23 55 -21 l36 1 -35 4 c-19 3 -44 12 -55 21
-20 17 -20 17 -1 -5z"/>
<path d="M7814 5635 c26 -14 62 -25 81 -25 21 0 51 -11 78 -30 39 -26 53 -30
108 -28 l64 1 -65 6 c-44 4 -78 14 -104 30 -45 28 -36 37 20 22 49 -13 56 -7
10 9 -22 7 -57 9 -89 5 -44 -6 -59 -3 -88 14 -19 12 -40 21 -48 21 -8 0 7 -11
33 -25z"/>
<path d="M7698 5643 c12 -2 30 -2 40 0 9 3 -1 5 -23 4 -22 0 -30 -2 -17 -4z"/>
<path d="M8082 5620 c-39 -36 -33 -39 11 -6 18 13 43 26 57 29 22 4 22 4 -5 5
-20 1 -41 -8 -63 -28z"/>
<path d="M8230 5641 c25 -4 59 -15 77 -24 18 -9 45 -16 60 -16 26 1 25 2 -7 9
-19 4 -48 15 -65 24 -16 9 -48 15 -70 15 l-40 -2 45 -6z"/>
<path d="M7635 5630 c-13 -6 -15 -9 -5 -9 8 0 22 4 30 9 18 12 2 12 -25 0z"/>
<path d="M7201 5591 c-46 -22 -92 -41 -102 -44 -11 -3 -19 -10 -19 -15 0 -6
42 10 93 35 129 63 148 65 233 14 38 -22 75 -45 82 -51 7 -6 18 -10 25 -7 7 2
1 9 -13 17 -14 7 -27 16 -30 19 -15 18 -133 71 -157 71 -15 0 -66 -18 -112
-39z"/>
<path d="M7525 5600 c-16 -11 -25 -20 -18 -20 6 0 15 4 18 10 3 5 20 14 38 19
20 6 25 9 12 10 -11 0 -33 -8 -50 -19z"/>
<path d="M7733 5543 c37 -2 97 -2 135 0 37 2 6 3 -68 3 -74 0 -105 -1 -67 -3z"/>
<path d="M7203 5523 c48 -2 125 -2 170 0 45 1 6 3 -88 3 -93 0 -130 -2 -82 -3z"/>
<path d="M7630 5507 c27 -15 36 -14 25 2 -3 6 -16 11 -28 11 -21 0 -21 -1 3
-13z"/>
<path d="M8360 5465 c-19 -7 -28 -13 -20 -13 8 0 31 6 50 13 19 7 28 13 20 13
-8 0 -31 -6 -50 -13z"/>
<path d="M8468 5473 c7 -3 16 -2 19 1 4 3 -2 6 -13 5 -11 0 -14 -3 -6 -6z"/>
<path d="M7650 5461 c0 -5 7 -12 16 -15 14 -5 15 -4 4 9 -14 17 -20 19 -20 6z"/>
<path d="M7691 5467 c16 -13 99 -57 99 -53 0 7 -84 56 -95 56 -5 0 -6 -1 -4
-3z"/>
<path d="M8217 5450 c-30 -24 -69 -26 -102 -4 -33 22 -58 11 -103 -43 -35 -42
-39 -44 -77 -39 -22 3 -46 2 -52 -2 -6 -4 13 -8 42 -9 53 -3 55 -2 90 42 44
53 67 62 100 41 33 -21 71 -20 104 3 15 11 45 21 67 24 l39 4 -41 1 c-28 1
-49 -4 -67 -18z"/>
<path d="M8515 5460 c19 -8 73 -14 64 -6 -2 2 -22 6 -44 9 -28 5 -34 4 -20 -3z"/>
<path d="M7620 5437 c0 -9 9 -21 21 -27 31 -17 33 -7 4 20 -20 19 -25 20 -25
7z"/>
<path d="M8454 5409 c-3 -5 6 -9 20 -9 31 0 34 6 6 13 -11 3 -23 1 -26 -4z"/>
<path d="M8548 5383 c6 -2 18 -2 25 0 6 3 1 5 -13 5 -14 0 -19 -2 -12 -5z"/>
<path d="M8219 5368 c-8 -7 -21 -22 -29 -33 -8 -11 0 -7 18 9 18 17 32 31 32
33 0 6 -6 3 -21 -9z"/>
<path d="M7035 5355 c23 -8 133 -11 129 -3 -3 4 -35 8 -72 7 -37 0 -62 -2 -57
-4z"/>
<path d="M8338 5343 c-29 -34 -30 -48 -2 -21 15 15 26 30 23 33 -3 3 -13 -3
-21 -12z"/>
<path d="M7188 5343 c7 -3 16 -2 19 1 4 3 -2 6 -13 5 -11 0 -14 -3 -6 -6z"/>
<path d="M7810 5315 l-34 -35 -110 -2 -111 -2 102 -3 101 -4 -37 -37 c-49 -49
-2 -11 76 61 34 31 58 57 54 57 -4 0 -22 -16 -41 -35z"/>
<path d="M7265 5312 c28 -15 76 -44 107 -64 31 -21 76 -47 100 -59 24 -12 64
-41 90 -65 26 -24 52 -44 58 -44 37 0 -195 161 -342 237 -62 32 -72 28 -13 -5z"/>
<path d="M8370 5330 c-13 -8 -13 -10 2 -10 9 0 20 5 23 10 8 13 -5 13 -25 0z"/>
<path d="M7945 5310 c-26 -28 -15 -31 14 -3 13 13 20 23 14 23 -5 0 -18 -9
-28 -20z"/>
<path d="M7145 5310 c28 -12 47 -12 40 0 -3 6 -18 10 -33 9 -24 0 -25 -1 -7
-9z"/>
<path d="M8200 5305 c-7 -9 -11 -17 -9 -20 3 -2 10 5 17 15 14 24 10 26 -8 5z"/>
<path d="M7260 5291 c0 -5 7 -15 17 -22 15 -13 15 -12 4 9 -12 23 -21 28 -21
13z"/>
<path d="M7990 5275 c-7 -9 -8 -15 -2 -15 5 0 12 7 16 15 3 8 4 15 2 15 -2 0
-9 -7 -16 -15z"/>
<path d="M7503 5243 c37 -2 96 -2 130 0 34 2 4 3 -68 3 -71 0 -99 -1 -62 -3z"/>
<path d="M7388 5182 c9 -11 21 -17 25 -15 11 7 -13 33 -29 33 -11 0 -10 -5 4
-18z"/>
<path d="M8063 5183 c87 -2 227 -2 310 0 84 1 13 3 -158 3 -170 0 -239 -2
-152 -3z"/>
<path d="M7437 5153 c-4 -3 -7 -11 -7 -17 0 -6 4 -6 12 2 8 8 16 8 32 0 19
-10 20 -10 7 5 -14 18 -33 22 -44 10z"/>
<path d="M7510 5111 c0 -10 30 -24 37 -17 3 2 -5 9 -16 16 -12 6 -21 7 -21 1z"/>
<path d="M7350 5087 c0 -8 76 -54 100 -61 26 -7 29 -9 -69 47 -17 10 -31 16
-31 14z"/>
<path d="M7200 5060 c-41 -23 -32 -27 10 -5 31 16 85 14 120 -5 11 -6 20 -7
20 -2 0 14 -48 32 -83 32 -18 -1 -48 -9 -67 -20z"/>
<path d="M7680 5060 c25 -12 59 -24 75 -26 17 -3 7 4 -25 16 -77 29 -104 34
-50 10z"/>
<path d="M7808 5014 c31 -21 28 -32 -10 -37 -30 -3 -29 -4 8 -5 25 -1 84 -21
150 -51 60 -27 125 -52 144 -55 26 -4 23 -1 -14 10 -35 12 -45 18 -35 25 10 6
6 9 -13 9 -39 0 -167 58 -203 92 -17 15 -35 28 -40 28 -5 0 1 -7 13 -16z"/>
<path d="M7660 5016 c0 -2 15 -9 33 -15 29 -10 30 -9 13 4 -18 14 -46 20 -46
11z"/>
<path d="M7707 4945 c-15 -14 -24 -25 -19 -25 5 0 19 11 32 25 30 32 23 32
-13 0z"/>
<path d="M7588 4913 c18 -2 45 -2 60 0 15 2 0 4 -33 4 -33 0 -45 -2 -27 -4z"/>
<path d="M7487 4884 c-21 -14 -60 -32 -87 -40 -27 -8 -55 -21 -63 -28 -7 -7
-31 -23 -53 -34 -21 -12 -35 -21 -31 -22 12 0 85 39 92 50 3 5 30 17 60 25 29
9 65 25 78 35 14 11 36 24 49 29 13 6 16 10 8 10 -9 1 -32 -11 -53 -25z"/>
<path d="M8155 4893 c45 -3 83 -15 154 -49 51 -25 96 -43 98 -40 3 3 -39 25
-92 50 -86 40 -105 46 -159 44 l-61 -2 60 -3z"/>
<path d="M8293 4883 c9 -2 25 -2 35 0 9 3 1 5 -18 5 -19 0 -27 -2 -17 -5z"/>
<path d="M8140 4857 c7 -7 123 -37 128 -32 4 3 -34 15 -103 31 -16 4 -28 4
-25 1z"/>
<path d="M3852 5865 c-1 -44 -5 -104 -9 -134 -5 -49 -9 -55 -39 -67 -50 -21
-189 -18 -240 5 -23 11 -47 27 -53 38 -10 17 -10 17 -11 0 -1 -63 243 -97 323
-44 21 14 26 27 32 79 3 35 5 95 3 133 l-4 70 -2 -80z"/>
<path d="M3638 5923 c12 -2 30 -2 40 0 9 3 -1 5 -23 4 -22 0 -30 -2 -17 -4z"/>
<path d="M3550 5910 c-24 -15 -7 -18 20 -3 14 7 18 13 10 13 -8 0 -22 -4 -30
-10z"/>
<path d="M3740 5912 c19 -5 44 -13 54 -19 18 -10 18 -11 -5 -24 -29 -17 -171
-17 -213 0 -16 6 -31 9 -33 7 -3 -3 21 -12 53 -22 56 -16 134 -15 191 2 21 6
22 3 26 -67 l3 -74 2 86 c2 99 -3 109 -70 115 -40 3 -41 3 -8 -4z"/>
<path d="M3533 5800 c0 -36 2 -50 4 -32 2 17 2 47 0 65 -2 17 -4 3 -4 -33z"/>
<path d="M3502 5770 c0 -19 2 -27 5 -17 2 9 2 25 0 35 -3 9 -5 1 -5 -18z"/>
<path d="M3989 5683 c-117 -138 -233 -283 -273 -343 -20 -30 -52 -72 -71 -92
-36 -38 -44 -58 -22 -58 21 0 317 335 440 497 38 51 44 83 14 83 -7 0 -47 -39
-88 -87z m101 68 c0 -11 -57 -86 -169 -220 -53 -63 -105 -125 -117 -139 -17
-21 -22 -22 -27 -10 -3 10 28 58 90 134 170 212 223 267 223 235z m-320 -390
c0 -12 -20 -25 -27 -18 -7 7 6 27 18 27 5 0 9 -4 9 -9z m-30 -39 c0 -5 -9 -17
-20 -27 -22 -20 -26 -14 -10 16 11 19 30 26 30 11z m-89 -95 c-13 -12 -20 -15
-16 -7 14 26 28 41 33 35 3 -3 -5 -16 -17 -28z"/>
<path d="M1051 5734 c-73 -19 -81 -28 -81 -85 0 -26 -9 -88 -21 -136 -36 -155
-28 -203 50 -275 47 -44 84 -49 124 -18 14 11 30 20 35 20 6 0 24 12 41 26 38
32 62 106 59 188 l-2 61 -3 -55 c-2 -30 -6 -66 -9 -79 -5 -23 -6 -23 -23 10
-40 74 -161 104 -231 57 -19 -13 -36 -30 -38 -38 -3 -8 9 -2 25 13 55 51 149
48 207 -6 59 -57 58 -114 -4 -150 -33 -20 -44 -10 -35 31 12 56 -56 103 -104
73 -8 -5 -24 -30 -36 -55 l-23 -47 -20 26 c-31 39 -26 144 7 179 31 33 101 59
145 54 38 -4 46 7 46 71 l0 34 -52 -7 c-28 -4 -69 -15 -90 -26 l-38 -18 0 23
c0 60 98 104 191 84 27 -6 52 -16 56 -22 5 -7 11 -41 14 -77 l6 -65 1 86 c2
99 -5 111 -78 128 -55 13 -53 13 -119 -5z m162 -21 c41 -20 27 -27 -31 -14
-54 11 -112 6 -154 -15 -50 -25 -69 -8 -24 21 51 34 151 37 209 8z m-67 -108
c4 -8 3 -26 0 -40 -5 -20 -13 -25 -40 -25 -40 0 -92 -17 -127 -41 l-27 -19 10
41 c12 45 35 64 100 84 57 18 77 18 84 0z m-35 -245 c10 -6 19 -18 19 -27 0
-14 -2 -14 -19 1 -11 10 -25 15 -30 11 -6 -3 -11 -2 -11 4 0 6 -7 7 -17 4 -11
-4 -14 -3 -9 5 9 15 41 15 67 2z m-21 -36 c40 -16 41 -18 38 -58 -3 -34 -7
-42 -30 -50 -32 -11 -76 1 -91 25 -12 19 -3 62 19 83 19 19 15 19 64 0z"/>
<path d="M1046 5297 c-10 -7 -17 -22 -14 -33 4 -24 41 -30 58 -9 11 14 10 19
-6 36 -17 16 -22 17 -38 6z m41 -31 c-5 -17 -47 -20 -47 -3 0 20 9 26 31 20
11 -3 18 -11 16 -17z"/>
<path d="M471 5667 c-14 -6 -26 -17 -28 -24 -3 -7 117 -135 265 -285 148 -150
288 -294 312 -320 41 -47 70 -61 70 -35 0 13 -42 60 -321 369 -98 108 -184
212 -192 230 -13 31 -59 78 -76 78 -3 0 -17 -6 -30 -13z m68 -32 c34 -39 38
-57 17 -74 -18 -15 -51 4 -84 48 l-22 30 22 15 c30 21 31 21 67 -19z m85 -115
c20 -22 36 -49 36 -61 0 -11 5 -17 10 -14 6 3 13 -1 16 -10 10 -26 -5 -30 -26
-8 -10 12 -16 24 -13 27 4 3 0 6 -8 6 -21 0 -93 76 -85 89 13 20 33 11 70 -29z
m267 -299 c96 -106 178 -201 183 -210 11 -21 -339 325 -365 361 -19 26 -18 53
1 46 4 -2 86 -90 181 -197z"/>
<path d="M2475 5672 l-460 -2 -44 -273 c-24 -149 -66 -409 -92 -577 -27 -168
-47 -315 -44 -328 l5 -22 898 2 897 3 -1 60 c-1 38 -43 228 -113 520 -133 549
-149 607 -164 617 -7 4 -104 7 -217 5 -113 -1 -412 -3 -665 -5z m894 -49 c16
-59 126 -513 192 -788 32 -137 62 -258 65 -267 5 -17 -37 -18 -885 -18 -706 0
-891 3 -891 13 0 6 27 179 60 382 33 204 72 442 86 530 14 88 27 166 29 173 3
9 146 12 669 12 l665 0 10 -37z m259 -1110 l-3 -28 -888 -3 c-783 -2 -888 0
-893 13 -18 45 -48 43 896 45 l891 1 -3 -28z"/>
<path d="M2578 5553 c7 -3 16 -2 19 1 4 3 -2 6 -13 5 -11 0 -14 -3 -6 -6z"/>
<path d="M2532 5538 c-19 -19 -14 -45 10 -62 31 -22 74 -20 99 5 18 18 19 23
6 42 -7 11 -20 23 -28 25 -8 2 -6 -2 4 -8 20 -13 22 -41 5 -58 -15 -15 -53
-16 -79 -2 -23 13 -24 28 -2 52 18 20 4 25 -15 6z"/>
<path d="M2724 5355 c26 -14 58 -25 71 -25 13 0 41 -8 61 -17 l37 -18 -139 -5
c-126 -5 -120 -6 71 -6 116 -1 181 2 145 5 -39 4 -81 15 -105 29 l-40 23 50
-5 c41 -4 45 -3 25 5 -14 6 -50 8 -80 5 -45 -4 -62 -1 -85 14 -17 11 -36 20
-44 20 -8 0 7 -11 33 -25z"/>
<path d="M2648 5363 c7 -3 16 -2 19 1 4 3 -2 6 -13 5 -11 0 -14 -3 -6 -6z"/>
<path d="M2963 5344 c-21 -13 -33 -24 -28 -24 6 0 19 6 30 14 34 23 134 26
188 5 35 -14 70 -19 130 -17 l82 2 -90 5 c-49 3 -101 12 -113 19 -13 8 -55 15
-93 16 -57 3 -74 -1 -106 -20z"/>
<path d="M2525 5351 c-37 -7 -113 -40 -90 -40 6 0 21 6 35 14 14 8 39 15 55
15 17 1 39 5 50 10 24 10 7 10 -50 1z"/>
<path d="M2143 5312 c-46 -20 -83 -41 -83 -46 0 -5 5 -5 13 1 11 8 141 64 177
76 10 4 8 5 -5 5 -11 0 -57 -17 -102 -36z"/>
<path d="M2348 5314 c39 -19 72 -39 72 -43 0 -5 29 -11 65 -13 46 -3 73 -10
94 -26 17 -12 36 -22 43 -22 7 0 2 7 -12 15 -56 32 -91 45 -127 45 -38 1 -79
21 -66 33 3 4 -4 7 -16 7 -12 0 -39 9 -61 20 -22 11 -45 20 -52 20 -7 0 20
-16 60 -36z"/>
<path d="M2238 5263 c34 -2 88 -2 120 0 31 2 3 3 -63 3 -66 0 -92 -1 -57 -3z"/>
<path d="M3308 5223 c7 -3 16 -2 19 1 4 3 -2 6 -13 5 -11 0 -14 -3 -6 -6z"/>
<path d="M3091 5204 c-15 -11 -33 -14 -54 -10 -23 4 -28 3 -17 -4 21 -14 54
-12 68 3 7 6 43 15 80 18 l67 6 -60 1 c-42 2 -68 -3 -84 -14z"/>
<path d="M3365 5210 c11 -5 27 -9 35 -9 9 0 8 4 -5 9 -11 5 -27 9 -35 9 -9 0
-8 -4 5 -9z"/>
<path d="M2910 5165 c-24 -25 -40 -45 -36 -45 5 0 24 18 43 39 20 23 45 41 61
44 27 4 27 4 2 6 -18 1 -39 -12 -70 -44z"/>
<path d="M2580 5180 c0 -6 7 -10 15 -10 8 0 15 2 15 4 0 2 -7 6 -15 10 -8 3
-15 1 -15 -4z"/>
<path d="M3340 5160 c8 -5 20 -10 25 -10 6 0 3 5 -5 10 -8 5 -19 10 -25 10 -5
0 -3 -5 5 -10z"/>
<path d="M3088 5133 c-8 -10 -19 -25 -23 -33 -8 -13 -7 -13 9 -1 16 14 41 51
33 51 -2 0 -11 -8 -19 -17z"/>
<path d="M3388 5143 c7 -3 16 -2 19 1 4 3 -2 6 -13 5 -11 0 -14 -3 -6 -6z"/>
<path d="M2130 5120 c61 -8 105 -27 134 -59 11 -12 25 -21 32 -21 20 0 166
-81 202 -112 18 -15 38 -28 44 -28 23 0 -76 68 -169 115 -53 28 -106 58 -119
68 -38 29 -91 47 -136 46 -42 -2 -41 -2 12 -9z"/>
<path d="M2734 5100 c-21 -16 -48 -30 -59 -30 -19 -1 -19 -2 -2 -9 16 -6 13
-11 -23 -36 -23 -16 -38 -31 -32 -33 5 -1 22 8 37 23 16 14 34 25 41 25 8 0
14 7 14 14 0 17 55 62 85 69 19 5 19 5 -1 6 -11 0 -38 -12 -60 -29z"/>
<path d="M3190 5105 c-13 -14 -19 -25 -13 -25 6 0 18 11 27 25 9 14 15 25 13
25 -2 0 -14 -11 -27 -25z"/>
<path d="M2849 5083 l-24 -28 28 24 c25 23 32 31 24 31 -2 0 -14 -12 -28 -27z"/>
<path d="M3229 5093 c-13 -15 -12 -15 11 -3 34 17 36 20 18 20 -9 0 -22 -7
-29 -17z"/>
<path d="M2100 5096 c0 -2 11 -6 25 -8 14 -3 25 -1 25 3 0 5 -11 9 -25 9 -14
0 -25 -2 -25 -4z"/>
<path d="M2210 5073 c0 -4 5 -15 10 -23 8 -13 10 -13 10 2 0 9 -4 20 -10 23
-5 3 -10 3 -10 -2z"/>
<path d="M2885 5060 c-10 -11 -13 -20 -7 -20 6 0 16 9 22 20 6 11 9 20 7 20
-2 0 -12 -9 -22 -20z"/>
<path d="M2678 4993 c17 -2 47 -2 65 0 17 2 3 4 -33 4 -36 0 -50 -2 -32 -4z"/>
<path d="M2313 4983 c9 -2 23 -2 30 0 6 3 -1 5 -18 5 -16 0 -22 -2 -12 -5z"/>
<path d="M2933 4983 c82 -2 212 -2 290 0 78 1 12 3 -148 3 -159 0 -223 -2
-142 -3z"/>
<path d="M2380 4961 c0 -9 30 -24 36 -18 2 1 -6 8 -16 15 -11 7 -20 8 -20 3z"/>
<path d="M2440 4921 c0 -5 7 -11 15 -15 8 -3 15 -1 15 3 0 5 -7 11 -15 15 -8
3 -15 1 -15 -3z"/>
<path d="M2308 4885 c30 -22 93 -47 100 -41 2 3 -4 8 -14 11 -10 3 -36 15 -56
25 -44 24 -61 26 -30 5z"/>
<path d="M2568 4893 c7 -3 16 -2 19 1 4 3 -2 6 -13 5 -11 0 -14 -3 -6 -6z"/>
<path d="M2138 4874 c-39 -21 -35 -28 5 -8 37 19 44 24 31 24 -5 -1 -21 -8
-36 -16z"/>
<path d="M2225 4879 c4 -6 9 -8 12 -5 3 3 15 1 27 -5 20 -10 20 -10 2 5 -22
18 -51 22 -41 5z"/>
<path d="M2600 4886 c0 -3 27 -15 60 -27 34 -12 67 -30 74 -40 7 -10 43 -30
81 -44 37 -14 81 -33 98 -42 36 -18 207 -66 213 -60 3 3 -32 14 -78 26 -115
31 -117 31 -93 41 17 7 15 9 -12 9 -48 1 -174 50 -208 81 -16 15 -48 32 -70
39 -22 7 -46 15 -52 17 -7 3 -13 3 -13 0z"/>
<path d="M2581 4846 c2 -2 15 -9 29 -16 23 -12 24 -12 11 3 -7 10 -20 17 -29
17 -8 0 -13 -2 -11 -4z"/>
<path d="M2624 4778 l-19 -23 23 19 c21 18 27 26 19 26 -2 0 -12 -10 -23 -22z"/>
<path d="M2523 4753 c15 -2 39 -2 55 0 15 2 2 4 -28 4 -30 0 -43 -2 -27 -4z"/>
<path d="M2405 4720 c-21 -16 -34 -30 -30 -30 5 0 19 10 31 21 13 12 38 25 56
29 29 7 30 8 7 9 -15 1 -42 -12 -64 -29z"/>
<path d="M3055 4731 c28 -4 56 -10 64 -15 9 -6 12 -5 7 2 -4 6 5 12 21 14 16
2 -10 4 -57 4 -67 1 -74 0 -35 -5z"/>
<path d="M3189 4684 c30 -13 56 -23 58 -20 4 4 -92 46 -104 45 -4 0 16 -11 46
-25z"/>
<path d="M2295 4674 c-50 -25 -131 -74 -122 -74 12 0 91 41 97 51 3 5 24 15
45 23 22 8 33 15 25 15 -8 0 -28 -7 -45 -15z"/>
<path d="M1202 5484 c7 -15 14 -21 16 -15 5 16 -5 41 -17 41 -7 0 -6 -10 1
-26z"/>
<path d="M3897 5362 c-34 -21 -43 -53 -27 -93 17 -40 47 -59 93 -59 44 0 75
13 99 44 63 77 -72 166 -165 108z m139 -15 c33 -29 27 -57 -20 -82 -24 -13
-45 -16 -77 -12 -28 4 -38 2 -28 -4 30 -19 96 -10 128 17 17 14 31 21 31 16 0
-23 -62 -62 -99 -62 -36 0 -76 19 -76 37 -1 4 -6 18 -13 31 -14 25 -4 54 26
71 32 19 99 13 128 -12z"/>
<path d="M4161 5248 c13 -47 -4 -95 -60 -168 -61 -79 -70 -116 -40 -176 12
-25 23 -43 25 -41 2 1 -6 22 -18 46 -27 55 -16 94 47 175 24 32 49 74 54 93
10 36 5 89 -10 98 -4 3 -4 -9 2 -27z"/>
<path d="M4221 5234 c0 -11 3 -14 6 -6 3 7 2 16 -1 19 -3 4 -6 -2 -5 -13z"/>
<path d="M184 5190 c-26 -28 -65 -76 -86 -108 -50 -74 -49 -109 5 -135 32 -16
37 -23 37 -53 0 -20 4 -44 10 -54 12 -23 61 -40 116 -40 24 0 71 -10 105 -21
81 -28 121 -21 173 30 36 35 47 40 96 43 49 3 56 6 64 30 8 24 6 32 -17 56
-18 19 -27 39 -27 61 0 25 -8 40 -35 64 -29 26 -35 37 -35 72 0 83 -59 114
-180 96 -46 -8 -77 -8 -95 -1 -55 21 -81 13 -131 -40z m166 28 c14 0 57 2 97
3 60 3 76 1 100 -17 22 -17 29 -30 31 -66 2 -36 10 -52 37 -78 27 -26 35 -42
35 -69 0 -24 8 -43 27 -63 39 -41 24 -61 -51 -68 -51 -5 -60 -9 -89 -43 -39
-47 -91 -58 -152 -32 -22 9 -73 20 -113 25 -98 11 -122 28 -122 85 0 42 -2 46
-35 59 -19 8 -38 23 -42 32 -9 25 30 92 101 174 l61 71 45 -6 c25 -4 56 -7 70
-7z"/>
<path d="M4226 5176 c-4 -19 -27 -62 -53 -96 -53 -71 -62 -115 -39 -200 15
-55 15 -55 10 -10 -3 25 -7 63 -10 85 -5 36 -1 48 45 114 46 68 70 125 58 137
-2 3 -8 -11 -11 -30z"/>
<path d="M3786 5120 c-40 -12 -96 -69 -96 -97 0 -64 75 -123 154 -123 42 0
100 30 116 60 32 60 -10 130 -93 155 -28 8 -51 15 -51 14 -1 0 -14 -5 -30 -9z
m123 -38 c14 -11 25 -25 24 -31 -2 -6 3 -10 10 -8 7 1 13 -11 15 -32 9 -93
-140 -134 -221 -61 -38 35 -18 41 35 11 59 -34 82 -34 111 -2 14 16 23 32 20
35 -4 3 0 6 9 6 8 0 15 6 15 14 0 11 -4 12 -19 3 -10 -7 -18 -15 -18 -20 0 -4
-7 -18 -15 -31 -14 -21 -20 -23 -51 -16 -19 4 -47 16 -62 26 -15 11 -34 19
-42 19 -19 0 -25 32 -9 51 10 13 15 12 38 -9 30 -29 90 -61 98 -53 3 3 -14 14
-38 24 -78 34 -92 78 -30 98 41 13 94 3 130 -24z"/>
<path d="M4241 5013 c-1 -18 -11 -52 -22 -76 -17 -34 -20 -52 -13 -73 8 -28 8
-27 14 16 3 25 14 63 24 84 13 29 15 45 7 60 -9 19 -10 18 -10 -11z"/>
<path d="M1275 4999 c-11 -6 -31 -24 -45 -41 -19 -22 -44 -34 -104 -49 -91
-23 -132 -42 -222 -105 -36 -24 -71 -44 -77 -44 -7 0 -22 -8 -35 -18 l-24 -18
30 -32 c24 -26 38 -32 70 -32 36 0 45 -5 79 -45 l39 -46 50 39 c27 22 60 43
74 47 80 24 130 58 185 125 31 38 77 82 101 97 50 32 59 49 45 86 -12 31 -44
50 -74 44 -19 -4 -18 -4 5 -6 27 -1 68 -41 68 -66 0 -14 -93 -85 -111 -85 -5
0 -8 -4 -5 -9 4 -5 -17 -35 -46 -66 -49 -54 -113 -95 -171 -109 -15 -3 -45
-22 -66 -41 -36 -33 -71 -46 -71 -26 0 5 -13 23 -29 40 -22 23 -38 31 -64 31
-34 0 -87 31 -87 51 0 6 21 19 47 31 25 11 67 35 92 53 66 47 120 72 204 95
57 16 84 29 115 59 23 22 52 41 64 44 19 4 20 4 3 5 -11 1 -29 -3 -40 -9z"/>
<path d="M1326 4947 c3 -10 9 -15 12 -12 3 3 0 11 -7 18 -10 9 -11 8 -5 -6z"/>
<path d="M1263 4931 c-19 -16 -20 -20 -7 -25 22 -9 26 -8 18 6 -4 6 1 17 11
25 11 7 15 13 9 13 -5 -1 -19 -9 -31 -19z"/>
<path d="M1307 4896 c-16 -13 -16 -14 0 -27 12 -10 15 -11 9 -1 -4 7 -2 19 4
27 15 18 11 19 -13 1z"/>
<path d="M1572 4839 c-13 -5 -28 -7 -33 -4 -16 10 -49 -15 -49 -38 0 -21 1
-21 13 3 8 15 21 24 33 23 10 -1 31 2 46 7 21 7 30 4 44 -11 10 -11 30 -19 50
-19 43 0 62 -30 39 -62 -8 -13 -15 -30 -15 -40 0 -13 -8 -18 -28 -18 -16 0
-37 -9 -47 -20 -10 -11 -26 -20 -35 -20 -9 0 -25 9 -35 20 -11 12 -31 20 -51
20 -42 0 -50 14 -28 48 l17 27 -21 -19 c-40 -35 -22 -76 33 -76 16 0 39 -7 49
-15 25 -19 50 -19 66 0 7 8 30 18 51 21 31 5 39 11 39 27 0 11 8 29 17 39 16
18 16 22 2 46 -10 19 -24 28 -46 30 -17 2 -39 12 -49 23 -19 21 -28 22 -62 8z"/>
<path d="M1597 4783 c-4 -3 -7 -11 -7 -17 0 -6 4 -5 9 3 8 13 12 13 28 0 16
-13 17 -13 4 4 -14 18 -24 21 -34 10z"/>
<path d="M3991 4775 c-24 -7 -54 -24 -67 -36 -21 -20 -24 -31 -23 -88 2 -56 3
-60 8 -26 3 22 11 39 16 38 6 -2 35 -12 65 -23 39 -13 81 -19 143 -20 110 0
171 15 197 48 11 14 22 23 24 21 7 -7 -14 -244 -29 -323 -24 -131 -58 -160
-190 -160 -64 0 -89 5 -123 23 -58 30 -72 66 -85 223 -6 71 -14 128 -18 128
-7 0 -5 -33 12 -184 14 -130 35 -162 127 -191 108 -36 228 -4 264 70 19 39 24
42 58 41 46 -1 85 24 109 72 59 117 20 232 -81 232 l-40 0 7 40 c6 37 4 43
-27 74 -19 19 -52 39 -73 45 -55 15 -220 13 -274 -4z m273 -9 c48 -15 86 -41
86 -58 0 -6 -13 1 -30 15 -36 31 -107 47 -203 47 -88 0 -137 -13 -177 -46 -16
-14 -30 -22 -30 -16 0 17 38 43 82 57 58 18 213 19 272 1z m24 -35 c23 -12 42
-28 42 -35 0 -12 -8 -12 -47 1 -71 23 -234 23 -301 -1 -29 -10 -56 -16 -59
-13 -10 11 48 55 85 66 20 5 82 9 137 7 79 -2 109 -7 143 -25z m-72 -30 c27
-5 63 -15 79 -22 l30 -11 -35 -16 c-67 -30 -340 -15 -340 19 0 11 116 37 171
38 26 1 68 -3 95 -8z m241 -106 c45 -32 52 -139 12 -204 -28 -46 -66 -66 -121
-62 -27 2 -10 31 19 31 55 0 105 98 83 165 -12 35 -26 45 -66 45 -17 0 -24 6
-24 20 0 16 7 20 38 20 21 0 47 -7 59 -15z m-29 -47 c18 -24 23 -57 13 -95
-14 -49 -45 -83 -77 -83 -23 0 -25 3 -20 28 3 15 8 57 12 95 6 65 7 67 34 67
15 0 32 -6 38 -12z"/>
<path d="M874 4749 c-9 -15 10 -32 32 -27 20 3 33 38 15 38 -6 0 -10 -5 -8
-11 1 -6 -4 -14 -12 -17 -10 -3 -12 0 -8 12 7 18 -8 22 -19 5z"/>
<path d="M1526 4742 c-10 -10 15 -31 30 -25 8 3 25 -2 38 -10 18 -12 26 -13
35 -4 7 7 17 12 24 12 6 0 13 9 14 20 l3 20 -9 -20 -10 -20 -1 20 c-1 19 -2
18 -10 -2 -11 -28 -20 -28 -70 -4 -21 10 -41 16 -44 13z"/>
<path d="M1001 4717 c2 -1 15 -11 29 -22 l25 -20 -19 23 c-11 12 -24 22 -29
22 -6 0 -8 -1 -6 -3z"/>
<path d="M484 4626 c-41 -28 -64 -36 -110 -39 l-59 -3 60 -2 c54 -2 67 2 115
33 30 19 62 35 72 35 9 0 38 -18 63 -40 42 -36 51 -40 101 -40 48 0 59 -4 86
-30 25 -25 29 -36 24 -60 -3 -17 -9 -43 -12 -60 -5 -23 1 -41 25 -78 17 -27
31 -61 31 -75 0 -28 -28 -60 -71 -82 -15 -8 -41 -37 -58 -64 -18 -28 -44 -54
-59 -60 -20 -7 -22 -10 -8 -10 10 -1 33 15 50 35 50 57 90 97 126 124 43 33
43 68 0 137 -32 51 -32 54 -20 98 24 84 -21 135 -118 135 -39 0 -53 5 -73 26
-28 30 -70 54 -96 54 -10 0 -41 -16 -69 -34z"/>
<path d="M581 4588 c33 -49 60 -68 99 -68 41 0 80 -23 81 -48 0 -12 2 -13 6
-4 10 25 -37 62 -78 62 -41 0 -93 35 -104 70 -4 11 -11 20 -16 20 -6 0 0 -15
12 -32z"/>
<path d="M248 4550 c-38 -39 -33 -69 23 -125 32 -34 39 -48 39 -82 0 -22 -9
-62 -21 -87 -19 -45 -20 -49 -4 -72 14 -22 23 -25 63 -24 73 4 77 2 127 -39
40 -33 53 -38 81 -34 24 4 40 0 60 -16 15 -11 31 -21 37 -21 5 0 -7 11 -27 25
-23 16 -51 25 -75 25 -27 0 -44 7 -60 24 -39 42 -84 58 -141 50 -60 -8 -70 6
-51 70 35 116 31 141 -24 193 -24 22 -35 41 -35 60 0 35 8 46 45 66 22 12 25
16 12 17 -10 0 -32 -14 -49 -30z"/>
<path d="M1139 4540 c-9 -5 -22 -23 -29 -39 -7 -17 -20 -33 -31 -36 -26 -9
-34 -43 -15 -64 9 -10 16 -27 16 -40 0 -30 41 -48 75 -33 14 7 39 12 54 12 37
0 91 46 91 77 0 13 6 32 12 43 18 29 -1 56 -36 52 -15 -2 -42 6 -60 18 -37 22
-53 24 -77 10z m68 -19 c17 -11 46 -21 65 -23 22 -2 32 -8 31 -18 -12 -84 -48
-130 -99 -130 -18 0 -44 -5 -58 -11 -31 -14 -60 4 -53 33 3 11 -2 22 -14 28
-26 15 -24 31 9 61 15 15 35 38 45 53 21 31 32 32 74 7z"/>
<path d="M1155 4466 c-24 -36 -5 -69 33 -60 15 4 32 11 37 17 7 7 5 8 -5 5
-52 -18 -58 -18 -64 -3 -7 18 13 55 31 55 6 0 19 -7 27 -16 9 -8 16 -11 16 -5
0 11 -32 31 -49 31 -6 0 -18 -11 -26 -24z"/>
<path d="M376 4511 c-4 -5 3 -7 14 -4 11 3 31 -2 45 -11 13 -9 32 -16 42 -16
10 0 -2 9 -26 20 -48 22 -67 25 -75 11z"/>
<path d="M544 4504 c-18 -14 -18 -15 4 -4 12 6 22 13 22 15 0 8 -5 6 -26 -11z"/>
<path d="M286 4490 c3 -14 14 -34 24 -45 38 -44 70 -101 70 -125 0 -14 -7 -37
-16 -50 l-16 -25 21 24 c30 33 26 69 -11 126 -18 26 -43 64 -56 84 -18 28 -22
31 -16 11z"/>
<path d="M1576 4481 c-21 -17 -60 -37 -87 -46 -38 -13 -53 -24 -67 -51 -10
-19 -40 -52 -67 -72 -38 -28 -51 -45 -53 -67 -3 -42 8 -55 59 -66 95 -22 112
-60 59 -139 -37 -56 -38 -89 -3 -124 26 -26 30 -27 117 -24 l90 3 21 -32 c11
-18 26 -32 33 -33 7 0 4 9 -8 23 -11 12 -27 30 -36 41 -14 16 -26 17 -100 11
-80 -6 -84 -6 -109 19 -32 32 -31 50 5 111 52 88 35 132 -59 155 -29 7 -55 19
-58 26 -11 30 8 65 50 91 24 14 52 42 63 61 14 27 32 41 70 57 28 11 69 32 91
48 21 15 49 27 61 27 41 0 88 -27 121 -69 18 -23 45 -44 59 -47 121 -26 170
-64 179 -135 7 -57 15 -65 73 -79 32 -8 65 -26 94 -51 70 -62 70 -102 -4 -166
-26 -22 -41 -46 -49 -77 -13 -55 -45 -81 -106 -89 -25 -4 -62 -18 -83 -32 -55
-38 -83 -33 -147 25 -30 28 -63 50 -73 49 -12 0 -9 -3 8 -10 14 -6 43 -30 66
-55 49 -53 90 -59 149 -19 20 14 56 28 80 32 68 9 100 33 115 88 9 33 28 61
62 95 55 54 60 79 25 131 -29 44 -76 74 -143 94 -53 15 -54 16 -54 53 0 45
-30 96 -67 116 -16 8 -53 21 -83 30 -66 20 -70 22 -99 65 -47 66 -134 80 -195
32z"/>
<path d="M403 4425 c22 -42 120 -183 114 -164 -4 13 -111 176 -124 189 -3 3 2
-8 10 -25z"/>
<path d="M770 4416 c0 -19 3 -37 8 -40 4 -2 6 13 4 35 -5 48 -12 51 -12 5z"/>
<path d="M681 4401 c61 -38 76 -75 60 -147 -7 -31 -11 -58 -8 -60 2 -2 10 23
17 56 10 48 10 65 0 91 -13 30 -81 89 -103 89 -6 0 9 -13 34 -29z"/>
<path d="M520 4405 c0 -2 19 -14 43 -26 23 -12 51 -29 62 -38 18 -15 19 -15 6
1 -7 10 -33 29 -58 43 -47 26 -53 28 -53 20z"/>
<path d="M1644 4387 c-26 -15 -144 -123 -144 -133 0 -3 28 20 62 51 34 32 76
66 93 76 33 21 23 26 -11 6z"/>
<path d="M2256 4318 c20 -41 54 -78 69 -78 7 0 102 -60 211 -133 529 -352 614
-403 614 -368 0 12 -521 388 -690 497 -36 23 -73 50 -81 60 -18 22 -87 53
-117 54 -22 0 -22 -1 -6 -32z m49 12 c7 0 28 -12 45 -26 30 -26 31 -27 10 -41
-27 -19 -57 -8 -81 30 -23 39 -24 51 -3 43 9 -3 22 -6 29 -6z m160 -110 c35
-24 44 -35 34 -41 -11 -7 -10 -9 4 -9 9 0 17 -6 18 -12 0 -10 2 -10 6 -1 6 16
9 14 207 -125 250 -174 398 -284 392 -289 -11 -12 -753 481 -753 500 0 23 38
14 92 -23z"/>
<path d="M2335 4270 c-3 -5 -2 -10 4 -10 5 0 13 5 16 10 3 6 2 10 -4 10 -5 0
-13 -4 -16 -10z"/>
<path d="M641 4304 c0 -11 3 -14 6 -6 3 7 2 16 -1 19 -3 4 -6 -2 -5 -13z"/>
<path d="M1867 4295 c34 -15 53 -41 53 -77 1 -13 8 -36 16 -53 8 -16 11 -21 8
-10 -3 11 -9 39 -11 63 -6 45 -48 92 -81 92 -9 -1 -3 -7 15 -15z"/>
<path d="M1776 4251 c25 -15 34 -29 39 -63 4 -24 11 -50 17 -58 7 -12 8 -11 4
5 -3 11 -8 37 -12 58 -6 36 -42 77 -68 77 -6 0 3 -9 20 -19z"/>
<path d="M1470 4227 c0 -4 16 -24 36 -44 31 -31 35 -40 29 -67 -3 -17 -7 -47
-8 -66 l-2 -35 62 -5 c34 -3 59 -2 55 2 -4 4 -29 8 -57 10 -49 3 -50 4 -48 33
1 17 5 44 8 62 6 28 2 37 -34 75 -22 24 -41 39 -41 35z"/>
<path d="M611 4208 c2 -2 22 -19 43 -38 28 -26 36 -29 27 -13 -12 23 -49 53
-65 53 -5 0 -7 -1 -5 -2z"/>
<path d="M545 4180 c-38 -25 -30 -25 20 0 22 11 33 20 25 20 -8 0 -28 -9 -45
-20z"/>
<path d="M3540 4141 c-145 -52 -178 -77 -167 -124 11 -41 46 -77 75 -77 15 0
90 34 167 74 107 56 142 80 149 100 11 28 -5 76 -25 76 -8 0 -6 -7 4 -18 41
-45 19 -71 -120 -141 -85 -42 -110 -50 -97 -29 4 7 3 8 -4 4 -7 -4 -12 -14
-12 -22 0 -8 -4 -14 -9 -14 -5 0 -7 8 -4 19 7 26 -23 80 -50 91 -20 7 -20 9
-4 15 22 9 46 -10 63 -50 7 -16 13 -23 14 -14 0 9 -9 28 -20 42 -11 14 -20 27
-20 30 0 3 37 18 83 33 98 32 148 53 127 53 -8 0 -76 -22 -150 -48z m-87 -81
c35 -28 42 -56 23 -85 -21 -31 -36 -31 -66 -1 -25 27 -29 68 -10 91 16 20 22
19 53 -5z"/>
<path d="M1671 4117 c-1 -23 17 -58 38 -74 9 -6 39 -15 66 -18 28 -4 61 -13
75 -22 l25 -14 -22 19 c-13 11 -45 22 -77 26 -58 8 -82 25 -96 72 -5 18 -9 22
-9 11z"/>
<path d="M2080 4090 c29 -29 35 -66 16 -95 -16 -24 -40 -38 -113 -65 -34 -13
-56 -39 -67 -80 -6 -22 -5 -21 10 5 27 50 46 65 91 77 49 12 103 65 103 102 0
24 -35 76 -51 76 -5 0 0 -9 11 -20z"/>
<path d="M4252 4002 c-16 -22 -34 -37 -42 -35 -10 3 -11 2 -4 -4 11 -8 26 -53
17 -53 -2 0 -13 5 -24 10 -10 6 -19 8 -19 5 0 -3 16 -13 36 -21 27 -12 39 -12
48 -4 8 8 7 11 -4 8 -30 -6 -22 40 14 80 32 35 37 52 14 52 -4 0 -20 -17 -36
-38z"/>
<path d="M975 3993 c-38 -20 -97 -47 -130 -59 -33 -13 -54 -23 -47 -23 8 -1
48 13 89 29 l76 31 24 -23 c30 -28 50 -65 62 -115 7 -28 9 -31 10 -13 1 34
-32 104 -64 135 l-25 26 46 20 c57 26 86 19 113 -24 27 -44 46 -117 38 -148
-7 -26 -97 -85 -111 -72 -3 3 -6 2 -6 -4 0 -17 -162 -72 -306 -104 -73 -15
-143 -34 -158 -40 -14 -7 -28 -10 -30 -8 -2 2 -31 63 -64 134 l-62 130 118 6
c110 6 239 26 229 35 -2 2 -28 -1 -58 -7 -30 -6 -115 -13 -189 -15 -121 -3
-180 -10 -180 -20 0 -2 29 -67 65 -144 36 -77 65 -145 65 -150 0 -18 42 -10
86 15 25 15 92 35 165 51 68 14 158 37 199 50 89 30 231 103 241 124 4 8 15
33 25 54 11 21 34 48 52 58 37 23 38 25 15 73 -15 32 -21 36 -43 30 -33 -9
-75 -10 -130 -2 -39 6 -54 3 -115 -30z m255 10 c0 -14 2 -15 9 -5 6 10 11 5
20 -19 6 -18 10 -33 9 -34 -33 -24 -43 -22 -63 13 -19 33 -19 38 -6 49 22 17
31 16 31 -4z m-56 -22 c27 -29 37 -77 20 -98 -7 -10 -14 -13 -14 -6 0 9 -27
73 -48 116 -8 15 26 6 42 -12z m-741 -152 c9 -23 14 -46 10 -52 -3 -6 -2 -7 4
-4 5 3 20 -15 32 -41 22 -44 22 -47 5 -59 -24 -17 -37 -16 -30 2 3 8 1 15 -5
15 -6 0 -9 7 -5 15 3 9 0 15 -8 15 -17 0 -28 37 -12 44 6 2 3 5 -8 5 -12 1
-16 6 -12 16 3 8 2 15 -3 15 -11 0 -32 50 -26 61 15 23 43 7 58 -32z m96 -203
c12 -33 12 -39 0 -47 -23 -14 -28 -11 -48 31 -18 37 -18 41 -3 50 25 14 35 7
51 -34z"/>
<path d="M1210 3985 c0 -5 5 -17 10 -25 5 -8 10 -10 10 -5 0 6 -5 17 -10 25
-5 8 -10 11 -10 5z"/>
<path d="M4091 3962 c-50 -25 -81 -89 -81 -167 0 -50 6 -74 33 -125 42 -84 63
-97 167 -105 78 -6 88 -5 120 17 63 43 110 170 95 260 -7 39 -56 108 -77 108
-6 0 1 -9 15 -20 38 -30 61 -99 52 -157 -10 -70 -43 -139 -83 -174 l-35 -31
-86 8 c-47 4 -95 13 -107 21 -37 24 -76 109 -81 177 -9 110 38 182 131 197
l41 6 -35 2 c-19 0 -51 -7 -69 -17z"/>
<path d="M4278 3953 c12 -2 30 -2 40 0 9 3 -1 5 -23 4 -22 0 -30 -2 -17 -4z"/>
<path d="M1718 3913 c7 -3 16 -2 19 1 4 3 -2 6 -13 5 -11 0 -14 -3 -6 -6z"/>
<path d="M858 3889 c-49 -25 -151 -49 -211 -49 -27 0 -47 -3 -45 -8 2 -4 14
-37 28 -74 21 -57 28 -67 45 -63 11 3 61 11 110 19 113 19 165 40 165 65 0 19
-30 93 -47 118 -6 8 -18 6 -45 -8z m61 -44 c12 -25 21 -51 21 -60 0 -24 -54
-44 -168 -63 l-107 -18 -18 39 c-37 83 -37 83 40 90 37 3 97 17 133 30 36 14
68 25 71 26 4 0 16 -19 28 -44z"/>
<path d="M763 3765 c0 -8 4 -15 9 -15 4 0 8 7 8 15 0 8 -4 15 -8 15 -5 0 -9
-7 -9 -15z"/>
<path d="M1782 3874 c59 -65 71 -74 97 -73 24 1 23 2 -6 10 -18 5 -46 27 -64
49 -17 21 -38 41 -46 44 -8 3 0 -10 19 -30z"/>
<path d="M4077 3843 c-7 -12 -20 -79 -14 -73 6 6 27 80 22 80 -2 0 -6 -3 -8
-7z"/>
<path d="M3489 3806 c-91 -62 -92 -187 -4 -265 72 -63 152 -78 230 -42 39 17
95 72 95 92 0 5 -27 22 -60 39 -37 19 -65 41 -72 56 -7 15 -23 27 -40 31 -36
7 -68 47 -68 84 0 23 -4 29 -23 29 -12 0 -39 -11 -58 -24z m71 -20 c0 -30 36
-76 60 -76 11 0 34 -16 51 -35 18 -19 49 -43 71 -52 21 -9 38 -20 38 -25 0
-16 -60 -38 -102 -38 -56 1 -146 38 -170 71 -30 40 -26 111 7 155 28 37 45 37
45 0z m-66 -12 c-24 -35 -22 -108 2 -142 50 -69 198 -108 259 -68 39 26 43 11
6 -23 -60 -56 -139 -65 -219 -25 -63 31 -102 79 -109 133 -7 52 1 83 33 120
31 38 51 41 28 5z"/>
<path d="M3622 3644 c-14 -16 -5 -18 17 -5 7 5 9 11 5 14 -5 3 -15 -1 -22 -9z"/>
<path d="M1312 3778 c-7 -7 -12 -26 -12 -43 0 -17 -5 -36 -12 -43 -8 -8 -8
-12 -1 -12 13 0 23 23 23 54 0 44 47 62 72 28 19 -27 54 -43 80 -37 16 3 33
-4 56 -25 38 -35 40 -53 10 -74 -12 -9 -18 -16 -12 -16 15 0 44 34 44 51 0 8
-15 29 -33 47 -26 26 -41 32 -75 32 -33 0 -45 5 -58 25 -18 27 -61 34 -82 13z"/>
<path d="M4071 3740 c0 -8 4 -22 9 -30 12 -18 12 -2 0 25 -6 13 -9 15 -9 5z"/>
<path d="M1246 3664 c-19 -19 -21 -48 -3 -61 6 -6 29 -13 49 -17 30 -5 42 -15
59 -46 18 -32 28 -40 51 -40 35 0 68 32 68 65 0 13 8 29 18 34 9 6 12 11 7 11
-18 0 -35 -23 -35 -47 0 -13 -10 -29 -24 -38 -30 -20 -57 -9 -83 35 -12 21
-28 32 -57 37 -51 11 -67 34 -42 62 22 24 15 28 -8 5z"/>
</g>
</svg>
