<?xml version="1.0" standalone="no"?>
<!DOCTYPE svg PUBLIC "-//W3C//DTD SVG 20010904//EN"
 "http://www.w3.org/TR/2001/REC-SVG-20010904/DTD/svg10.dtd">
<svg version="1.0" xmlns="http://www.w3.org/2000/svg"
 width="1024.000000pt" height="1024.000000pt" viewBox="0 0 1024.000000 1024.000000"
 preserveAspectRatio="xMidYMid meet">

<g transform="translate(0.000000,1024.000000) scale(0.100000,-0.100000)"
fill="#000000" stroke="none">
<path d="M5050 9245 c-62 -20 -149 -91 -195 -160 -87 -132 -116 -293 -97 -550
22 -285 15 -344 -53 -481 l-35 -72 -128 -4 c-117 -3 -131 -5 -178 -32 -76 -42
-195 -182 -339 -401 -55 -84 -129 -180 -185 -240 -179 -191 -314 -377 -360
-494 -17 -44 -19 -59 -10 -85 11 -34 224 -268 350 -383 41 -38 147 -127 235
-198 88 -71 185 -149 215 -173 106 -87 150 -90 250 -16 34 25 63 44 65 42 2
-2 -4 -34 -12 -73 -8 -38 -18 -142 -24 -230 -5 -88 -11 -180 -12 -205 -2 -25
-22 -91 -45 -147 -70 -172 -88 -263 -147 -733 -20 -159 -68 -439 -95 -555 -32
-138 -73 -255 -202 -569 -130 -317 -147 -369 -242 -751 -35 -143 -95 -363
-132 -490 -106 -363 -125 -443 -131 -543 -5 -77 -3 -95 10 -110 14 -16 15 -30
7 -108 -5 -49 -14 -147 -20 -218 -7 -84 -20 -157 -37 -209 -46 -147 -22 -237
64 -237 91 0 272 61 292 98 6 12 11 46 11 76 0 31 4 56 9 56 5 0 12 73 16 162
6 144 10 169 31 210 21 41 29 48 54 48 16 0 32 4 35 10 3 5 21 62 40 127 18
65 54 183 79 263 26 80 80 267 122 415 41 149 99 349 129 445 29 96 83 279
119 405 171 601 448 1306 718 1825 77 149 103 190 119 190 4 0 7 -69 7 -152
-1 -139 3 -178 45 -418 52 -298 67 -450 67 -683 0 -89 7 -276 16 -416 25 -390
13 -691 -45 -1126 -32 -240 -43 -440 -35 -662 7 -198 7 -201 31 -214 23 -12
23 -15 17 -103 -3 -50 -15 -131 -26 -181 -10 -49 -25 -118 -33 -153 -16 -77
-7 -116 37 -159 98 -93 194 -96 286 -9 63 59 64 62 52 302 -6 119 -9 222 -6
230 3 8 13 14 23 14 10 0 37 9 59 19 51 23 48 10 69 376 9 149 20 333 25 410
5 77 16 280 25 450 8 171 17 330 20 355 3 25 12 182 20 350 9 168 18 319 20
335 6 33 40 549 50 740 3 66 16 212 28 325 28 267 30 630 5 765 -22 114 -58
241 -109 374 -21 58 -39 106 -39 107 0 2 16 -6 35 -18 50 -29 110 -21 169 23
240 183 605 527 662 625 24 41 26 49 16 83 -21 69 -76 135 -307 371 -126 130
-267 283 -312 341 -104 134 -283 308 -345 337 -26 12 -82 27 -125 35 l-78 13
-27 70 c-63 164 -81 344 -56 565 20 179 -13 428 -74 557 -34 72 -94 138 -135
148 -16 4 -34 16 -41 26 -7 10 -31 27 -52 38 -47 24 -161 26 -230 5z m220 -17
c58 -30 83 -75 77 -141 -2 -27 -11 -56 -20 -64 -15 -15 -22 -14 -81 16 -126
64 -253 49 -348 -43 -41 -39 -78 -109 -65 -123 11 -10 28 9 22 26 -7 24 45 94
92 125 83 54 191 58 284 11 27 -14 49 -28 49 -32 0 -3 -38 -3 -84 1 -161 12
-244 -27 -304 -144 -18 -36 -35 -88 -39 -117 -5 -47 -7 -51 -24 -40 -14 9 -21
9 -31 -1 -26 -26 29 -199 70 -221 12 -6 23 -31 31 -65 7 -31 28 -79 48 -107
34 -50 35 -54 29 -118 -8 -80 -41 -150 -81 -173 -30 -17 -192 -44 -203 -34 -3
3 6 27 20 53 63 117 63 117 63 493 0 336 1 347 23 410 43 118 103 200 190 260
79 53 206 66 282 28z m154 -99 c74 -65 126 -216 146 -429 10 -106 9 -146 -5
-265 -10 -88 -14 -168 -10 -215 8 -91 48 -266 75 -328 11 -25 18 -47 16 -49
-2 -2 -46 16 -97 40 -148 70 -177 114 -184 278 -4 98 -4 100 26 133 35 41 55
85 64 148 6 37 12 47 30 52 18 5 28 20 44 68 30 94 34 130 17 153 -14 19 -15
19 -35 1 -23 -21 -22 -22 -36 68 -9 55 -46 124 -88 164 l-35 34 21 49 c18 42
19 55 10 89 -5 22 -7 40 -2 40 5 0 24 -14 43 -31z m-69 -110 l-17 -37 36 -37
c20 -19 47 -57 60 -83 23 -45 27 -61 41 -144 6 -39 28 -51 39 -23 3 8 11 15
17 15 16 0 5 -103 -17 -157 -16 -40 -44 -59 -44 -30 -1 28 -18 -21 -30 -85
-15 -85 -52 -144 -127 -203 -108 -85 -158 -83 -278 8 -79 60 -107 103 -130
197 -9 36 -21 72 -26 80 -9 12 -10 12 -5 -2 3 -10 1 -18 -4 -18 -26 0 -82 172
-62 192 6 6 16 1 29 -16 l20 -25 6 67 c10 115 66 211 150 253 34 18 57 20 173
20 l134 -1 20 32 c11 18 21 53 22 78 l1 45 4 -44 c3 -28 -2 -59 -12 -82z
m-295 -810 c61 -41 117 -57 163 -45 13 3 44 21 70 41 25 19 48 35 50 35 2 0 7
-39 10 -87 8 -125 21 -160 78 -215 l48 -47 -82 -27 c-70 -24 -99 -27 -197 -27
-130 0 -255 27 -330 72 -8 5 -39 19 -68 32 -60 26 -55 33 28 44 98 12 145 73
157 200 3 36 8 65 10 65 2 0 30 -18 63 -41z m-482 -332 c3 -85 -12 -197 -44
-337 -20 -89 -27 -99 -53 -76 -39 36 -71 11 -272 -209 -67 -75 -356 -407 -376
-434 -10 -14 -14 -14 -33 7 -11 12 -26 22 -32 22 -7 0 2 -15 19 -32 16 -18 76
-101 132 -184 55 -83 126 -179 157 -215 74 -86 315 -309 333 -309 29 0 99 41
159 93 34 30 95 71 135 92 73 37 77 38 161 33 47 -2 88 -7 92 -11 16 -16 -14
-27 -77 -27 -64 0 -140 -22 -126 -37 3 -3 16 2 29 11 15 11 45 16 93 16 75 0
120 18 99 40 -12 12 -167 32 -192 24 -9 -3 -39 -17 -65 -31 -27 -14 -52 -21
-56 -17 -10 12 -114 408 -145 554 -14 63 -34 170 -46 237 l-21 122 22 42 c35
69 97 259 120 371 16 72 23 140 23 226 l1 122 47 0 c35 0 71 -12 150 -50 146
-71 236 -93 378 -94 117 -1 171 9 261 46 l46 19 56 -25 c57 -25 57 -25 57 -68
0 -81 22 -223 52 -338 44 -166 67 -279 67 -325 1 -47 -22 -101 -74 -176 l-36
-53 3 -146 c3 -144 3 -145 41 -224 22 -46 34 -83 29 -88 -27 -27 -237 -68
-607 -120 -49 -7 -80 -14 -68 -16 60 -9 578 79 660 113 30 13 34 12 44 -6 6
-12 8 -23 5 -26 -9 -9 93 -53 121 -53 16 0 34 -12 51 -32 47 -56 87 -92 132
-117 24 -13 39 -18 35 -11 -5 9 35 55 126 144 134 131 208 224 300 378 27 45
57 91 67 101 13 16 14 19 2 15 -8 -2 -26 -21 -39 -41 l-24 -36 -177 172 c-217
212 -427 376 -481 377 -9 0 -35 -13 -57 -30 -23 -16 -44 -30 -46 -30 -2 0 -6
10 -9 22 -4 15 1 30 15 45 30 32 107 80 141 88 15 4 27 11 27 17 0 20 -115
-39 -167 -85 -26 -23 -21 -31 -57 98 -42 147 -78 415 -58 415 40 0 208 -43
248 -63 59 -30 261 -234 354 -357 35 -47 168 -191 296 -321 330 -336 341 -360
228 -494 -87 -102 -195 -208 -308 -302 -50 -42 -134 -114 -186 -159 -52 -45
-113 -93 -134 -108 -74 -50 -142 -26 -195 68 -27 49 -35 56 -61 56 -17 0 -62
-16 -100 -35 -64 -32 -129 -47 -116 -27 3 5 42 30 88 57 98 57 93 53 85 61 -8
8 -126 -32 -202 -68 -66 -31 -85 -34 -85 -15 0 13 148 104 213 131 20 8 37 17
37 20 0 10 -52 -14 -156 -70 -105 -56 -134 -64 -134 -40 0 21 167 125 212 132
95 16 6 46 -108 37 -59 -4 -84 -3 -84 5 0 11 21 18 135 46 33 8 50 15 39 15
-30 1 -175 -36 -187 -48 -5 -5 -6 -15 -2 -22 6 -9 32 -10 99 -6 125 8 138 -4
40 -36 -97 -32 -199 -51 -432 -81 -98 -13 -184 -26 -190 -30 -6 -3 -46 9 -89
28 -62 28 -94 36 -151 38 -39 1 -74 -1 -78 -5 -4 -4 26 -7 67 -7 64 0 86 -6
158 -38 136 -60 115 -84 -32 -37 -55 18 -98 25 -145 24 l-67 -2 80 -8 c81 -8
201 -46 204 -64 1 -5 -13 -13 -31 -16 l-33 -6 38 -2 c31 -1 40 3 44 19 3 11
11 20 17 20 21 0 37 22 25 36 -11 14 -27 11 236 44 148 19 241 34 290 47 12 3
0 -13 -30 -40 -44 -39 -48 -46 -36 -61 7 -9 20 -16 27 -16 8 0 13 -6 12 -12
-5 -24 47 -19 97 8 48 26 155 67 155 59 0 -2 -31 -23 -70 -46 -38 -24 -70 -49
-70 -56 0 -23 57 -14 133 23 42 20 84 34 94 32 47 -8 182 -393 219 -623 23
-144 21 -439 -5 -690 -11 -110 -27 -319 -36 -465 -9 -146 -25 -381 -36 -523
-10 -142 -24 -352 -29 -465 -6 -114 -15 -268 -20 -342 -5 -74 -14 -234 -20
-355 -13 -279 -29 -564 -35 -635 -3 -30 -12 -170 -20 -310 -10 -173 -19 -258
-27 -267 -25 -24 -139 -45 -223 -41 -64 4 -92 11 -141 35 -33 17 -66 39 -73
47 -11 13 -12 80 -8 339 5 281 9 351 35 547 57 428 61 599 34 1375 -17 452
-25 545 -73 805 -38 204 -42 242 -44 403 -3 196 -8 216 -49 178 -40 -38 -271
-504 -406 -821 -150 -352 -324 -851 -435 -1245 -31 -110 -76 -263 -100 -340
-24 -77 -85 -284 -134 -460 -49 -176 -116 -403 -149 -505 -33 -102 -65 -211
-72 -244 l-12 -59 -96 6 c-54 3 -122 13 -152 23 -67 20 -181 76 -199 98 -26
32 4 226 69 436 70 227 127 437 205 745 85 341 106 402 275 815 152 370 182
503 285 1275 28 213 55 323 114 474 l41 102 9 192 c10 204 34 354 59 375 21
16 59 15 158 -5 78 -16 85 -16 100 -1 15 15 14 17 -12 31 -44 22 -133 49 -146
45 -7 -3 10 -10 38 -18 82 -23 118 -40 106 -52 -7 -7 -34 -5 -88 7 -113 25
-159 18 -230 -37 -78 -59 -96 -68 -141 -68 -27 0 -52 10 -85 33 -64 45 -332
263 -455 370 -126 111 -371 371 -379 404 -21 83 117 299 356 558 62 68 141
170 205 265 120 179 249 339 302 371 50 31 118 49 178 46 l50 -2 3 -88z m19
-124 c-8 -113 -67 -357 -82 -341 -3 3 2 25 10 49 23 65 65 280 65 333 0 25 3
46 6 46 4 0 4 -39 1 -87z m-123 -299 c9 -3 16 -12 16 -20 0 -8 5 -23 12 -33 9
-15 6 -31 -14 -80 -13 -35 -29 -62 -34 -62 -5 0 -15 24 -22 53 -13 53 -36 88
-55 88 -6 0 -1 -10 10 -22 21 -24 46 -121 58 -218 16 -137 115 -578 183 -811
l19 -65 -82 -67 c-46 -37 -100 -74 -120 -83 l-37 -15 -61 54 c-125 110 -265
254 -319 327 -69 94 -198 287 -198 296 0 3 31 41 68 83 38 42 128 146 201 231
173 202 318 350 341 350 10 0 25 -3 34 -6z m1392 -184 c62 -24 269 -195 443
-366 l185 -181 -68 -101 c-94 -140 -156 -212 -279 -325 l-106 -99 -33 20 c-18
11 -55 46 -81 76 -36 42 -55 56 -74 56 -15 0 -45 9 -67 20 -37 18 -46 30 -96
137 l-55 118 -2 138 -1 137 35 53 c58 85 73 125 73 200 l0 67 47 30 c26 17 48
30 49 30 2 0 15 -5 30 -10z m-2095 -5779 c40 -10 75 -24 77 -30 2 -6 -6 -43
-18 -82 -20 -62 -21 -83 -15 -178 6 -92 5 -110 -9 -124 -23 -22 -71 -30 -165
-26 -103 5 -115 15 -102 85 6 28 15 116 21 195 5 79 13 165 16 190 l6 46 58
-28 c31 -16 90 -38 131 -48z m159 -32 c0 -6 -17 -41 -37 -77 -21 -37 -43 -87
-49 -112 l-13 -45 0 51 c-1 28 3 64 9 80 5 16 14 48 20 72 10 37 14 42 40 42
17 0 30 -5 30 -11z m1559 -66 c-10 -55 -39 -157 -43 -152 -1 2 2 52 8 111 9
96 11 106 27 98 14 -8 15 -17 8 -57z m88 22 c38 -10 76 -13 111 -9 l52 6 0
-141 c0 -78 5 -173 11 -212 14 -88 2 -124 -57 -178 -76 -71 -117 -77 -207 -29
-81 44 -100 75 -93 156 7 80 18 103 34 68 15 -34 71 -49 170 -45 80 4 129 24
140 58 2 6 -8 1 -22 -12 -30 -28 -65 -37 -146 -37 -98 0 -140 25 -140 82 0 13
13 62 30 108 16 47 32 111 36 143 4 31 10 57 15 57 4 0 34 -7 66 -15z m-1692
-207 c-4 -62 -11 -117 -16 -123 -8 -8 -2 194 7 223 11 38 15 -1 9 -100z m-30
-121 c-1 -85 -5 -159 -9 -165 -34 -55 -292 -110 -332 -71 -24 25 -29 97 -10
163 17 58 24 64 44 44 18 -18 99 -26 176 -18 83 10 100 25 110 97 9 61 17 103
20 103 2 0 2 -69 1 -153z"/>
<path d="M5031 9034 c-25 -9 -56 -23 -70 -32 -35 -21 -101 -84 -101 -95 0 -6
22 11 49 36 64 60 120 87 200 97 64 7 64 7 16 8 -27 1 -70 -6 -94 -14z"/>
<path d="M4827 8345 c15 -135 2 -224 -42 -289 -30 -44 -32 -55 -6 -32 11 10
30 41 42 69 20 45 24 67 22 157 0 58 -6 116 -12 130 -9 20 -9 13 -4 -35z"/>
<path d="M5496 8393 c-24 -123 -28 -164 -23 -236 5 -81 37 -190 59 -203 8 -5
9 -1 3 12 -54 126 -64 215 -40 349 9 53 15 99 12 101 -3 3 -8 -7 -11 -23z"/>
<path d="M5315 8139 c-3 -8 -18 -61 -34 -119 -16 -58 -33 -114 -37 -125 -5
-14 -4 -17 4 -10 13 12 85 256 77 263 -2 3 -7 -1 -10 -9z"/>
<path d="M4908 7903 c6 -2 18 -2 25 0 6 3 1 5 -13 5 -14 0 -19 -2 -12 -5z"/>
<path d="M5015 7886 c39 -7 81 -18 95 -25 24 -13 24 -12 8 4 -17 18 -87 34
-143 33 -16 0 2 -6 40 -12z"/>
<path d="M4673 6113 c-13 -2 -23 -9 -23 -14 0 -13 37 -11 60 3 15 10 34 10 90
0 92 -16 120 -14 50 3 -53 14 -131 17 -177 8z"/>
</g>
</svg>
